<?xml version="1.0" standalone="no"?>
<!DOCTYPE svg PUBLIC "-//W3C//DTD SVG 1.1//EN" "http://www.w3.org/Graphics/SVG/1.1/DTD/svg11.dtd" >
<svg xmlns="http://www.w3.org/2000/svg">
<metadata>
This is a custom SVG webfont generated by Font Squirrel.
</metadata>
<defs>
<font id="webfontQkcQVq4w" horiz-adv-x="740" >
<font-face units-per-em="1000" ascent="808" descent="-192" />
<missing-glyph horiz-adv-x="277" />
<glyph unicode="IJ" horiz-adv-x="669" d="M606 231q0 -122 -50.5 -183.5t-146.5 -61.5q-88 0 -140.5 50t-57.5 139h73q4 -56 37.5 -88.5t88.5 -32.5q122 0 122 177v508h74v-508zM137 0h-74v739h74v-739z" />
<glyph unicode="ij" horiz-adv-x="403" d="M137 0h-74v547h74v-547zM340 38q0 -117 -45.5 -171.5t-139.5 -58.5v71q62 4 86.5 39t24.5 120v509h74v-509zM340 607h-74v126h74v-126zM137 607h-74v126h74v-126z" />
<glyph unicode="fk" horiz-adv-x="787" d="M782 0h-92l-182 219l-86 -106v-113h-74v739h74v-524l255 332h91l-213 -275zM311 480h-136v-480h-74v480h-85v67h85v5q0 187 210 187v-67q-76 0 -106.5 -28.5t-29.5 -96.5h136v-67z" />
<glyph unicode="&#xfb00;" horiz-adv-x="574" d="M558 480h-136v-480h-74v480h-173v-480h-74v480h-85v67h85v5q0 187 210 187v-67q-76 0 -106.5 -28.5t-29.5 -96.5h173v5q0 187 210 187v-67q-76 0 -106.5 -28.5t-29.5 -96.5h136v-67z" />
<glyph unicode="&#xfb01;" horiz-adv-x="487" d="M424 0h-74v547h74v-547zM424 607h-74v126h74v-126zM311 480h-136v-480h-74v480h-85v67h85v5q0 187 210 187v-67q-76 0 -106.5 -28.5t-29.5 -96.5h136v-67z" />
<glyph unicode="&#xfb02;" horiz-adv-x="485" d="M311 480h-136v-480h-74v480h-85v67h85v5q0 187 210 187v-67q-76 0 -106.5 -28.5t-29.5 -96.5h136v-67zM422 0h-74v739h74v-739z" />
<glyph unicode="&#xfb03;" horiz-adv-x="732" d="M558 480h-136v-480h-74v480h-173v-480h-74v480h-85v67h85v5q0 187 210 187v-67q-76 0 -106.5 -28.5t-29.5 -96.5h173v5q0 187 210 187v-67q-76 0 -106.5 -28.5t-29.5 -96.5h136v-67zM669 0h-74v547h74v-547zM669 607h-74v126h74v-126z" />
<glyph unicode="&#xfb04;" horiz-adv-x="732" d="M558 480h-136v-480h-74v480h-173v-480h-74v480h-85v67h85v5q0 187 210 187v-67q-76 0 -106.5 -28.5t-29.5 -96.5h173v5q0 187 210 187v-67q-76 0 -106.5 -28.5t-29.5 -96.5h136v-67zM669 0h-74v739h74v-739z" />
<glyph unicode=" "  horiz-adv-x="277" />
<glyph unicode="&#x09;" horiz-adv-x="277" />
<glyph unicode="&#xa0;" horiz-adv-x="277" />
<glyph unicode="!" horiz-adv-x="295" d="M185 0h-74v126h74v-126zM185 197h-74v542h74v-542z" />
<glyph unicode="&#x22;" horiz-adv-x="309" d="M124 513h-50v226h50v-226zM237 513h-50v226h50v-226z" />
<glyph unicode="#" horiz-adv-x="554" d="M549 453h-110l-28 -155h123v-61h-135l-43 -237h-66l43 237h-164l-45 -237h-65l45 237h-99v61h111l29 155h-124v61h135l42 225h64l-41 -225h163l40 225h67l-41 -225h99v-61zM373 453h-163l-29 -155h163z" />
<glyph unicode="$" horiz-adv-x="554" d="M479 226q0 -79 -47 -134t-121 -63v-85h-66v85q-170 31 -170 199h69q0 -64 36.5 -101t96.5 -37q56 0 92 38t36 96q0 61 -42 97q-28 23 -93 42q-56 17 -83.5 32.5t-47.5 40.5q-39 47 -39 116q0 68 39 115.5t106 60.5v82h66v-82q74 -11 118 -59.5t44 -121.5h-70 q0 55 -32 86.5t-84 31.5t-82.5 -32t-30.5 -87q0 -46 25.5 -70.5t96.5 -47.5q93 -30 128 -65q55 -52 55 -137z" />
<glyph unicode="%" horiz-adv-x="775" d="M752 163q0 -73 -51.5 -124.5t-124.5 -51.5q-72 0 -123.5 51.5t-51.5 123.5q0 74 51.5 125t125.5 51q71 0 122.5 -52t51.5 -123zM684 162q0 45 -31.5 77.5t-75.5 32.5q-46 0 -77.5 -32t-31.5 -78q0 -45 32 -77t76 -32t76 32t32 77zM588 739l-334 -739h-72l332 739h74z M364 573q0 -73 -51.5 -124.5t-124.5 -51.5q-72 0 -123.5 51.5t-51.5 124.5q0 74 51.5 125t125.5 51q71 0 122.5 -52t51.5 -124zM296 573q0 45 -31.5 77.5t-75.5 32.5q-46 0 -78 -32t-32 -78q0 -45 32 -77.5t77 -32.5q44 0 76 32t32 78z" />
<glyph unicode="&#x26;" horiz-adv-x="757" d="M735 38l-51 -51l-171 166q-44 -87 -97 -126.5t-126 -39.5q-100 0 -166.5 65.5t-66.5 160.5q0 73 40.5 123.5t129.5 96.5q-46 48 -64 82.5t-18 72.5q0 69 51 116.5t124 47.5q77 0 127.5 -48t50.5 -121q0 -59 -29.5 -94t-114.5 -78l140 -138l108 208h82l-136 -261zM458 206 l-178 174q-82 -40 -116 -79.5t-34 -95.5q0 -63 45 -107t110 -44q53 0 93 35t80 117zM428 589q0 41 -30.5 68.5t-75.5 27.5q-43 0 -73 -27.5t-30 -67.5q0 -52 81 -126q66 25 97 55.5t31 69.5z" />
<glyph unicode="'" horiz-adv-x="198" d="M124 513h-50v226h50v-226z" />
<glyph unicode="(" horiz-adv-x="369" d="M335 -125q-119 44 -198.5 169.5t-79.5 264.5q0 138 76.5 262.5t201.5 167.5v-63q-97 -58 -150.5 -160t-53.5 -207q0 -109 52.5 -208.5t151.5 -160.5v-65z" />
<glyph unicode=")" horiz-adv-x="369" d="M312 305q0 -138 -76.5 -262.5t-201.5 -167.5v64q97 56 150.5 159t53.5 208q0 108 -53 208.5t-151 159.5v65q118 -42 198 -168.5t80 -265.5z" />
<glyph unicode="*" horiz-adv-x="425" d="M360 583h-102l55 -88l-47 -27l-53 91l-53 -91l-48 28l57 87h-105v49h105l-56 92l49 28l53 -90l52 90l47 -28l-57 -92h103v-49z" />
<glyph unicode="+" horiz-adv-x="606" d="M543 213h-203v-203h-74v203h-203v74h203v203h74v-203h203v-74z" />
<glyph unicode="," horiz-adv-x="277" d="M253 126l-88 -193h-74l88 193h74z" />
<glyph unicode="-" horiz-adv-x="332" d="M302 233h-271v63h271v-63z" />
<glyph unicode="." horiz-adv-x="277" d="M175 0h-74v126h74v-126z" />
<glyph unicode="/" horiz-adv-x="437" d="M397 739l-290 -867h-67l287 867h70z" />
<glyph unicode="0" horiz-adv-x="554" d="M525 269q0 -282 -242 -282q-120 0 -186.5 69.5t-66.5 212.5v210q0 135 65.5 204t181.5 69q114 0 181 -68t67 -205v-210zM452 281v181q0 107 -39 165t-135 58q-86 0 -130.5 -52t-44.5 -171v-181q0 -123 45.5 -175t131.5 -52q89 0 130.5 53t41.5 174z" />
<glyph unicode="1" horiz-adv-x="554" d="M354 0h-73v672h-126v67h199v-739z" />
<glyph unicode="2" horiz-adv-x="554" d="M506 527q0 -59 -29 -109t-107 -124l-237 -227h369v-67h-469v67l259 250q40 38 57.5 56t41 47t32.5 55t9 56q0 67 -45 110.5t-115 43.5q-74 0 -117 -48t-43 -137h-73q0 117 63.5 184.5t170.5 67.5q101 0 167 -63.5t66 -161.5z" />
<glyph unicode="3" horiz-adv-x="554" d="M504 224q0 -100 -67 -168.5t-165 -68.5q-103 0 -171 66.5t-68 177.5h73q0 -88 46.5 -132.5t117.5 -44.5q68 0 114 48t46 118q0 58 -35 103.5t-90 58.5q-24 5 -86 6v66l17 -1q9 -1 19 -1q58 0 92 31.5t34 84.5q0 52 -31 84.5t-81 32.5q-54 0 -84 -34t-30 -96h-73 q0 90 51.5 143.5t135.5 53.5q82 0 134 -52.5t52 -134.5q0 -89 -76 -142q125 -63 125 -199z" />
<glyph unicode="4" horiz-adv-x="554" d="M527 135h-68v-135h-73v135h-374v67l360 537h87v-537h68v-67zM386 202v435l-289 -435h289z" />
<glyph unicode="5" horiz-adv-x="554" d="M528 246q0 -109 -72 -184t-176 -75q-101 0 -169.5 65t-84.5 180h72q10 -79 59.5 -128.5t119.5 -49.5q74 0 125.5 55.5t51.5 136.5t-51 135.5t-126 54.5q-86 0 -153 -83l-57 22l66 364h333v-67h-274l-36 -204q63 35 127 35q103 0 174 -74.5t71 -182.5z" />
<glyph unicode="6" horiz-adv-x="554" d="M529 249q0 -113 -70.5 -187.5t-178.5 -74.5q-109 0 -182 73.5t-73 183.5q0 55 17.5 100t70.5 123l183 272h85l-174 -257q46 21 87 21q98 0 166.5 -74t68.5 -180zM455 246q0 83 -50 136.5t-127 53.5q-76 0 -127.5 -54t-51.5 -134q0 -84 51.5 -139t129.5 -55 q76 0 125.5 54.5t49.5 137.5z" />
<glyph unicode="7" horiz-adv-x="554" d="M490 672l-302 -672h-78l304 672h-350v67h426v-67z" />
<glyph unicode="8" horiz-adv-x="554" d="M512 218q0 -101 -65.5 -166t-166.5 -65q-102 0 -170 65t-68 163q0 138 125 198q-86 52 -86 148q0 82 56.5 136.5t140.5 54.5q85 0 140 -54t55 -137q0 -107 -88 -148q127 -56 127 -195zM438 216q0 70 -45 114.5t-115 44.5q-71 0 -116.5 -44.5t-45.5 -114.5 q0 -71 45.5 -116.5t117.5 -45.5q70 0 114.5 45.5t44.5 116.5zM399 565q0 52 -34.5 86t-87.5 34t-87.5 -33t-34.5 -85q0 -53 35.5 -88t90.5 -35q50 0 84 34.5t34 86.5z" />
<glyph unicode="9" horiz-adv-x="554" d="M529 495q0 -55 -18 -100t-70 -123l-183 -272h-85l174 257q-46 -21 -87 -21q-98 0 -166.5 74t-68.5 180q0 113 70.5 187.5t178.5 74.5q109 0 182 -73.5t73 -183.5zM455 491q0 84 -51.5 139t-129.5 55q-76 0 -125.5 -54t-49.5 -138q0 -83 50 -136.5t127 -53.5 q76 0 127.5 54t51.5 134z" />
<glyph unicode=":" horiz-adv-x="277" d="M175 381h-74v126h74v-126zM175 0h-74v126h74v-126z" />
<glyph unicode=";" horiz-adv-x="277" d="M199 381h-74v126h74v-126zM203 126l-88 -193h-74l88 193h74z" />
<glyph unicode="&#x3c;" horiz-adv-x="606" d="M480 -95l-378 317v56l378 317v-96l-296 -249l296 -249v-96z" />
<glyph unicode="=" horiz-adv-x="606" d="M543 121h-480v74h480v-74zM543 305h-480v74h480v-74z" />
<glyph unicode="&#x3e;" horiz-adv-x="606" d="M480 222l-378 -317v96l296 249l-296 249v96l378 -317v-56z" />
<glyph unicode="?" horiz-adv-x="591" d="M335 0h-74v126h74v-126zM525 535q0 -48 -20.5 -87t-69.5 -83q-56 -50 -78.5 -87.5t-23.5 -84.5h-70q1 61 24 105.5t80 98.5q51 47 67.5 75t16.5 65q0 64 -43 106t-109 42q-75 0 -119.5 -44.5t-44.5 -132.5h-70q0 117 65.5 180.5t168.5 63.5q98 0 162 -61.5t64 -155.5z " />
<glyph unicode="@" horiz-adv-x="867" d="M797 433q0 -108 -71 -201t-162 -93q-35 0 -55.5 13t-32.5 44q-52 -52 -119 -52q-61 0 -99.5 41.5t-38.5 106.5q0 115 75.5 208t168.5 93q84 0 115 -69l17 50h61l-93 -278q-20 -61 -20 -77q0 -12 9.5 -20t24.5 -8q60 0 115 80t55 163q0 113 -84.5 190t-210.5 77 q-136 0 -232.5 -98t-96.5 -235q0 -138 96 -234.5t234 -96.5t234 101l40 -33q-46 -55 -120.5 -86.5t-155.5 -31.5q-159 0 -269.5 110.5t-110.5 269.5q0 160 111.5 272.5t270.5 112.5q142 0 243 -92.5t101 -226.5zM540 459q0 37 -20 58.5t-54 21.5q-66 0 -120.5 -76.5 t-54.5 -168.5q0 -41 22 -66.5t58 -25.5q65 0 115 89q22 39 38 89t16 79z" />
<glyph unicode="A" d="M729 0h-81l-107 249h-344l-108 -249h-78l317 739h83zM512 316l-142 339l-145 -339h287z" />
<glyph unicode="B" horiz-adv-x="574" d="M544 212q0 -111 -66.5 -161.5t-218.5 -50.5h-183v739h173q133 0 193 -47.5t60 -144.5q0 -107 -82 -153q124 -50 124 -182zM469 208q0 40 -12.5 68t-30.5 43t-51 23t-61.5 10t-75.5 2h-88v-287h101q116 0 167 31.5t51 109.5zM427 546q0 70 -39.5 98t-148.5 28h-89v-251h90 q104 0 145.5 27.5t41.5 97.5z" />
<glyph unicode="C" horiz-adv-x="813" d="M770 194q-112 -207 -338 -207q-166 0 -277 109t-111 271q0 166 109 275.5t274 109.5q115 0 206 -55t134 -150h-83q-87 137 -254 137q-132 0 -221.5 -90.5t-89.5 -223.5q0 -130 92 -222.5t220 -92.5q80 0 139 32.5t118 106.5h82z" />
<glyph unicode="D" horiz-adv-x="744" d="M700 367q0 -167 -108 -267t-317 -100h-199v739h174q101 0 165.5 -13.5t116.5 -44.5q168 -99 168 -314zM625 370q0 83 -35 149.5t-99 104.5q-79 48 -238 48h-103v-605h103q98 0 160 15.5t106 50.5q106 86 106 237z" />
<glyph unicode="E" horiz-adv-x="536" d="M480 0h-404v739h404v-67h-330v-265h319v-67h-319v-273h330v-67z" />
<glyph unicode="F" horiz-adv-x="485" d="M451 672h-301v-267h290v-67h-290v-338h-74v739h375v-67z" />
<glyph unicode="G" horiz-adv-x="872" d="M831 341q-9 -144 -118 -249t-267 -105q-170 0 -286 111t-116 273q0 160 113.5 270.5t278.5 110.5q121 0 217 -57.5t133 -152.5h-83q-38 67 -106.5 104.5t-154.5 37.5q-137 0 -230 -91t-93 -224q0 -132 94 -223t230 -91q107 0 192.5 64.5t106.5 154.5h-413v67h502z" />
<glyph unicode="H" horiz-adv-x="683" d="M607 0h-74v347h-383v-347h-74v739h74v-325h383v325h74v-739z" />
<glyph unicode="I" horiz-adv-x="226" d="M150 0h-74v739h74v-739z" />
<glyph unicode="J" horiz-adv-x="482" d="M406 231q0 -122 -50.5 -183.5t-146.5 -61.5q-88 0 -140.5 50t-57.5 139h73q4 -56 37.5 -88.5t88.5 -32.5q122 0 122 177v508h74v-508z" />
<glyph unicode="K" horiz-adv-x="591" d="M585 0h-93l-246 320l-96 -118v-202h-74v739h74v-425l342 425h93l-292 -360z" />
<glyph unicode="L" horiz-adv-x="462" d="M456 0h-380v739h74v-672h306v-67z" />
<glyph unicode="M" horiz-adv-x="919" d="M843 0h-74v658l-278 -658h-64l-277 658v-658h-74v739h115l269 -629l268 629h115v-739z" />
<glyph unicode="N" d="M664 0h-74l-440 650v-650h-74v739h100l414 -613v613h74v-739z" />
<glyph unicode="O" horiz-adv-x="869" d="M825 369q0 -157 -115 -269.5t-275 -112.5q-163 0 -277 113t-114 274q0 154 116 266t275 112q161 0 275.5 -112.5t114.5 -270.5zM750 368q0 130 -93 223t-222 93q-128 0 -222 -92.5t-94 -219.5q0 -131 92.5 -224t223.5 -93q129 0 222 92.5t93 220.5z" />
<glyph unicode="P" horiz-adv-x="592" d="M565 515q0 -109 -63.5 -162.5t-209.5 -53.5h-142v-299h-74v739h204q151 0 218 -53.5t67 -170.5zM490 515q0 44 -12 74t-29 46t-51 24.5t-63.5 10.5t-79.5 2h-105v-306h137q110 0 156.5 34.5t46.5 114.5z" />
<glyph unicode="Q" horiz-adv-x="871" d="M839 371q0 -173 -123 -278q53 -38 92 -38q13 0 19 1v-69q-52 1 -88 15t-74 49q-94 -64 -222 -64q-166 0 -282.5 111.5t-116.5 270.5q0 164 114.5 273.5t285.5 109.5q170 0 282.5 -108.5t112.5 -272.5zM605 100q-80 73 -157 105t-171 32q-63 0 -116 -21 q36 -68 114.5 -114.5t167.5 -46.5t162 45zM764 371q0 133 -92.5 223t-229.5 90t-230 -92.5t-93 -228.5q0 -35 11 -84q78 26 158 26q107 0 192.5 -39t182.5 -124q101 97 101 229z" />
<glyph unicode="R" horiz-adv-x="607" d="M577 501q0 -98 -56 -156t-162 -69l207 -276h-92l-249 335q158 0 217.5 35.5t59.5 133.5q0 91 -58.5 129.5t-189.5 38.5h-104v-672h-74v739h183q169 0 243.5 -59.5t74.5 -178.5z" />
<glyph unicode="S" horiz-adv-x="498" d="M476 206q0 -94 -63.5 -156.5t-159.5 -62.5q-100 0 -163 60t-68 160h79q8 -73 49.5 -112.5t104.5 -39.5t104.5 41.5t41.5 105.5q0 61 -35 93.5t-130 61.5q-64 19 -90 31.5t-48 33.5q-52 49 -52 131q0 86 58 142.5t147 56.5q91 0 149 -55.5t58 -144.5h-77q0 59 -37.5 95.5 t-94.5 36.5q-55 0 -91.5 -36.5t-36.5 -92.5t35 -86q23 -20 109 -46q96 -29 137 -59q74 -55 74 -158z" />
<glyph unicode="T" horiz-adv-x="426" d="M419 672h-169v-672h-74v672h-169v67h412v-67z" />
<glyph unicode="U" horiz-adv-x="655" d="M579 278q0 -146 -67.5 -218.5t-184.5 -72.5q-116 0 -183.5 72.5t-67.5 218.5v461h74v-461q0 -223 178 -223q177 0 177 223v461h74v-461z" />
<glyph unicode="V" horiz-adv-x="702" d="M692 739l-306 -739h-72l-304 739h81l260 -647l261 647h80z" />
<glyph unicode="W" horiz-adv-x="960" d="M950 739l-212 -739h-95l-164 606l-162 -606h-96l-211 739h76l182 -643l177 643h70l177 -643l182 643h76z" />
<glyph unicode="X" horiz-adv-x="609" d="M601 0h-87l-209 316l-210 -316h-87l251 378l-237 361h87l196 -296l195 296h86l-237 -361z" />
<glyph unicode="Y" horiz-adv-x="592" d="M590 739l-258 -492v-247h-74v247l-256 492h82l210 -414l215 414h81z" />
<glyph unicode="Z" horiz-adv-x="480" d="M474 0h-457v67l363 605h-352v67h435v-67l-362 -605h373v-67z" />
<glyph unicode="[" horiz-adv-x="351" d="M313 -125q-201 59 -201 289v298q0 107 54 179.5t147 97.5v-75q-73 -32 -102 -79.5t-29 -136.5v-271q0 -96 28.5 -145t102.5 -82v-75z" />
<glyph unicode="\" horiz-adv-x="605" d="M464 0h-70l-310 739h70z" />
<glyph unicode="]" horiz-adv-x="351" d="M239 153q0 -108 -54.5 -180.5t-146.5 -97.5v75q74 33 102.5 80.5t28.5 135.5v272q0 95 -28.5 144t-102.5 82v75q201 -58 201 -289v-297z" />
<glyph unicode="^" horiz-adv-x="606" d="M588 180h-81l-203 480l-205 -480h-81l243 559h85z" />
<glyph unicode="_" horiz-adv-x="500" d="M500 -125h-500v58h500v-58z" />
<glyph unicode="`" horiz-adv-x="375" d="M263 650l-34 -56l-193 114l34 58z" />
<glyph unicode="a" horiz-adv-x="683" d="M620 0h-74v96q-44 -59 -92.5 -84t-118.5 -25q-126 0 -209.5 81.5t-83.5 203.5q0 123 82.5 205.5t205.5 82.5q138 0 216 -110v97h74v-547zM546 276q0 91 -62 153.5t-152 62.5q-89 0 -152 -63t-63 -152q0 -94 63 -158t156 -64q88 0 149 64t61 157z" />
<glyph unicode="b" horiz-adv-x="682" d="M640 274q0 -123 -82.5 -205t-206.5 -82q-67 0 -123.5 28t-90.5 79v-94h-74v739h74v-286q73 107 215 107q122 0 205 -82.5t83 -203.5zM565 276q0 92 -61.5 154t-153.5 62t-155 -62.5t-63 -153.5t63.5 -156t153.5 -65q92 0 154 63.5t62 157.5z" />
<glyph unicode="c" horiz-adv-x="647" d="M608 161q-92 -174 -268 -174q-126 0 -212 83t-86 205q0 119 85 202t208 83q92 0 165.5 -48.5t106.5 -130.5h-83q-65 111 -190 111q-91 0 -154 -63.5t-63 -155.5q0 -91 64 -154.5t156 -63.5q58 0 101 24.5t86 81.5h84z" />
<glyph unicode="d" horiz-adv-x="685" d="M622 0h-74v99q-41 -59 -90.5 -85.5t-117.5 -26.5q-127 0 -212.5 82t-85.5 204t83.5 204.5t207.5 82.5q132 0 215 -100v279h74v-739zM551 275q0 90 -64.5 153.5t-155.5 63.5q-89 0 -151.5 -63t-62.5 -153q0 -94 63.5 -157.5t157.5 -63.5q88 0 150.5 65t62.5 155z" />
<glyph unicode="e" horiz-adv-x="650" d="M611 249h-495q4 -81 66.5 -137.5t146.5 -56.5q62 0 115 34.5t76 90.5h77q-27 -81 -101.5 -137t-164.5 -56q-121 0 -205 83.5t-84 205.5q0 119 82.5 201.5t201.5 82.5q124 0 204.5 -84.5t80.5 -226.5zM537 316q-19 82 -75.5 129t-136.5 47q-78 0 -135 -48.5t-72 -127.5 h419z" />
<glyph unicode="f" horiz-adv-x="314" d="M311 480h-136v-480h-74v480h-85v67h85v5q0 187 210 187v-67q-76 0 -106.5 -28.5t-29.5 -96.5h136v-67z" />
<glyph unicode="g" horiz-adv-x="673" d="M610 98q0 -80 -11.5 -128.5t-39.5 -86.5q-74 -98 -222 -98q-103 0 -174 51t-101 147h72q41 -73 86 -101.5t115 -28.5q99 0 150 56.5t51 164.5v37q-63 -124 -209 -124q-120 0 -202.5 82t-82.5 202q0 124 80 206.5t200 82.5q133 0 214 -110v97h74v-449zM536 280 q0 89 -61 150.5t-149 61.5q-91 0 -150 -60.5t-59 -154.5q0 -95 60 -158.5t150 -63.5q89 0 149 64.5t60 160.5z" />
<glyph unicode="h" horiz-adv-x="610" d="M547 0h-74v294q0 99 -45.5 148.5t-123.5 49.5q-75 0 -121 -48t-46 -144v-300h-74v739h74v-263q58 84 174 84q110 0 173 -66.5t63 -199.5v-294z" />
<glyph unicode="i" horiz-adv-x="200" d="M137 0h-74v547h74v-547zM137 607h-74v126h74v-126z" />
<glyph unicode="j" horiz-adv-x="203" d="M140 38q0 -117 -45.5 -171.5t-139.5 -58.5v71q62 4 86.5 39t24.5 120v509h74v-509zM140 607h-74v126h74v-126z" />
<glyph unicode="k" horiz-adv-x="502" d="M497 0h-92l-182 219l-86 -106v-113h-74v739h74v-524l255 332h91l-213 -275z" />
<glyph unicode="l" horiz-adv-x="200" d="M137 0h-74v739h74v-739z" />
<glyph unicode="m" horiz-adv-x="938" d="M875 0h-74v317q0 176 -145 176q-69 0 -109.5 -43.5t-40.5 -132.5v-317h-74v319q0 87 -40.5 130t-107.5 43q-69 0 -108 -45.5t-39 -127.5v-319h-74v547h74v-63q31 41 66.5 58.5t87.5 17.5q61 0 104 -25t75 -80q67 106 190 106q97 0 156 -60.5t59 -175.5v-325z" />
<glyph unicode="n" horiz-adv-x="610" d="M547 0h-74v287q0 205 -169 205q-78 0 -122.5 -47t-44.5 -144v-301h-74v547h74v-71q69 84 176 84q108 0 171 -67.5t63 -205.5v-287z" />
<glyph unicode="o" horiz-adv-x="655" d="M613 272q0 -123 -79 -204t-199 -81q-127 0 -210 82t-83 208q0 120 82.5 201.5t204.5 81.5q123 0 203.5 -81.5t80.5 -206.5zM538 271q0 95 -59.5 158t-149.5 63q-91 0 -151.5 -62t-60.5 -155q0 -96 61 -158t155 -62q89 0 147 61t58 155z" />
<glyph unicode="p" horiz-adv-x="682" d="M640 272q0 -120 -84 -202.5t-206 -82.5q-140 0 -213 107v-286h-74v739h74v-94q71 107 215 107q122 0 205 -83t83 -205zM565 272q0 94 -62 157t-154 63q-91 0 -154 -62.5t-63 -153.5q0 -95 62 -158t156 -63q91 0 153 62.5t62 154.5z" />
<glyph unicode="q" horiz-adv-x="682" d="M619 -192h-74v286q-73 -107 -213 -107q-122 0 -206 82.5t-84 203.5q0 122 83 204.5t205 82.5q145 0 215 -107v94h74v-739zM550 270q0 95 -62 158.5t-155 63.5q-92 0 -154 -63t-62 -157q0 -92 62 -154.5t154 -62.5q91 0 154 62.5t63 152.5z" />
<glyph unicode="r" horiz-adv-x="301" d="M292 487q-155 -15 -155 -168v-319h-74v547h74v-78q22 45 59 66.5t96 24.5v-73z" />
<glyph unicode="s" horiz-adv-x="388" d="M361 157q0 -75 -46.5 -122.5t-120.5 -47.5q-79 0 -127.5 47.5t-48.5 126.5h73q0 -49 28.5 -77.5t74.5 -28.5q40 0 66 27t26 68q0 40 -21.5 60t-84.5 45q-58 23 -71.5 30t-29.5 23q-41 38 -41 98q0 67 44 110.5t111 43.5t110.5 -41.5t43.5 -106.5h-75q0 38 -21.5 59 t-58.5 21q-33 0 -56 -23t-23 -56q0 -47 50 -72q20 -10 103 -44q95 -40 95 -140z" />
<glyph unicode="t" horiz-adv-x="339" d="M327 480h-123v-480h-74v480h-118v67h118v192h74v-192h123v-67z" />
<glyph unicode="u" horiz-adv-x="608" d="M545 0h-74v85q-53 -98 -176 -98q-232 0 -232 265v295h74v-295q0 -197 164 -197q79 0 124.5 52t45.5 159v281h74v-547z" />
<glyph unicode="v" horiz-adv-x="554" d="M546 547l-230 -547h-78l-230 547h75l192 -460l196 460h75z" />
<glyph unicode="w" horiz-adv-x="831" d="M824 547l-212 -547h-79l-119 363l-118 -363h-80l-209 547h74l174 -458l129 391h61l129 -391l178 458h72z" />
<glyph unicode="x" horiz-adv-x="480" d="M472 0h-85l-147 219l-148 -219h-84l190 279l-190 268h84l148 -211l147 211h85l-191 -268z" />
<glyph unicode="y" horiz-adv-x="536" d="M527 547l-316 -739h-79l89 210l-212 529h81l173 -436l185 436h79z" />
<glyph unicode="z" horiz-adv-x="425" d="M415 0h-405v67l302 413h-292v67h376v-63l-299 -417h318v-67z" />
<glyph unicode="{" horiz-adv-x="351" d="M271 -126q-94 1 -124.5 31.5t-30.5 107.5v170q0 46 -15 63t-64 26v69q49 8 64 25t15 64v170q0 78 30 107t125 32v-67q-53 -5 -65.5 -17t-12.5 -54v-170q0 -52 -15.5 -77.5t-55.5 -40.5q-12 -4 -18 -7q53 -20 71 -43.5t18 -80.5v-170q0 -38 13.5 -52t53.5 -18l11 -1v-67z " />
<glyph unicode="|" horiz-adv-x="672" d="M373 -125h-74v864h74v-864z" />
<glyph unicode="}" horiz-adv-x="351" d="M269 272q-47 -8 -61.5 -25t-14.5 -64v-170q0 -78 -30.5 -108t-124.5 -31v67l11 1q24 2 38 7t20 15.5t7.5 19.5t1.5 28v170q0 57 18 80.5t71 43.5q-27 13 -35.5 18t-23.5 15.5t-19 21t-7.5 28t-3.5 42.5v170q0 19 -1.5 28t-7.5 19.5t-20 15.5t-38 7l-11 1v67 q95 -3 125 -32.5t30 -106.5v-170q0 -47 14.5 -64t61.5 -25v-69z" />
<glyph unicode="~" horiz-adv-x="606" d="M555 343q-26 -51 -64 -81.5t-76 -30.5q-28 0 -93 26l-55 22q-53 21 -73 21q-32 0 -50.5 -18t-50.5 -72l-42 47q36 65 68.5 92.5t74.5 27.5q28 0 77 -19l65 -27q55 -23 80 -23q47 0 95 82z" />
<glyph unicode="&#xa1;" horiz-adv-x="295" d="M184 421h-74v126h74v-126zM184 -192h-74v542h74v-542z" />
<glyph unicode="&#xa2;" horiz-adv-x="554" d="M509 463h-83q-47 84 -143 84q-71 0 -117.5 -46.5t-46.5 -117.5q0 -70 47.5 -118t115.5 -48q77 0 140 73h81q-20 -55 -69 -92.5t-109 -45.5v-90h-66v90q-92 7 -153 72.5t-61 157.5q0 94 59.5 158t154.5 74v93h66v-93q64 -9 113 -49t71 -102z" />
<glyph unicode="&#xa3;" horiz-adv-x="554" d="M592 213q0 -97 -63.5 -155t-184.5 -58h-285v67h139q42 47 42 116q0 46 -19.5 79.5t-76.5 84.5h-126v67h75q-22 53 -22 98q0 105 66.5 172.5t168.5 67.5q100 0 168.5 -58.5t79.5 -152.5h-69q-15 68 -62 106t-116 38q-72 0 -117 -48t-45 -124q0 -47 28 -99h284v-67h-215 q72 -76 72 -163q0 -51 -29 -117h57q90 0 133 41.5t43 110.5q0 19 -6 49h72q8 -31 8 -55z" />
<glyph unicode="&#xa4;" horiz-adv-x="554" d="M528 300q0 -89 -47 -147l42 -42l-54 -53l-41 42q-42 -28 -75.5 -39t-76.5 -11q-77 0 -150 50l-42 -42l-53 54l41 41q-46 63 -46 150q0 83 47 149l-44 42l55 54l43 -42q73 47 149 47q85 0 150 -46l43 42l54 -55l-41 -42q46 -68 46 -152zM457 303q0 77 -50.5 128.5 t-126.5 51.5q-80 0 -131.5 -51t-51.5 -130q0 -77 52 -128.5t130 -51.5q76 0 127 52t51 129z" />
<glyph unicode="&#xa5;" horiz-adv-x="554" d="M589 739l-146 -276h103v-67h-139l-48 -92h180v-67h-206v-237h-73v237h-210v67h183l-49 92h-141v67h105l-148 276h76l221 -412l216 412h76z" />
<glyph unicode="&#xa6;" horiz-adv-x="672" d="M373 393h-74v346h74v-346zM373 -125h-74v346h74v-346z" />
<glyph unicode="&#xa7;" horiz-adv-x="615" d="M529 289q0 -87 -76 -143q48 -51 48 -109q0 -76 -54 -127t-134 -51q-88 0 -146 57.5t-61 147.5h68q5 -62 43 -100t96 -38q51 0 85.5 31.5t34.5 77.5q0 30 -22 53.5t-72 48.5l-143 70q-61 30 -85 59t-24 73q0 91 86 152q-38 41 -38 98q0 70 49 116.5t123 46.5 q73 0 122 -40.5t54 -105.5h-71q-17 79 -105 79q-46 0 -75 -26.5t-29 -67.5q0 -58 59 -86l158 -74q109 -51 109 -142zM461 280q0 57 -61 85l-188 89q-57 -39 -57 -104q0 -46 54 -72l198 -96q54 39 54 98z" />
<glyph unicode="&#xa8;" horiz-adv-x="369" d="M295 607h-74v126h74v-126zM148 607h-74v126h74v-126z" />
<glyph unicode="&#xa9;" horiz-adv-x="747" d="M728 341q0 -146 -104 -249.5t-250 -103.5t-249.5 103.5t-103.5 249.5t103.5 250t249.5 104t250 -104t104 -250zM691 341q0 131 -93 224t-224 93t-223.5 -93t-92.5 -224t92.5 -223.5t223.5 -92.5t224 92.5t93 223.5zM600 253q-68 -127 -213 -127q-102 0 -170 61.5 t-68 152.5q0 93 66.5 154.5t168.5 61.5q74 0 131.5 -34t81.5 -92h-63q-49 74 -149 74q-76 0 -127.5 -46.5t-51.5 -116.5q0 -67 53 -115t127 -48q47 0 81.5 17.5t69.5 57.5h63z" />
<glyph unicode="&#xaa;" horiz-adv-x="369" d="M333 448h-48v45q-41 -52 -103 -52q-61 0 -106 45.5t-45 107.5t44.5 106.5t107.5 44.5q31 0 59.5 -14.5t42.5 -36.5v45h48v-291zM282 592q0 42 -29.5 73t-68.5 31t-69.5 -30.5t-30.5 -70.5q0 -42 30 -73.5t70 -31.5q39 0 68.5 31t29.5 71zM339 319h-308v51h308v-51z" />
<glyph unicode="&#xab;" horiz-adv-x="425" d="M212 132l-59 -33l-113 201l113 199l59 -32l-94 -167zM385 132l-59 -33l-115 201l115 199l59 -32l-94 -167z" />
<glyph unicode="&#xac;" horiz-adv-x="606" d="M543 379v-221h-74v147h-406v74h480z" />
<glyph unicode="&#xad;" horiz-adv-x="332" d="M302 233h-271v63h271v-63z" />
<glyph unicode="&#xae;" horiz-adv-x="747" d="M728 341q0 -146 -104 -249.5t-250 -103.5t-249.5 103.5t-103.5 249.5t103.5 250t249.5 104t250 -104t104 -250zM691 341q0 131 -93 224t-224 93t-223.5 -93t-92.5 -224t92.5 -223.5t223.5 -92.5t224 92.5t93 223.5zM531 133h-73l-161 197h11q92 0 126 16q37 16 37 68 q0 46 -33 64.5t-108 18.5h-56v-364h-57v416h116q104 0 149.5 -34.5t45.5 -102.5q0 -110 -122 -128z" />
<glyph unicode="&#xaf;" horiz-adv-x="485" d="M411 638h-337v64h337v-64z" />
<glyph unicode="&#xb0;" horiz-adv-x="400" d="M350 533q0 -64 -43.5 -108.5t-106.5 -44.5t-106.5 44.5t-43.5 109.5q0 64 44.5 108t109.5 44q62 0 104 -44.5t42 -108.5zM293 533q0 40 -26.5 68t-64.5 28q-40 0 -68 -28t-28 -68t28 -68t66 -28q39 0 66 28t27 68z" />
<glyph unicode="&#xb1;" horiz-adv-x="606" d="M543 0h-480v74h480v-74zM543 287h-203v-146h-74v146h-203v74h203v203h74v-203h203v-74z" />
<glyph unicode="&#xb2;" horiz-adv-x="332" d="M320 606q0 -35 -19.5 -67t-66.5 -75l-133 -121h217v-55h-306v51l163 150q56 51 70 70.5t14 48.5q0 34 -27 59t-64 25q-41 0 -66.5 -27t-25.5 -77v-5h-60q1 78 42 121t113 43q62 0 105.5 -41t43.5 -100z" />
<glyph unicode="&#xb3;" horiz-adv-x="332" d="M319 427q0 -60 -45.5 -103.5t-107.5 -43.5q-65 0 -107 42t-46 117h61q3 -54 28 -79t63 -25q37 0 65 27t28 63q0 92 -130 92v54l21 -1q37 0 58.5 16.5t21.5 44.5q0 26 -18 43.5t-45 17.5q-29 0 -45.5 -19.5t-16.5 -57.5h-61q1 60 34.5 96t89.5 36q52 0 87.5 -34.5 t35.5 -84.5q0 -26 -9 -43.5t-32 -38.5q70 -43 70 -119z" />
<glyph unicode="&#xb4;" horiz-adv-x="375" d="M339 708l-193 -114l-34 56l193 116z" />
<glyph unicode="&#xb5;" horiz-adv-x="608" d="M545 0h-74v85q-50 -98 -164 -98q-111 0 -170 98v-277h-74v739h74v-281q0 -69 10.5 -102.5t42.5 -62.5q50 -47 117 -47q76 0 120 52t44 160v281h74v-547z" />
<glyph unicode="&#xb6;" horiz-adv-x="564" d="M491 -133h-75v805h-114v-805h-75v488q-88 9 -139 61t-51 133q0 86 57 138t166 52h231v-872z" />
<glyph unicode="&#xb7;" horiz-adv-x="277" d="M202 250q0 -26 -18.5 -44.5t-44.5 -18.5t-44.5 18.5t-18.5 44.5t18.5 44.5t44.5 18.5t44.5 -18.5t18.5 -44.5z" />
<glyph unicode="&#xb8;" horiz-adv-x="324" d="M288 -137q0 -48 -30.5 -81t-80.5 -33q-37 0 -62 23t-34 62l53 6q10 -33 44 -33q21 0 34.5 14.5t13.5 36.5q0 24 -14 38.5t-37 14.5q-27 0 -46 -19l-32 19l38 94h39l-17 -53l13 2q12 3 20 3q41 0 69.5 -26.5t28.5 -67.5z" />
<glyph unicode="&#xb9;" horiz-adv-x="332" d="M233 288h-60v396h-75v55h135v-451z" />
<glyph unicode="&#xba;" horiz-adv-x="369" d="M337 594q0 -62 -45.5 -107t-107.5 -45q-63 0 -107.5 45t-44.5 109q0 60 45.5 104.5t107.5 44.5t107 -45t45 -106zM284 592q0 44 -28.5 74t-71.5 30q-41 0 -70 -30t-29 -72q0 -43 29 -73t71 -30q40 0 69.5 30t29.5 71zM337 319h-305v51h305v-51z" />
<glyph unicode="&#xbb;" horiz-adv-x="425" d="M385 300l-113 -201l-59 33l94 168l-94 167l59 32zM214 300l-115 -201l-59 33l94 168l-94 167l59 32z" />
<glyph unicode="&#xbc;" horiz-adv-x="831" d="M236 288h-60v396h-75v55h135v-451zM803 79h-42v-79h-60v79h-231v50l226 322h65v-317h42v-55zM701 134v225l-156 -225h156zM607 739l-342 -739h-54l341 739h55z" />
<glyph unicode="&#xbd;" horiz-adv-x="831" d="M814 318q0 -35 -19.5 -67t-66.5 -75l-133 -121h217v-55h-306v51l163 150q56 51 70 70.5t14 48.5q0 34 -27 59t-64 25q-41 0 -66.5 -27t-25.5 -77v-5h-60q1 78 42 121t113 43q62 0 105.5 -41t43.5 -100zM231 288h-60v396h-75v55h135v-451zM602 739l-342 -739h-54l341 739 h55z" />
<glyph unicode="&#xbe;" horiz-adv-x="831" d="M803 79h-42v-79h-60v79h-231v50l226 322h65v-317h42v-55zM701 134v225l-156 -225h156zM635 739l-342 -739h-54l341 739h55zM319 427q0 -60 -45.5 -103.5t-107.5 -43.5q-65 0 -108.5 42.5t-44.5 116.5h61q3 -55 28 -79.5t63 -24.5q37 0 65 27t28 63q0 92 -130 92v54l21 -1 q37 0 58.5 16.5t21.5 44.5q0 26 -18 43.5t-45 17.5q-29 0 -45.5 -19.5t-16.5 -57.5h-61q1 60 34.5 96t89.5 36q52 0 87.5 -34.5t35.5 -84.5q0 -26 -9 -43.5t-32 -38.5q70 -44 70 -119z" />
<glyph unicode="&#xbf;" horiz-adv-x="591" d="M330 421h-74v126h74v-126zM526 39q0 -117 -65.5 -180.5t-168.5 -63.5q-98 0 -162 61.5t-64 155.5q0 48 20.5 87t69.5 83q56 50 78.5 87.5t23.5 84.5h70q-1 -61 -24 -105.5t-80 -98.5q-51 -47 -67.5 -75t-16.5 -65q0 -64 43 -106t109 -42q75 0 119.5 44.5t44.5 132.5h70z " />
<glyph unicode="&#xc0;" d="M445 832l-34 -56l-193 114l34 58zM729 0h-81l-107 249h-344l-108 -249h-78l317 739h83zM512 316l-142 339l-145 -339h287z" />
<glyph unicode="&#xc1;" d="M521 890l-193 -114l-34 56l193 116zM729 0h-81l-107 249h-344l-108 -249h-78l317 739h83zM512 316l-142 339l-145 -339h287z" />
<glyph unicode="&#xc2;" d="M547 789h-89l-86 74l-88 -74h-91l145 126h66zM729 0h-81l-107 249h-344l-108 -249h-78l317 739h83zM512 316l-142 339l-145 -339h287z" />
<glyph unicode="&#xc3;" d="M515 854q-12 -20 -39 -34.5t-52 -14.5q-21 0 -66 22q-23 10 -40 10q-14 0 -23.5 -4.5t-29.5 -21.5l-7 -6l-33 46q38 49 93 49q9 0 50.5 -15.5t56.5 -15.5q27 0 57 31zM729 0h-81l-107 249h-344l-108 -249h-78l317 739h83zM512 316l-142 339l-145 -339h287z" />
<glyph unicode="&#xc4;" d="M480 789h-74v126h74v-126zM333 789h-74v126h74v-126zM729 0h-81l-107 249h-344l-108 -249h-78l317 739h83zM512 316l-142 339l-145 -339h287z" />
<glyph unicode="&#xc5;" d="M471 865q0 -42 -29.5 -71.5t-71.5 -29.5t-71.5 29.5t-29.5 70.5q0 43 29.5 72.5t72.5 29.5q41 0 70.5 -30t29.5 -71zM426 865q0 23 -16.5 39.5t-39.5 16.5t-39.5 -16.5t-16.5 -40.5q0 -23 16.5 -39t39.5 -16t39.5 16.5t16.5 39.5zM729 0h-81l-107 249h-344l-108 -249h-78 l317 739h83zM512 316l-142 339l-145 -339h287z" />
<glyph unicode="&#xc6;" horiz-adv-x="992" d="M936 0h-393v250h-271l-173 -250h-88l511 739h414v-67h-319v-265h308v-67h-308v-273h319v-67zM543 317v327l-224 -327h224z" />
<glyph unicode="&#xc7;" horiz-adv-x="813" d="M770 194q-110 -204 -332 -207l-11 -35l13 2q12 3 20 3q41 0 69.5 -26.5t28.5 -67.5q0 -48 -30.5 -81t-80.5 -33q-37 0 -62 23t-34 62l53 6q10 -33 44 -33q21 0 34.5 14.5t13.5 36.5q0 24 -14 38.5t-37 14.5q-27 0 -46 -19l-32 19l31 77q-153 12 -253.5 119t-100.5 260 q0 166 109 275.5t274 109.5q115 0 206 -55t134 -150h-83q-87 137 -254 137q-132 0 -221.5 -90.5t-89.5 -223.5q0 -130 92 -222.5t220 -92.5q80 0 139 32.5t118 106.5h82z" />
<glyph unicode="&#xc8;" horiz-adv-x="536" d="M354 832l-34 -56l-193 114l34 58zM480 0h-404v739h404v-67h-330v-265h319v-67h-319v-273h330v-67z" />
<glyph unicode="&#xc9;" horiz-adv-x="536" d="M429 890l-193 -114l-34 56l193 116zM480 0h-404v739h404v-67h-330v-265h319v-67h-319v-273h330v-67z" />
<glyph unicode="&#xca;" horiz-adv-x="536" d="M455 789h-89l-86 74l-88 -74h-91l145 126h66zM480 0h-404v739h404v-67h-330v-265h319v-67h-319v-273h330v-67z" />
<glyph unicode="&#xcb;" horiz-adv-x="536" d="M389 789h-74v126h74v-126zM242 789h-74v126h74v-126zM480 0h-404v739h404v-67h-330v-265h319v-67h-319v-273h330v-67z" />
<glyph unicode="&#xcc;" horiz-adv-x="226" d="M184 832l-34 -56l-193 114l34 58zM150 0h-74v739h74v-739z" />
<glyph unicode="&#xcd;" horiz-adv-x="226" d="M269 890l-193 -114l-34 56l193 116zM150 0h-74v739h74v-739z" />
<glyph unicode="&#xce;" horiz-adv-x="226" d="M290 789h-89l-86 74l-88 -74h-91l145 126h66zM150 0h-74v739h74v-739z" />
<glyph unicode="&#xcf;" horiz-adv-x="226" d="M224 789h-74v126h74v-126zM77 789h-74v126h74v-126zM150 0h-74v739h74v-739z" />
<glyph unicode="&#xd0;" horiz-adv-x="790" d="M746 367q0 -167 -108 -267t-317 -100h-199v347h-96v67h96v325h174q101 0 165.5 -13.5t116.5 -44.5q82 -49 125 -129.5t43 -184.5zM671 370q0 83 -35 149.5t-99 104.5q-79 48 -238 48h-103v-258h205v-67h-205v-280h103q98 0 160 15.5t106 50.5q106 86 106 237z" />
<glyph unicode="&#xd1;" d="M516 854q-12 -20 -39 -34.5t-52 -14.5q-21 0 -66 22q-23 10 -40 10q-14 0 -23.5 -4.5t-29.5 -21.5l-7 -6l-33 46q38 49 93 49q9 0 50.5 -15.5t56.5 -15.5q27 0 57 31zM664 0h-74l-440 650v-650h-74v739h100l414 -613v613h74v-739z" />
<glyph unicode="&#xd2;" horiz-adv-x="869" d="M511 832l-34 -56l-193 114l34 58zM825 369q0 -157 -115 -269.5t-275 -112.5q-163 0 -277 113t-114 274q0 154 116 266t275 112q161 0 275.5 -112.5t114.5 -270.5zM750 368q0 130 -93 223t-222 93q-128 0 -222 -92.5t-94 -219.5q0 -131 92.5 -224t223.5 -93 q129 0 222 92.5t93 220.5z" />
<glyph unicode="&#xd3;" horiz-adv-x="869" d="M586 890l-193 -114l-34 56l193 116zM825 369q0 -157 -115 -269.5t-275 -112.5q-163 0 -277 113t-114 274q0 154 116 266t275 112q161 0 275.5 -112.5t114.5 -270.5zM750 368q0 130 -93 223t-222 93q-128 0 -222 -92.5t-94 -219.5q0 -131 92.5 -224t223.5 -93 q129 0 222 92.5t93 220.5z" />
<glyph unicode="&#xd4;" horiz-adv-x="869" d="M612 789h-89l-86 74l-88 -74h-91l145 126h66zM825 369q0 -157 -115 -269.5t-275 -112.5q-163 0 -277 113t-114 274q0 154 116 266t275 112q161 0 275.5 -112.5t114.5 -270.5zM750 368q0 130 -93 223t-222 93q-128 0 -222 -92.5t-94 -219.5q0 -131 92.5 -224t223.5 -93 q129 0 222 92.5t93 220.5z" />
<glyph unicode="&#xd5;" horiz-adv-x="869" d="M581 854q-12 -20 -39 -34.5t-52 -14.5q-21 0 -66 22q-23 10 -40 10q-14 0 -23.5 -4.5t-29.5 -21.5l-7 -6l-33 46q38 49 93 49q9 0 50.5 -15.5t56.5 -15.5q27 0 57 31zM825 369q0 -157 -115 -269.5t-275 -112.5q-163 0 -277 113t-114 274q0 154 116 266t275 112 q161 0 275.5 -112.5t114.5 -270.5zM750 368q0 130 -93 223t-222 93q-128 0 -222 -92.5t-94 -219.5q0 -131 92.5 -224t223.5 -93q129 0 222 92.5t93 220.5z" />
<glyph unicode="&#xd6;" horiz-adv-x="869" d="M546 789h-74v126h74v-126zM399 789h-74v126h74v-126zM825 369q0 -157 -115 -269.5t-275 -112.5q-163 0 -277 113t-114 274q0 154 116 266t275 112q161 0 275.5 -112.5t114.5 -270.5zM750 368q0 130 -93 223t-222 93q-128 0 -222 -92.5t-94 -219.5q0 -131 92.5 -224 t223.5 -93q129 0 222 92.5t93 220.5z" />
<glyph unicode="&#xd7;" horiz-adv-x="606" d="M499 106l-52 -52l-144 144l-144 -144l-52 52l144 144l-144 144l52 52l144 -144l144 144l52 -52l-144 -144z" />
<glyph unicode="&#xd8;" horiz-adv-x="868" d="M824 372q0 -161 -112.5 -273t-274.5 -112q-112 0 -204 55l-94 -125l-56 41l93 124q-132 110 -132 288q0 161 112 271.5t275 110.5q123 0 205 -56l94 125l54 -42l-92 -123q132 -111 132 -284zM595 641q-71 43 -165 43q-131 0 -221 -92.5t-90 -225.5q0 -134 100 -228z M749 369q0 135 -99 231l-376 -503q80 -42 162 -42q131 0 222 91.5t91 222.5z" />
<glyph unicode="&#xd9;" horiz-adv-x="655" d="M403 832l-34 -56l-193 114l34 58zM579 278q0 -146 -67.5 -218.5t-184.5 -72.5q-116 0 -183.5 72.5t-67.5 218.5v461h74v-461q0 -223 178 -223q177 0 177 223v461h74v-461z" />
<glyph unicode="&#xda;" horiz-adv-x="655" d="M479 890l-193 -114l-34 56l193 116zM579 278q0 -146 -67.5 -218.5t-184.5 -72.5q-116 0 -183.5 72.5t-67.5 218.5v461h74v-461q0 -223 178 -223q177 0 177 223v461h74v-461z" />
<glyph unicode="&#xdb;" horiz-adv-x="655" d="M505 789h-89l-86 74l-88 -74h-91l145 126h66zM579 278q0 -146 -67.5 -218.5t-184.5 -72.5q-116 0 -183.5 72.5t-67.5 218.5v461h74v-461q0 -223 178 -223q177 0 177 223v461h74v-461z" />
<glyph unicode="&#xdc;" horiz-adv-x="655" d="M438 789h-74v126h74v-126zM291 789h-74v126h74v-126zM579 278q0 -146 -67.5 -218.5t-184.5 -72.5q-116 0 -183.5 72.5t-67.5 218.5v461h74v-461q0 -223 178 -223q177 0 177 223v461h74v-461z" />
<glyph unicode="&#xdd;" horiz-adv-x="592" d="M446 890l-193 -114l-34 56l193 116zM590 739l-258 -492v-247h-74v247l-256 492h82l210 -414l215 414h81z" />
<glyph unicode="&#xde;" horiz-adv-x="592" d="M565 382q0 -109 -63.5 -162.5t-209.5 -53.5h-142v-166h-74v739h67v-133h137q151 0 218 -53.5t67 -170.5zM490 382q0 44 -12 74t-29 46t-51 24.5t-63.5 10.5t-79.5 2h-105v-306h137q110 0 156.5 34.5t46.5 114.5z" />
<glyph unicode="&#xdf;" horiz-adv-x="554" d="M524 199q0 -91 -58.5 -151.5t-146.5 -60.5q-130 0 -186 122v-109h-74v481q0 271 204 271q91 0 151 -59.5t60 -148.5q0 -104 -85 -155q65 -21 100 -70t35 -120zM449 197q0 68 -48 107t-132 39q-12 0 -45 -2v67h9q78 0 122 37t44 103q0 59 -38 97.5t-96 38.5 q-68 0 -100 -48t-32 -155v-278h51q1 -65 38.5 -106.5t94.5 -41.5q56 0 94 41t38 101z" />
<glyph unicode="&#xe0;" horiz-adv-x="683" d="M620 0h-74v96q-44 -59 -92.5 -84t-118.5 -25q-126 0 -209.5 81.5t-83.5 203.5q0 123 82.5 205.5t205.5 82.5q138 0 216 -110v97h74v-547zM546 276q0 91 -62 153.5t-152 62.5q-89 0 -152 -63t-63 -152q0 -94 63 -158t156 -64q88 0 149 64t61 157zM406 650l-34 -56 l-193 114l34 58z" />
<glyph unicode="&#xe1;" horiz-adv-x="683" d="M481 708l-193 -114l-34 56l193 116zM620 0h-74v96q-44 -59 -92.5 -84t-118.5 -25q-126 0 -209.5 81.5t-83.5 203.5q0 123 82.5 205.5t205.5 82.5q138 0 216 -110v97h74v-547zM546 276q0 91 -62 153.5t-152 62.5q-89 0 -152 -63t-63 -152q0 -94 63 -158t156 -64 q88 0 149 64t61 157z" />
<glyph unicode="&#xe2;" horiz-adv-x="683" d="M507 607h-89l-86 74l-88 -74h-91l145 126h66zM620 0h-74v96q-44 -59 -92.5 -84t-118.5 -25q-126 0 -209.5 81.5t-83.5 203.5q0 123 82.5 205.5t205.5 82.5q138 0 216 -110v97h74v-547zM546 276q0 91 -62 153.5t-152 62.5q-89 0 -152 -63t-63 -152q0 -94 63 -158t156 -64 q88 0 149 64t61 157z" />
<glyph unicode="&#xe3;" horiz-adv-x="683" d="M475 672q-12 -20 -39 -34.5t-52 -14.5q-21 0 -66 22q-23 10 -40 10q-14 0 -23.5 -4.5t-29.5 -21.5l-7 -6l-33 46q38 49 93 49q9 0 50.5 -15.5t56.5 -15.5q27 0 57 31zM620 0h-74v96q-44 -59 -92.5 -84t-118.5 -25q-126 0 -209.5 81.5t-83.5 203.5q0 123 82.5 205.5 t205.5 82.5q138 0 216 -110v97h74v-547zM546 276q0 91 -62 153.5t-152 62.5q-89 0 -152 -63t-63 -152q0 -94 63 -158t156 -64q88 0 149 64t61 157z" />
<glyph unicode="&#xe4;" horiz-adv-x="683" d="M440 607h-74v126h74v-126zM293 607h-74v126h74v-126zM620 0h-74v96q-44 -59 -92.5 -84t-118.5 -25q-126 0 -209.5 81.5t-83.5 203.5q0 123 82.5 205.5t205.5 82.5q138 0 216 -110v97h74v-547zM546 276q0 91 -62 153.5t-152 62.5q-89 0 -152 -63t-63 -152q0 -94 63 -158 t156 -64q88 0 149 64t61 157z" />
<glyph unicode="&#xe5;" horiz-adv-x="683" d="M431 680q0 -42 -29.5 -71.5t-71.5 -29.5t-71.5 29.5t-29.5 70.5q0 43 29.5 72.5t72.5 29.5q41 0 70.5 -30t29.5 -71zM386 680q0 23 -16.5 39.5t-39.5 16.5t-39.5 -16.5t-16.5 -40.5q0 -23 16.5 -39t39.5 -16t39.5 16.5t16.5 39.5zM620 0h-74v96q-44 -59 -92.5 -84 t-118.5 -25q-126 0 -209.5 81.5t-83.5 203.5q0 123 82.5 205.5t205.5 82.5q138 0 216 -110v97h74v-547zM546 276q0 91 -62 153.5t-152 62.5q-89 0 -152 -63t-63 -152q0 -94 63 -158t156 -64q88 0 149 64t61 157z" />
<glyph unicode="&#xe6;" horiz-adv-x="1157" d="M1118 247h-495q7 -82 69 -137t147 -55q63 0 114.5 33.5t74.5 89.5h77q-29 -86 -102 -138.5t-164 -52.5q-130 0 -220 105v-92h-71v92q-46 -55 -97.5 -80t-119.5 -25q-123 0 -206 82t-83 203q0 120 82 204t206 84q139 0 218 -108v95h71v-95q86 108 216 108q122 0 202.5 -82 t80.5 -231zM1046 314q-15 81 -72.5 129.5t-137.5 48.5q-82 0 -140 -49.5t-70 -128.5h420zM550 274q0 95 -61.5 156.5t-155.5 61.5q-92 0 -153.5 -62.5t-61.5 -155.5q0 -92 62 -155.5t153 -63.5t154 63.5t63 155.5z" />
<glyph unicode="&#xe7;" horiz-adv-x="647" d="M608 161q-90 -171 -260 -174l-11 -35l13 2q13 3 20 3q41 0 69.5 -26.5t28.5 -67.5q0 -48 -30.5 -81t-80.5 -33q-37 0 -62 23t-34 62l53 6q10 -33 44 -33q21 0 34.5 14.5t13.5 36.5q0 24 -14 38.5t-37 14.5q-27 0 -46 -19l-32 19l31 78q-115 11 -190.5 91.5t-75.5 194.5 q0 119 85 202t208 83q92 0 165.5 -48.5t106.5 -130.5h-83q-65 111 -190 111q-91 0 -154 -63.5t-63 -155.5q0 -91 64 -154.5t156 -63.5q58 0 101 24.5t86 81.5h84z" />
<glyph unicode="&#xe8;" horiz-adv-x="650" d="M611 249h-495q4 -81 66.5 -137.5t146.5 -56.5q62 0 115 34.5t76 90.5h77q-27 -81 -101.5 -137t-164.5 -56q-121 0 -205 83.5t-84 205.5q0 119 82.5 201.5t201.5 82.5q124 0 204.5 -84.5t80.5 -226.5zM537 316q-19 82 -75.5 129t-136.5 47q-78 0 -135 -48.5t-72 -127.5 h419zM402 650l-34 -56l-193 114l34 58z" />
<glyph unicode="&#xe9;" horiz-adv-x="650" d="M477 708l-193 -114l-34 56l193 116zM611 249h-495q4 -81 66.5 -137.5t146.5 -56.5q62 0 115 34.5t76 90.5h77q-27 -81 -101.5 -137t-164.5 -56q-121 0 -205 83.5t-84 205.5q0 119 82.5 201.5t201.5 82.5q124 0 204.5 -84.5t80.5 -226.5zM537 316q-19 82 -75.5 129 t-136.5 47q-78 0 -135 -48.5t-72 -127.5h419z" />
<glyph unicode="&#xea;" horiz-adv-x="650" d="M503 607h-89l-86 74l-88 -74h-91l145 126h66zM611 249h-495q4 -81 66.5 -137.5t146.5 -56.5q62 0 115 34.5t76 90.5h77q-27 -81 -101.5 -137t-164.5 -56q-121 0 -205 83.5t-84 205.5q0 119 82.5 201.5t201.5 82.5q124 0 204.5 -84.5t80.5 -226.5zM537 316 q-19 82 -75.5 129t-136.5 47q-78 0 -135 -48.5t-72 -127.5h419z" />
<glyph unicode="&#xeb;" horiz-adv-x="650" d="M436 607h-74v126h74v-126zM289 607h-74v126h74v-126zM611 249h-495q4 -81 66.5 -137.5t146.5 -56.5q62 0 115 34.5t76 90.5h77q-27 -81 -101.5 -137t-164.5 -56q-121 0 -205 83.5t-84 205.5q0 119 82.5 201.5t201.5 82.5q124 0 204.5 -84.5t80.5 -226.5zM537 316 q-19 82 -75.5 129t-136.5 47q-78 0 -135 -48.5t-72 -127.5h419z" />
<glyph unicode="&#xec;" horiz-adv-x="200" d="M137 0h-74v547h74v-547zM171 650l-34 -56l-193 114l34 58z" />
<glyph unicode="&#xed;" horiz-adv-x="200" d="M137 0h-74v547h74v-547zM256 708l-193 -114l-34 56l193 116z" />
<glyph unicode="&#xee;" horiz-adv-x="200" d="M277 607h-89l-86 74l-88 -74h-91l145 126h66zM137 0h-74v547h74v-547z" />
<glyph unicode="&#xef;" horiz-adv-x="200" d="M137 0h-74v547h74v-547zM210 607h-74v126h74v-126zM63 607h-74v126h74v-126z" />
<glyph unicode="&#xf0;" horiz-adv-x="655" d="M613 279q0 -129 -78 -210.5t-201 -81.5q-126 0 -209 81.5t-83 205.5q0 120 78.5 201t195.5 81q41 0 96 -18q-63 64 -95 92l-87 -39l-36 46l79 35q-17 17 -33 31l-27 24l53 29q41 -30 68 -55l95 42l39 -44l-89 -39q119 -105 176.5 -193t57.5 -188zM538 272 q0 95 -59.5 157.5t-149.5 62.5q-91 0 -151.5 -62t-60.5 -155q0 -96 61 -158t155 -62q90 0 147.5 61t57.5 156z" />
<glyph unicode="&#xf1;" horiz-adv-x="610" d="M450 672q-12 -20 -39 -34.5t-52 -14.5q-21 0 -66 22q-23 10 -40 10q-14 0 -23.5 -4.5t-29.5 -21.5l-7 -6l-33 46q38 49 93 49q9 0 50.5 -15.5t56.5 -15.5q27 0 57 31zM547 0h-74v287q0 205 -169 205q-78 0 -122.5 -47t-44.5 -144v-301h-74v547h74v-71q69 84 176 84 q108 0 171 -67.5t63 -205.5v-287z" />
<glyph unicode="&#xf2;" horiz-adv-x="655" d="M613 272q0 -123 -79 -204t-199 -81q-127 0 -210 82t-83 208q0 120 82.5 201.5t204.5 81.5q123 0 203.5 -81.5t80.5 -206.5zM538 271q0 95 -59.5 158t-149.5 63q-91 0 -151.5 -62t-60.5 -155q0 -96 61 -158t155 -62q89 0 147 61t58 155zM405 650l-34 -56l-193 114l34 58z " />
<glyph unicode="&#xf3;" horiz-adv-x="655" d="M480 708l-193 -114l-34 56l193 116zM613 272q0 -123 -79 -204t-199 -81q-127 0 -210 82t-83 208q0 120 82.5 201.5t204.5 81.5q123 0 203.5 -81.5t80.5 -206.5zM538 271q0 95 -59.5 158t-149.5 63q-91 0 -151.5 -62t-60.5 -155q0 -96 61 -158t155 -62q89 0 147 61t58 155 z" />
<glyph unicode="&#xf4;" horiz-adv-x="655" d="M506 607h-89l-86 74l-88 -74h-91l145 126h66zM613 272q0 -123 -79 -204t-199 -81q-127 0 -210 82t-83 208q0 120 82.5 201.5t204.5 81.5q123 0 203.5 -81.5t80.5 -206.5zM538 271q0 95 -59.5 158t-149.5 63q-91 0 -151.5 -62t-60.5 -155q0 -96 61 -158t155 -62 q89 0 147 61t58 155z" />
<glyph unicode="&#xf5;" horiz-adv-x="655" d="M474 672q-12 -20 -39 -34.5t-52 -14.5q-21 0 -66 22q-23 10 -40 10q-14 0 -23.5 -4.5t-29.5 -21.5l-7 -6l-33 46q38 49 93 49q9 0 50.5 -15.5t56.5 -15.5q27 0 57 31zM613 272q0 -123 -79 -204t-199 -81q-127 0 -210 82t-83 208q0 120 82.5 201.5t204.5 81.5 q123 0 203.5 -81.5t80.5 -206.5zM538 271q0 95 -59.5 158t-149.5 63q-91 0 -151.5 -62t-60.5 -155q0 -96 61 -158t155 -62q89 0 147 61t58 155z" />
<glyph unicode="&#xf6;" horiz-adv-x="655" d="M439 607h-74v126h74v-126zM292 607h-74v126h74v-126zM613 272q0 -123 -79 -204t-199 -81q-127 0 -210 82t-83 208q0 120 82.5 201.5t204.5 81.5q123 0 203.5 -81.5t80.5 -206.5zM538 271q0 95 -59.5 158t-149.5 63q-91 0 -151.5 -62t-60.5 -155q0 -96 61 -158t155 -62 q89 0 147 61t58 155z" />
<glyph unicode="&#xf7;" horiz-adv-x="606" d="M543 213h-480v74h480v-74zM366 65q0 -26 -18.5 -44.5t-44.5 -18.5t-44.5 18.5t-18.5 44.5t18.5 44.5t44.5 18.5t44.5 -18.5t18.5 -44.5zM366 435q0 -26 -18.5 -44.5t-44.5 -18.5t-44.5 18.5t-18.5 44.5t18.5 44.5t44.5 18.5t44.5 -18.5t18.5 -44.5z" />
<glyph unicode="&#xf8;" horiz-adv-x="653" d="M611 281q0 -128 -79.5 -211t-203.5 -83q-73 0 -150 41l-52 -67l-53 40l51 67q-45 52 -63.5 98.5t-18.5 105.5q0 120 83.5 204t202.5 84q80 0 146 -41l57 75l53 -42l-56 -74q83 -76 83 -197zM434 468q-48 24 -105 24q-90 0 -151 -65t-61 -161q0 -76 49 -145zM536 280 q0 85 -49 146l-269 -347q53 -24 105 -24q94 0 153.5 63t59.5 162z" />
<glyph unicode="&#xf9;" horiz-adv-x="608" d="M545 0h-74v85q-53 -98 -176 -98q-232 0 -232 265v295h74v-295q0 -197 164 -197q79 0 124.5 52t45.5 159v281h74v-547zM380 650l-34 -56l-193 114l34 58z" />
<glyph unicode="&#xfa;" horiz-adv-x="608" d="M455 708l-193 -114l-34 56l193 116zM545 0h-74v85q-53 -98 -176 -98q-232 0 -232 265v295h74v-295q0 -197 164 -197q79 0 124.5 52t45.5 159v281h74v-547z" />
<glyph unicode="&#xfb;" horiz-adv-x="608" d="M481 607h-89l-86 74l-88 -74h-91l145 126h66zM545 0h-74v85q-53 -98 -176 -98q-232 0 -232 265v295h74v-295q0 -197 164 -197q79 0 124.5 52t45.5 159v281h74v-547z" />
<glyph unicode="&#xfc;" horiz-adv-x="608" d="M414 607h-74v126h74v-126zM267 607h-74v126h74v-126zM545 0h-74v85q-53 -98 -176 -98q-232 0 -232 265v295h74v-295q0 -197 164 -197q79 0 124.5 52t45.5 159v281h74v-547z" />
<glyph unicode="&#xfd;" horiz-adv-x="536" d="M420 708l-193 -114l-34 56l193 116zM527 547l-316 -739h-79l89 210l-212 529h81l173 -436l185 436h79z" />
<glyph unicode="&#xfe;" horiz-adv-x="682" d="M640 272q0 -120 -84 -202.5t-206 -82.5q-140 0 -213 107v-286h-74v931h74v-286q71 107 215 107q122 0 205 -83t83 -205zM565 272q0 94 -62 157t-154 63q-91 0 -154 -62.5t-63 -153.5q0 -95 62 -158t156 -63q91 0 153 62.5t62 154.5z" />
<glyph unicode="&#xff;" horiz-adv-x="536" d="M379 607h-74v126h74v-126zM232 607h-74v126h74v-126zM527 547l-316 -739h-79l89 210l-212 529h81l173 -436l185 436h79z" />
<glyph unicode="&#x100;" d="M538 820h-337v64h337v-64zM729 0h-81l-107 249h-344l-108 -249h-78l317 739h83zM512 316l-142 339l-145 -339h287z" />
<glyph unicode="&#x101;" horiz-adv-x="683" d="M498 638h-337v64h337v-64zM620 0h-74v96q-44 -59 -92.5 -84t-118.5 -25q-126 0 -209.5 81.5t-83.5 203.5q0 123 82.5 205.5t205.5 82.5q138 0 216 -110v97h74v-547zM546 276q0 91 -62 153.5t-152 62.5q-89 0 -152 -63t-63 -152q0 -94 63 -158t156 -64q88 0 149 64t61 157 z" />
<glyph unicode="&#x102;" d="M522 912q-12 -64 -50 -92t-102 -28q-130 0 -152 120h64q10 -62 88 -62t88 62h64zM729 0h-81l-107 249h-344l-108 -249h-78l317 739h83zM512 316l-142 339l-145 -339h287z" />
<glyph unicode="&#x103;" horiz-adv-x="683" d="M481 730q-12 -64 -50 -92t-102 -28q-130 0 -152 120h64q10 -62 88 -62t88 62h64zM620 0h-74v96q-44 -59 -92.5 -84t-118.5 -25q-126 0 -209.5 81.5t-83.5 203.5q0 123 82.5 205.5t205.5 82.5q138 0 216 -110v97h74v-547zM546 276q0 91 -62 153.5t-152 62.5 q-89 0 -152 -63t-63 -152q0 -94 63 -158t156 -64q88 0 149 64t61 157z" />
<glyph unicode="&#x104;" d="M742 -246q-21 -4 -50 -4q-51 0 -86 37t-35 88q0 37 26 71q19 27 51 54l-107 249h-344l-108 -249h-78l317 739h83l318 -739q-84 -48 -84 -125q0 -21 13.5 -36t33.5 -15q22 0 50 5v-75zM512 316l-142 339l-145 -339h287z" />
<glyph unicode="&#x105;" horiz-adv-x="683" d="M633 -246q-21 -4 -50 -4q-51 0 -86 37t-35 88q0 66 84 125v96q-44 -59 -92.5 -84t-118.5 -25q-126 0 -209.5 81.5t-83.5 203.5q0 123 82.5 205.5t205.5 82.5q138 0 216 -110v97h74v-547q-84 -48 -84 -125q0 -21 13.5 -36t33.5 -15q22 0 50 5v-75zM546 276q0 91 -62 153.5 t-152 62.5q-89 0 -152 -63t-63 -152q0 -94 63 -158t156 -64q88 0 149 64t61 157z" />
<glyph unicode="&#x106;" horiz-adv-x="813" d="M578 890l-193 -114l-34 56l193 116zM770 194q-112 -207 -338 -207q-166 0 -277 109t-111 271q0 166 109 275.5t274 109.5q115 0 206 -55t134 -150h-83q-87 137 -254 137q-132 0 -221.5 -90.5t-89.5 -223.5q0 -130 92 -222.5t220 -92.5q80 0 139 32.5t118 106.5h82z" />
<glyph unicode="&#x107;" horiz-adv-x="647" d="M486 708l-193 -114l-34 56l193 116zM608 161q-92 -174 -268 -174q-126 0 -212 83t-86 205q0 119 85 202t208 83q92 0 165.5 -48.5t106.5 -130.5h-83q-65 111 -190 111q-91 0 -154 -63.5t-63 -155.5q0 -91 64 -154.5t156 -63.5q58 0 101 24.5t86 81.5h84z" />
<glyph unicode="&#x108;" horiz-adv-x="813" d="M604 789h-89l-86 74l-88 -74h-91l145 126h66zM770 194q-112 -207 -338 -207q-166 0 -277 109t-111 271q0 166 109 275.5t274 109.5q115 0 206 -55t134 -150h-83q-87 137 -254 137q-132 0 -221.5 -90.5t-89.5 -223.5q0 -130 92 -222.5t220 -92.5q80 0 139 32.5t118 106.5 h82z" />
<glyph unicode="&#x109;" horiz-adv-x="647" d="M512 607h-89l-86 74l-88 -74h-91l145 126h66zM608 161q-92 -174 -268 -174q-126 0 -212 83t-86 205q0 119 85 202t208 83q92 0 165.5 -48.5t106.5 -130.5h-83q-65 111 -190 111q-91 0 -154 -63.5t-63 -155.5q0 -91 64 -154.5t156 -63.5q58 0 101 24.5t86 81.5h84z" />
<glyph unicode="&#x10a;" horiz-adv-x="813" d="M770 194q-112 -207 -338 -207q-166 0 -277 109t-111 271q0 166 109 275.5t274 109.5q115 0 206 -55t134 -150h-83q-87 137 -254 137q-132 0 -221.5 -90.5t-89.5 -223.5q0 -130 92 -222.5t220 -92.5q80 0 139 32.5t118 106.5h82zM464 789h-74v126h74v-126z" />
<glyph unicode="&#x10b;" horiz-adv-x="647" d="M608 161q-92 -174 -268 -174q-126 0 -212 83t-86 205q0 119 85 202t208 83q92 0 165.5 -48.5t106.5 -130.5h-83q-65 111 -190 111q-91 0 -154 -63.5t-63 -155.5q0 -91 64 -154.5t156 -63.5q58 0 101 24.5t86 81.5h84zM372 607h-74v126h74v-126z" />
<glyph unicode="&#x10c;" horiz-adv-x="813" d="M604 915l-145 -126h-66l-143 126h89l86 -74l88 74h91zM770 194q-112 -207 -338 -207q-166 0 -277 109t-111 271q0 166 109 275.5t274 109.5q115 0 206 -55t134 -150h-83q-87 137 -254 137q-132 0 -221.5 -90.5t-89.5 -223.5q0 -130 92 -222.5t220 -92.5q80 0 139 32.5 t118 106.5h82z" />
<glyph unicode="&#x10d;" horiz-adv-x="647" d="M512 733l-145 -126h-66l-143 126h89l86 -74l88 74h91zM608 161q-92 -174 -268 -174q-126 0 -212 83t-86 205q0 119 85 202t208 83q92 0 165.5 -48.5t106.5 -130.5h-83q-65 111 -190 111q-91 0 -154 -63.5t-63 -155.5q0 -91 64 -154.5t156 -63.5q58 0 101 24.5t86 81.5h84 z" />
<glyph unicode="&#x10e;" horiz-adv-x="744" d="M549 915l-145 -126h-66l-143 126h89l86 -74l88 74h91zM700 367q0 -167 -108 -267t-317 -100h-199v739h174q101 0 165.5 -13.5t116.5 -44.5q168 -99 168 -314zM625 370q0 83 -35 149.5t-99 104.5q-79 48 -238 48h-103v-605h103q98 0 160 15.5t106 50.5q106 86 106 237z " />
<glyph unicode="&#x10f;" horiz-adv-x="685" d="M807 739l-48 -172h-74l48 172h74zM622 0h-74v99q-41 -59 -90.5 -85.5t-117.5 -26.5q-127 0 -212.5 82t-85.5 204t83.5 204.5t207.5 82.5q132 0 215 -100v279h74v-739zM551 275q0 90 -64.5 153.5t-155.5 63.5q-89 0 -151.5 -63t-62.5 -153q0 -94 63.5 -157.5t157.5 -63.5 q88 0 150.5 65t62.5 155z" />
<glyph unicode="&#x110;" horiz-adv-x="790" d="M746 367q0 -167 -108 -267t-317 -100h-199v347h-96v67h96v325h174q101 0 165.5 -13.5t116.5 -44.5q82 -49 125 -129.5t43 -184.5zM671 370q0 83 -35 149.5t-99 104.5q-79 48 -238 48h-103v-258h205v-67h-205v-280h103q98 0 160 15.5t106 50.5q106 86 106 237z" />
<glyph unicode="&#x111;" horiz-adv-x="685" d="M685 602h-63v-602h-74v99q-41 -59 -90.5 -85.5t-117.5 -26.5q-127 0 -212.5 82t-85.5 204t83.5 204.5t207.5 82.5q132 0 215 -100v142h-152v63h152v74h74v-74h63v-63zM551 275q0 90 -64.5 153.5t-155.5 63.5q-89 0 -151.5 -63t-62.5 -152q0 -95 63 -158.5t158 -63.5 q88 0 150.5 65t62.5 155z" />
<glyph unicode="&#x112;" horiz-adv-x="536" d="M447 820h-337v64h337v-64zM480 0h-404v739h404v-67h-330v-265h319v-67h-319v-273h330v-67z" />
<glyph unicode="&#x113;" horiz-adv-x="650" d="M494 638h-337v64h337v-64zM611 249h-495q4 -81 66.5 -137.5t146.5 -56.5q62 0 115 34.5t76 90.5h77q-27 -81 -101.5 -137t-164.5 -56q-121 0 -205 83.5t-84 205.5q0 119 82.5 201.5t201.5 82.5q124 0 204.5 -84.5t80.5 -226.5zM537 316q-19 82 -75.5 129t-136.5 47 q-78 0 -135 -48.5t-72 -127.5h419z" />
<glyph unicode="&#x114;" horiz-adv-x="536" d="M430 912q-12 -64 -50 -92t-102 -28q-130 0 -152 120h64q10 -62 88 -62t88 62h64zM480 0h-404v739h404v-67h-330v-265h319v-67h-319v-273h330v-67z" />
<glyph unicode="&#x115;" horiz-adv-x="650" d="M477 730q-12 -64 -50 -92t-102 -28q-130 0 -152 120h64q10 -62 88 -62t88 62h64zM611 249h-495q4 -81 66.5 -137.5t146.5 -56.5q62 0 115 34.5t76 90.5h77q-27 -81 -101.5 -137t-164.5 -56q-121 0 -205 83.5t-84 205.5q0 119 82.5 201.5t201.5 82.5q124 0 204.5 -84.5 t80.5 -226.5zM537 316q-19 82 -75.5 129t-136.5 47q-78 0 -135 -48.5t-72 -127.5h419z" />
<glyph unicode="&#x116;" horiz-adv-x="536" d="M480 0h-404v739h404v-67h-330v-265h319v-67h-319v-273h330v-67zM315 789h-74v126h74v-126z" />
<glyph unicode="&#x117;" horiz-adv-x="650" d="M611 249h-495q4 -81 66.5 -137.5t146.5 -56.5q62 0 115 34.5t76 90.5h77q-27 -81 -101.5 -137t-164.5 -56q-121 0 -205 83.5t-84 205.5q0 119 82.5 201.5t201.5 82.5q124 0 204.5 -84.5t80.5 -226.5zM537 316q-19 82 -75.5 129t-136.5 47q-78 0 -135 -48.5t-72 -127.5 h419zM363 607h-74v126h74v-126z" />
<glyph unicode="&#x118;" horiz-adv-x="536" d="M493 -246q-21 -4 -50 -4q-51 0 -86 37t-35 88q0 66 84 125h-330v739h404v-67h-330v-265h319v-67h-319v-273h330v-67q-84 -48 -84 -125q0 -21 13.5 -36t33.5 -15q22 0 50 5v-75z" />
<glyph unicode="&#x119;" horiz-adv-x="650" d="M611 249h-495q4 -81 66.5 -137.5t146.5 -56.5q62 0 115 34.5t76 90.5h77q-16 -47 -49.5 -87.5t-79.5 -67.5q-122 -70 -122 -150q0 -21 13.5 -36t33.5 -15q22 0 50 5v-75q-21 -4 -50 -4q-51 0 -86 37t-35 88q0 59 67 112h-8q-121 0 -205 83.5t-84 205.5q0 119 82.5 201.5 t201.5 82.5q124 0 204.5 -84.5t80.5 -226.5zM537 316q-19 82 -75.5 129t-136.5 47q-78 0 -135 -48.5t-72 -127.5h419z" />
<glyph unicode="&#x11a;" horiz-adv-x="536" d="M455 915l-145 -126h-66l-143 126h89l86 -74l88 74h91zM480 0h-404v739h404v-67h-330v-265h319v-67h-319v-273h330v-67z" />
<glyph unicode="&#x11b;" horiz-adv-x="650" d="M503 733l-145 -126h-66l-143 126h89l86 -74l88 74h91zM611 249h-495q4 -81 66.5 -137.5t146.5 -56.5q62 0 115 34.5t76 90.5h77q-27 -81 -101.5 -137t-164.5 -56q-121 0 -205 83.5t-84 205.5q0 119 82.5 201.5t201.5 82.5q124 0 204.5 -84.5t80.5 -226.5zM537 316 q-19 82 -75.5 129t-136.5 47q-78 0 -135 -48.5t-72 -127.5h419z" />
<glyph unicode="&#x11c;" horiz-adv-x="872" d="M613 789h-89l-86 74l-88 -74h-91l145 126h66zM831 341q-9 -144 -118 -249t-267 -105q-170 0 -286 111t-116 273q0 160 113.5 270.5t278.5 110.5q121 0 217 -57.5t133 -152.5h-83q-38 67 -106.5 104.5t-154.5 37.5q-137 0 -230 -91t-93 -224q0 -132 94 -223t230 -91 q107 0 192.5 64.5t106.5 154.5h-413v67h502z" />
<glyph unicode="&#x11d;" horiz-adv-x="673" d="M499 607h-89l-86 74l-88 -74h-91l145 126h66zM610 98q0 -80 -11.5 -128.5t-39.5 -86.5q-74 -98 -222 -98q-103 0 -174 51t-101 147h72q41 -73 86 -101.5t115 -28.5q99 0 150 56.5t51 164.5v37q-63 -124 -209 -124q-120 0 -202.5 82t-82.5 202q0 124 80 206.5t200 82.5 q133 0 214 -110v97h74v-449zM536 280q0 89 -61 150.5t-149 61.5q-91 0 -150 -60.5t-59 -154.5q0 -95 60 -158.5t150 -63.5q89 0 149 64.5t60 160.5z" />
<glyph unicode="&#x11e;" horiz-adv-x="872" d="M588 912q-12 -64 -50 -92t-102 -28q-130 0 -152 120h64q10 -62 88 -62t88 62h64zM831 341q-9 -144 -118 -249t-267 -105q-170 0 -286 111t-116 273q0 160 113.5 270.5t278.5 110.5q121 0 217 -57.5t133 -152.5h-83q-38 67 -106.5 104.5t-154.5 37.5q-137 0 -230 -91 t-93 -224q0 -132 94 -223t230 -91q107 0 192.5 64.5t106.5 154.5h-413v67h502z" />
<glyph unicode="&#x11f;" horiz-adv-x="673" d="M473 730q-12 -64 -50 -92t-102 -28q-130 0 -152 120h64q10 -62 88 -62t88 62h64zM610 98q0 -80 -11.5 -128.5t-39.5 -86.5q-74 -98 -222 -98q-103 0 -174 51t-101 147h72q41 -73 86 -101.5t115 -28.5q99 0 150 56.5t51 164.5v37q-63 -124 -209 -124q-120 0 -202.5 82 t-82.5 202q0 124 80 206.5t200 82.5q133 0 214 -110v97h74v-449zM536 280q0 89 -61 150.5t-149 61.5q-91 0 -150 -60.5t-59 -154.5q0 -95 60 -158.5t150 -63.5q89 0 149 64.5t60 160.5z" />
<glyph unicode="&#x120;" horiz-adv-x="872" d="M831 341q-9 -144 -118 -249t-267 -105q-170 0 -286 111t-116 273q0 160 113.5 270.5t278.5 110.5q121 0 217 -57.5t133 -152.5h-83q-38 67 -106.5 104.5t-154.5 37.5q-137 0 -230 -91t-93 -224q0 -132 94 -223t230 -91q107 0 192.5 64.5t106.5 154.5h-413v67h502z M473 789h-74v126h74v-126z" />
<glyph unicode="&#x121;" horiz-adv-x="673" d="M610 98q0 -80 -11.5 -128.5t-39.5 -86.5q-74 -98 -222 -98q-103 0 -174 51t-101 147h72q41 -73 86 -101.5t115 -28.5q99 0 150 56.5t51 164.5v37q-63 -124 -209 -124q-120 0 -202.5 82t-82.5 202q0 124 80 206.5t200 82.5q133 0 214 -110v97h74v-449zM536 280 q0 89 -61 150.5t-149 61.5q-91 0 -150 -60.5t-59 -154.5q0 -95 60 -158.5t150 -63.5q89 0 149 64.5t60 160.5zM359 607h-74v126h74v-126z" />
<glyph unicode="&#x122;" horiz-adv-x="872" d="M484 -53l-48 -172h-74l48 172h74zM831 341q-9 -144 -118 -249t-267 -105q-170 0 -286 111t-116 273q0 160 113.5 270.5t278.5 110.5q121 0 217 -57.5t133 -152.5h-83q-38 67 -106.5 104.5t-154.5 37.5q-137 0 -230 -91t-93 -224q0 -132 94 -223t230 -91q107 0 192.5 64.5 t106.5 154.5h-413v67h502z" />
<glyph unicode="&#x123;" horiz-adv-x="673" d="M383 788l-48 -172h-74l48 172h74zM610 98q0 -80 -11.5 -128.5t-39.5 -86.5q-74 -98 -222 -98q-103 0 -174 51t-101 147h72q41 -73 86 -101.5t115 -28.5q99 0 150 56.5t51 164.5v37q-63 -124 -209 -124q-120 0 -202.5 82t-82.5 202q0 124 80 206.5t200 82.5 q133 0 214 -110v97h74v-449zM536 280q0 89 -61 150.5t-149 61.5q-91 0 -150 -60.5t-59 -154.5q0 -95 60 -158.5t150 -63.5q89 0 149 64.5t60 160.5z" />
<glyph unicode="&#x124;" horiz-adv-x="683" d="M519 789h-89l-86 74l-88 -74h-91l145 126h66zM607 0h-74v347h-383v-347h-74v739h74v-325h383v325h74v-739z" />
<glyph unicode="&#x125;" horiz-adv-x="610" d="M482 789h-89l-86 74l-88 -74h-91l145 126h66zM547 0h-74v294q0 99 -45.5 148.5t-123.5 49.5q-75 0 -121 -48t-46 -144v-300h-74v739h74v-263q58 84 174 84q110 0 173 -66.5t63 -199.5v-294z" />
<glyph unicode="&#x126;" horiz-adv-x="683" d="M674 565h-67v-565h-74v347h-383v-347h-74v565h-64v64h64v110h74v-110h383v110h74v-110h67v-64zM533 414v151h-383v-151h383z" />
<glyph unicode="&#x127;" horiz-adv-x="610" d="M546 0h-74v294q0 92 -37 138q-47 60 -132 60q-90 0 -137 -68q-30 -41 -30 -124v-300h-74v615h-53v64h54v60h74v-60h99v-64h-99l-1 -139q58 84 174 84q124 0 189 -85q47 -63 47 -181v-294z" />
<glyph unicode="&#x128;" horiz-adv-x="226" d="M259 854q-12 -20 -39 -34.5t-52 -14.5q-21 0 -66 22q-23 10 -40 10q-14 0 -23.5 -4.5t-29.5 -21.5l-7 -6l-33 46q38 49 93 49q9 0 50.5 -15.5t56.5 -15.5q27 0 57 31zM150 0h-74v739h74v-739z" />
<glyph unicode="&#x129;" horiz-adv-x="200" d="M245 672q-12 -20 -39 -34.5t-52 -14.5q-21 0 -66 22q-23 10 -40 10q-14 0 -23.5 -4.5t-29.5 -21.5l-7 -6l-33 46q38 49 93 49q9 0 50.5 -15.5t56.5 -15.5q27 0 57 31zM137 0h-74v547h74v-547z" />
<glyph unicode="&#x12a;" horiz-adv-x="226" d="M282 820h-337v64h337v-64zM150 0h-74v739h74v-739z" />
<glyph unicode="&#x12b;" horiz-adv-x="200" d="M137 0h-74v547h74v-547zM268 638h-337v64h337v-64z" />
<glyph unicode="&#x12c;" horiz-adv-x="226" d="M265 912q-12 -64 -50 -92t-102 -28q-130 0 -152 120h64q10 -62 88 -62t88 62h64zM150 0h-74v739h74v-739z" />
<glyph unicode="&#x12d;" horiz-adv-x="200" d="M251 730q-12 -64 -50 -92t-102 -28q-130 0 -152 120h64q10 -62 88 -62t88 62h64zM137 0h-74v547h74v-547z" />
<glyph unicode="&#x12e;" horiz-adv-x="226" d="M163 -246q-21 -4 -50 -4q-51 0 -86 37t-35 88q0 66 84 125v739h74v-739q-84 -48 -84 -125q0 -21 13.5 -36t33.5 -15q22 0 50 5v-75z" />
<glyph unicode="&#x12f;" horiz-adv-x="200" d="M137 607h-74v126h74v-126zM150 -246q-21 -4 -50 -4q-51 0 -86 37t-35 88q0 66 84 125v547h74v-547q-84 -48 -84 -125q0 -21 13.5 -36t33.5 -15q22 0 50 5v-75z" />
<glyph unicode="&#x130;" horiz-adv-x="226" d="M150 0h-74v739h74v-739zM150 789h-74v126h74v-126z" />
<glyph unicode="&#x131;" horiz-adv-x="200" d="M137 0h-74v547h74v-547z" />
<glyph unicode="&#x134;" horiz-adv-x="482" d="M546 789h-89l-86 74l-88 -74h-91l145 126h66zM406 231q0 -122 -50.5 -183.5t-146.5 -61.5q-88 0 -140.5 50t-57.5 139h73q4 -56 37.5 -88.5t88.5 -32.5q122 0 122 177v508h74v-508z" />
<glyph unicode="&#x135;" horiz-adv-x="203" d="M140 38q0 -117 -45.5 -171.5t-139.5 -58.5v71q62 4 86.5 39t24.5 120v509h74v-509zM280 607h-89l-86 74l-88 -74h-91l145 126h66z" />
<glyph unicode="&#x136;" horiz-adv-x="591" d="M369 -53l-48 -172h-74l48 172h74zM585 0h-93l-246 320l-96 -118v-202h-74v739h74v-425l342 425h93l-292 -360z" />
<glyph unicode="&#x137;" horiz-adv-x="502" d="M319 -53l-48 -172h-74l48 172h74zM497 0h-92l-182 219l-86 -106v-113h-74v739h74v-524l255 332h91l-213 -275z" />
<glyph unicode="&#x139;" horiz-adv-x="462" d="M269 890l-193 -114l-34 56l193 116zM456 0h-380v739h74v-672h306v-67z" />
<glyph unicode="&#x13a;" horiz-adv-x="200" d="M256 890l-193 -114l-34 56l193 116zM137 0h-74v739h74v-739z" />
<glyph unicode="&#x13b;" horiz-adv-x="462" d="M314 -53l-48 -172h-74l48 172h74zM456 0h-380v739h74v-672h306v-67z" />
<glyph unicode="&#x13c;" horiz-adv-x="200" d="M148 -53l-48 -172h-74l48 172h74zM137 0h-74v739h74v-739z" />
<glyph unicode="&#x13d;" horiz-adv-x="462" d="M335 739l-48 -172h-74l48 172h74zM456 0h-380v739h74v-672h306v-67z" />
<glyph unicode="&#x13e;" horiz-adv-x="200" d="M322 739l-48 -172h-74l48 172h74zM137 0h-74v739h74v-739z" />
<glyph unicode="&#x13f;" horiz-adv-x="462" d="M456 0h-380v739h74v-672h306v-67zM381 320h-74v126h74v-126z" />
<glyph unicode="&#x140;" horiz-adv-x="274" d="M137 0h-74v739h74v-739zM274 320h-74v126h74v-126z" />
<glyph unicode="&#x141;" horiz-adv-x="517" d="M502 0h-380v303l-96 -79v83l96 80v352h74v-303l160 133v-84l-160 -132v-286h306v-67z" />
<glyph unicode="&#x142;" horiz-adv-x="300" d="M270 433l-82 -54v-379h-74v346l-78 -53v72l78 53v321h74v-288l82 55v-73z" />
<glyph unicode="&#x143;" d="M521 890l-193 -114l-34 56l193 116zM664 0h-74l-440 650v-650h-74v739h100l414 -613v613h74v-739z" />
<glyph unicode="&#x144;" horiz-adv-x="610" d="M456 708l-193 -114l-34 56l193 116zM547 0h-74v287q0 205 -169 205q-78 0 -122.5 -47t-44.5 -144v-301h-74v547h74v-71q69 84 176 84q108 0 171 -67.5t63 -205.5v-287z" />
<glyph unicode="&#x145;" d="M418 -53l-48 -172h-74l48 172h74zM664 0h-74l-440 650v-650h-74v739h100l414 -613v613h74v-739z" />
<glyph unicode="&#x146;" horiz-adv-x="610" d="M353 -53l-48 -172h-74l48 172h74zM547 0h-74v287q0 205 -169 205q-78 0 -122.5 -47t-44.5 -144v-301h-74v547h74v-71q69 84 176 84q108 0 171 -67.5t63 -205.5v-287z" />
<glyph unicode="&#x147;" d="M547 915l-145 -126h-66l-143 126h89l86 -74l88 74h91zM664 0h-74l-440 650v-650h-74v739h100l414 -613v613h74v-739z" />
<glyph unicode="&#x148;" horiz-adv-x="610" d="M482 733l-145 -126h-66l-143 126h89l86 -74l88 74h91zM547 0h-74v287q0 205 -169 205q-78 0 -122.5 -47t-44.5 -144v-301h-74v547h74v-71q69 84 176 84q108 0 171 -67.5t63 -205.5v-287z" />
<glyph unicode="&#x14a;" d="M664 -6q0 -122 -50.5 -183.5t-146.5 -61.5q-88 0 -140.5 50t-57.5 139h73q4 -56 37.5 -88.5t88.5 -32.5q54 0 88 47t34 111v25l-440 650v-650h-74v739h100l414 -613v613h74v-745z" />
<glyph unicode="&#x14b;" horiz-adv-x="610" d="M547 38q0 -117 -45.5 -171.5t-139.5 -58.5v71q62 4 86.5 39t24.5 120v249q0 205 -169 205q-78 0 -122.5 -47t-44.5 -144v-301h-74v547h74v-71q69 84 176 84q108 0 171 -67.5t63 -205.5v-249z" />
<glyph unicode="&#x14c;" horiz-adv-x="869" d="M604 820h-337v64h337v-64zM825 369q0 -157 -115 -269.5t-275 -112.5q-163 0 -277 113t-114 274q0 154 116 266t275 112q161 0 275.5 -112.5t114.5 -270.5zM750 368q0 130 -93 223t-222 93q-128 0 -222 -92.5t-94 -219.5q0 -131 92.5 -224t223.5 -93q129 0 222 92.5 t93 220.5z" />
<glyph unicode="&#x14d;" horiz-adv-x="655" d="M497 638h-337v64h337v-64zM613 272q0 -123 -79 -204t-199 -81q-127 0 -210 82t-83 208q0 120 82.5 201.5t204.5 81.5q123 0 203.5 -81.5t80.5 -206.5zM538 271q0 95 -59.5 158t-149.5 63q-91 0 -151.5 -62t-60.5 -155q0 -96 61 -158t155 -62q89 0 147 61t58 155z" />
<glyph unicode="&#x14e;" horiz-adv-x="869" d="M587 912q-12 -64 -50 -92t-102 -28q-130 0 -152 120h64q10 -62 88 -62t88 62h64zM825 369q0 -157 -115 -269.5t-275 -112.5q-163 0 -277 113t-114 274q0 154 116 266t275 112q161 0 275.5 -112.5t114.5 -270.5zM750 368q0 130 -93 223t-222 93q-128 0 -222 -92.5 t-94 -219.5q0 -131 92.5 -224t223.5 -93q129 0 222 92.5t93 220.5z" />
<glyph unicode="&#x14f;" horiz-adv-x="655" d="M480 730q-12 -64 -50 -92t-102 -28q-130 0 -152 120h64q10 -62 88 -62t88 62h64zM613 272q0 -123 -79 -204t-199 -81q-127 0 -210 82t-83 208q0 120 82.5 201.5t204.5 81.5q123 0 203.5 -81.5t80.5 -206.5zM538 271q0 95 -59.5 158t-149.5 63q-91 0 -151.5 -62 t-60.5 -155q0 -96 61 -158t155 -62q89 0 147 61t58 155z" />
<glyph unicode="&#x150;" horiz-adv-x="869" d="M512 898l-174 -121l-35 47l171 123zM708 898l-174 -121l-35 47l171 123zM825 369q0 -157 -115 -269.5t-275 -112.5q-163 0 -277 113t-114 274q0 154 116 266t275 112q161 0 275.5 -112.5t114.5 -270.5zM750 368q0 130 -93 223t-222 93q-128 0 -222 -92.5t-94 -219.5 q0 -131 92.5 -224t223.5 -93q129 0 222 92.5t93 220.5z" />
<glyph unicode="&#x151;" horiz-adv-x="655" d="M406 706l-174 -121l-35 47l171 123zM602 706l-174 -121l-35 47l171 123zM613 272q0 -123 -79 -204t-199 -81q-127 0 -210 82t-83 208q0 120 82.5 201.5t204.5 81.5q123 0 203.5 -81.5t80.5 -206.5zM538 271q0 95 -59.5 158t-149.5 63q-91 0 -151.5 -62t-60.5 -155 q0 -96 61 -158t155 -62q89 0 147 61t58 155z" />
<glyph unicode="&#x152;" horiz-adv-x="1194" d="M1138 0h-393v151q-95 -164 -300 -164q-173 0 -287 109t-114 275q0 163 110.5 272t277.5 109q104 0 185.5 -41.5t127.5 -118.5v147h393v-67h-319v-265h308v-67h-308v-273h319v-67zM746 372q0 136 -88.5 224t-225.5 88q-134 0 -223.5 -89t-89.5 -220q0 -138 91 -229 t229 -91q133 0 220 90t87 227z" />
<glyph unicode="&#x153;" horiz-adv-x="1137" d="M1098 286q0 -4 -2 -38h-488q5 -83 69 -138t147 -55q128 0 188 124h74q-21 -78 -92.5 -135t-165.5 -57q-86 0 -154 40t-103 111q-45 -79 -102.5 -115t-137.5 -36q-122 0 -205.5 83t-83.5 204t81.5 203.5t200.5 82.5q159 0 247 -146q85 146 246 146q119 0 200 -79t81 -195z M1027 315q-13 79 -72 128t-140 49q-76 0 -131.5 -47t-75.5 -130h419zM536 273q0 94 -60 156.5t-150 62.5t-149.5 -62.5t-59.5 -156.5q0 -92 61.5 -155t152.5 -63q87 0 146 63t59 155z" />
<glyph unicode="&#x154;" horiz-adv-x="607" d="M455 890l-193 -114l-34 56l193 116zM577 501q0 -98 -56 -156t-162 -69l207 -276h-92l-249 335q158 0 217.5 35.5t59.5 133.5q0 91 -58.5 129.5t-189.5 38.5h-104v-672h-74v739h183q169 0 243.5 -59.5t74.5 -178.5z" />
<glyph unicode="&#x155;" horiz-adv-x="301" d="M288 708l-193 -114l-34 56l193 116zM292 487q-155 -15 -155 -168v-319h-74v547h74v-78q22 45 59 66.5t96 24.5v-73z" />
<glyph unicode="&#x156;" horiz-adv-x="607" d="M351 -53l-48 -172h-74l48 172h74zM577 501q0 -98 -56 -156t-162 -69l207 -276h-92l-249 335q158 0 217.5 35.5t59.5 133.5q0 91 -58.5 129.5t-189.5 38.5h-104v-672h-74v739h183q169 0 243.5 -59.5t74.5 -178.5z" />
<glyph unicode="&#x157;" horiz-adv-x="301" d="M148 -53l-48 -172h-74l48 172h74zM292 487q-155 -15 -155 -168v-319h-74v547h74v-78q22 45 59 66.5t96 24.5v-73z" />
<glyph unicode="&#x158;" horiz-adv-x="607" d="M481 915l-145 -126h-66l-143 126h89l86 -74l88 74h91zM577 501q0 -98 -56 -156t-162 -69l207 -276h-92l-249 335q158 0 217.5 35.5t59.5 133.5q0 91 -58.5 129.5t-189.5 38.5h-104v-672h-74v739h183q169 0 243.5 -59.5t74.5 -178.5z" />
<glyph unicode="&#x159;" horiz-adv-x="301" d="M314 733l-145 -126h-66l-143 126h89l86 -74l88 74h91zM292 487q-155 -15 -155 -168v-319h-74v547h74v-78q22 45 59 66.5t96 24.5v-73z" />
<glyph unicode="&#x15a;" horiz-adv-x="498" d="M402 890l-193 -114l-34 56l193 116zM476 206q0 -94 -63.5 -156.5t-159.5 -62.5q-100 0 -163 60t-68 160h79q8 -73 49.5 -112.5t104.5 -39.5t104.5 41.5t41.5 105.5q0 61 -35 93.5t-130 61.5q-64 19 -90 31.5t-48 33.5q-52 49 -52 131q0 86 58 142.5t147 56.5 q91 0 149 -55.5t58 -144.5h-77q0 59 -37.5 95.5t-94.5 36.5q-55 0 -91.5 -36.5t-36.5 -92.5t35 -86q23 -20 109 -46q96 -29 137 -59q74 -55 74 -158z" />
<glyph unicode="&#x15b;" horiz-adv-x="388" d="M344 708l-193 -114l-34 56l193 116zM361 157q0 -75 -46.5 -122.5t-120.5 -47.5q-79 0 -127.5 47.5t-48.5 126.5h73q0 -49 28.5 -77.5t74.5 -28.5q40 0 66 27t26 68q0 40 -21.5 60t-84.5 45q-58 23 -71.5 30t-29.5 23q-41 38 -41 98q0 67 44 110.5t111 43.5t110.5 -41.5 t43.5 -106.5h-75q0 38 -21.5 59t-58.5 21q-33 0 -56 -23t-23 -56q0 -47 50 -72q20 -10 103 -44q95 -40 95 -140z" />
<glyph unicode="&#x15c;" horiz-adv-x="498" d="M428 789h-89l-86 74l-88 -74h-91l145 126h66zM476 206q0 -94 -63.5 -156.5t-159.5 -62.5q-100 0 -163 60t-68 160h79q8 -73 49.5 -112.5t104.5 -39.5t104.5 41.5t41.5 105.5q0 61 -35 93.5t-130 61.5q-64 19 -90 31.5t-48 33.5q-52 49 -52 131q0 86 58 142.5t147 56.5 q91 0 149 -55.5t58 -144.5h-77q0 59 -37.5 95.5t-94.5 36.5q-55 0 -91.5 -36.5t-36.5 -92.5t35 -86q23 -20 109 -46q96 -29 137 -59q74 -55 74 -158z" />
<glyph unicode="&#x15d;" horiz-adv-x="388" d="M370 607h-89l-86 74l-88 -74h-91l145 126h66zM361 157q0 -75 -46.5 -122.5t-120.5 -47.5q-79 0 -127.5 47.5t-48.5 126.5h73q0 -49 28.5 -77.5t74.5 -28.5q40 0 66 27t26 68q0 40 -21.5 60t-84.5 45q-58 23 -71.5 30t-29.5 23q-41 38 -41 98q0 67 44 110.5t111 43.5 t110.5 -41.5t43.5 -106.5h-75q0 38 -21.5 59t-58.5 21q-33 0 -56 -23t-23 -56q0 -47 50 -72q20 -10 103 -44q95 -40 95 -140z" />
<glyph unicode="&#x15e;" horiz-adv-x="498" d="M476 206q0 -93 -61.5 -155t-156.5 -64l-11 -35l13 2q12 3 20 3q41 0 69.5 -26.5t28.5 -67.5q0 -48 -30.5 -81t-80.5 -33q-37 0 -62 23t-34 62l53 6q10 -33 44 -33q21 0 34.5 14.5t13.5 36.5q0 24 -14 38.5t-37 14.5q-27 0 -46 -19l-32 19l32 78q-86 11 -139.5 69 t-57.5 149h79q8 -73 49.5 -112.5t104.5 -39.5t104.5 41.5t41.5 105.5q0 61 -35 93.5t-130 61.5q-64 19 -90 31.5t-48 33.5q-52 49 -52 131q0 86 58 142.5t147 56.5q91 0 149 -55.5t58 -144.5h-77q0 59 -37.5 95.5t-94.5 36.5q-55 0 -91.5 -36.5t-36.5 -92.5t35 -86 q23 -20 109 -46q96 -29 137 -59q74 -55 74 -158z" />
<glyph unicode="&#x15f;" horiz-adv-x="388" d="M361 157q0 -73 -44 -120t-114 -50l-11 -35l12 2q13 3 21 3q41 0 69.5 -26.5t28.5 -67.5q0 -48 -30.5 -81t-80.5 -33q-37 0 -62 23t-34 62l53 6q10 -33 44 -33q21 0 34.5 14.5t13.5 36.5q0 24 -14 38.5t-37 14.5q-27 0 -46 -19l-32 19l32 78q-67 9 -106.5 55t-39.5 117h73 q0 -49 28.5 -77.5t74.5 -28.5q40 0 66 27t26 68q0 40 -21.5 60t-84.5 45q-58 23 -71.5 30t-29.5 23q-41 38 -41 98q0 67 44 110.5t111 43.5t110.5 -41.5t43.5 -106.5h-75q0 38 -21.5 59t-58.5 21q-33 0 -56 -23t-23 -56q0 -47 50 -72q20 -10 103 -44q95 -40 95 -140z" />
<glyph unicode="&#x160;" horiz-adv-x="498" d="M428 915l-145 -126h-66l-143 126h89l86 -74l88 74h91zM476 206q0 -94 -63.5 -156.5t-159.5 -62.5q-100 0 -163 60t-68 160h79q8 -73 49.5 -112.5t104.5 -39.5t104.5 41.5t41.5 105.5q0 61 -35 93.5t-130 61.5q-64 19 -90 31.5t-48 33.5q-52 49 -52 131q0 86 58 142.5 t147 56.5q91 0 149 -55.5t58 -144.5h-77q0 59 -37.5 95.5t-94.5 36.5q-55 0 -91.5 -36.5t-36.5 -92.5t35 -86q23 -20 109 -46q96 -29 137 -59q74 -55 74 -158z" />
<glyph unicode="&#x161;" horiz-adv-x="388" d="M370 733l-145 -126h-66l-143 126h89l86 -74l88 74h91zM361 157q0 -75 -46.5 -122.5t-120.5 -47.5q-79 0 -127.5 47.5t-48.5 126.5h73q0 -49 28.5 -77.5t74.5 -28.5q40 0 66 27t26 68q0 40 -21.5 60t-84.5 45q-58 23 -71.5 30t-29.5 23q-41 38 -41 98q0 67 44 110.5 t111 43.5t110.5 -41.5t43.5 -106.5h-75q0 38 -21.5 59t-58.5 21q-33 0 -56 -23t-23 -56q0 -47 50 -72q20 -10 103 -44q95 -40 95 -140z" />
<glyph unicode="&#x162;" horiz-adv-x="426" d="M419 672h-169v-672h-18l-15 -48l13 2q12 3 20 3q41 0 69.5 -26.5t28.5 -67.5q0 -48 -30.5 -81t-80.5 -33q-37 0 -62 23t-34 62l53 6q10 -33 44 -33q21 0 34.5 14.5t13.5 36.5q0 24 -14 38.5t-37 14.5q-27 0 -46 -19l-32 19l36 89h-17v672h-169v67h412v-67z" />
<glyph unicode="&#x163;" horiz-adv-x="339" d="M327 480h-123v-480h-12l-15 -48l13 2q12 3 20 3q41 0 69.5 -26.5t28.5 -67.5q0 -48 -30.5 -81t-80.5 -33q-37 0 -62 23t-34 62l53 6q10 -33 44 -33q21 0 34.5 14.5t13.5 36.5q0 24 -14 38.5t-37 14.5q-27 0 -46 -19l-32 19l36 89h-23v480h-118v67h118v192h74v-192h123 v-67z" />
<glyph unicode="&#x164;" horiz-adv-x="426" d="M390 915l-145 -126h-66l-143 126h89l86 -74l88 74h91zM419 672h-169v-672h-74v672h-169v67h412v-67z" />
<glyph unicode="&#x165;" horiz-adv-x="339" d="M358 751l-48 -172h-74l48 172h74zM327 480h-123v-480h-74v480h-118v67h118v192h74v-192h123v-67z" />
<glyph unicode="&#x168;" horiz-adv-x="655" d="M473 854q-12 -20 -39 -34.5t-52 -14.5q-21 0 -66 22q-23 10 -40 10q-14 0 -23.5 -4.5t-29.5 -21.5l-7 -6l-33 46q38 49 93 49q9 0 50.5 -15.5t56.5 -15.5q27 0 57 31zM579 278q0 -146 -67.5 -218.5t-184.5 -72.5q-116 0 -183.5 72.5t-67.5 218.5v461h74v-461 q0 -223 178 -223q177 0 177 223v461h74v-461z" />
<glyph unicode="&#x169;" horiz-adv-x="608" d="M449 672q-12 -20 -39 -34.5t-52 -14.5q-21 0 -66 22q-23 10 -40 10q-14 0 -23.5 -4.5t-29.5 -21.5l-7 -6l-33 46q38 49 93 49q9 0 50.5 -15.5t56.5 -15.5q27 0 57 31zM545 0h-74v85q-53 -98 -176 -98q-232 0 -232 265v295h74v-295q0 -197 164 -197q79 0 124.5 52 t45.5 159v281h74v-547z" />
<glyph unicode="&#x16a;" horiz-adv-x="655" d="M496 820h-337v64h337v-64zM579 278q0 -146 -67.5 -218.5t-184.5 -72.5q-116 0 -183.5 72.5t-67.5 218.5v461h74v-461q0 -223 178 -223q177 0 177 223v461h74v-461z" />
<glyph unicode="&#x16b;" horiz-adv-x="608" d="M472 638h-337v64h337v-64zM545 0h-74v85q-53 -98 -176 -98q-232 0 -232 265v295h74v-295q0 -197 164 -197q79 0 124.5 52t45.5 159v281h74v-547z" />
<glyph unicode="&#x16c;" horiz-adv-x="655" d="M480 912q-12 -64 -50 -92t-102 -28q-130 0 -152 120h64q10 -62 88 -62t88 62h64zM579 278q0 -146 -67.5 -218.5t-184.5 -72.5q-116 0 -183.5 72.5t-67.5 218.5v461h74v-461q0 -223 178 -223q177 0 177 223v461h74v-461z" />
<glyph unicode="&#x16d;" horiz-adv-x="608" d="M455 730q-12 -64 -50 -92t-102 -28q-130 0 -152 120h64q10 -62 88 -62t88 62h64zM545 0h-74v85q-53 -98 -176 -98q-232 0 -232 265v295h74v-295q0 -197 164 -197q79 0 124.5 52t45.5 159v281h74v-547z" />
<glyph unicode="&#x16e;" horiz-adv-x="655" d="M429 865q0 -42 -29.5 -71.5t-71.5 -29.5t-71.5 29.5t-29.5 70.5q0 43 29.5 72.5t72.5 29.5q41 0 70.5 -30t29.5 -71zM384 865q0 23 -16.5 39.5t-39.5 16.5t-39.5 -16.5t-16.5 -40.5q0 -23 16.5 -39t39.5 -16t39.5 16.5t16.5 39.5zM579 278q0 -146 -67.5 -218.5 t-184.5 -72.5q-116 0 -183.5 72.5t-67.5 218.5v461h74v-461q0 -223 178 -223q177 0 177 223v461h74v-461z" />
<glyph unicode="&#x16f;" horiz-adv-x="608" d="M405 680q0 -42 -29.5 -71.5t-71.5 -29.5t-71.5 29.5t-29.5 70.5q0 43 29.5 72.5t72.5 29.5q41 0 70.5 -30t29.5 -71zM360 680q0 23 -16.5 39.5t-39.5 16.5t-39.5 -16.5t-16.5 -40.5q0 -23 16.5 -39t39.5 -16t39.5 16.5t16.5 39.5zM545 0h-74v85q-53 -98 -176 -98 q-232 0 -232 265v295h74v-295q0 -197 164 -197q79 0 124.5 52t45.5 159v281h74v-547z" />
<glyph unicode="&#x170;" horiz-adv-x="655" d="M405 898l-174 -121l-35 47l171 123zM601 898l-174 -121l-35 47l171 123zM579 278q0 -146 -67.5 -218.5t-184.5 -72.5q-116 0 -183.5 72.5t-67.5 218.5v461h74v-461q0 -223 178 -223q177 0 177 223v461h74v-461z" />
<glyph unicode="&#x171;" horiz-adv-x="608" d="M381 706l-174 -121l-35 47l171 123zM577 706l-174 -121l-35 47l171 123zM545 0h-74v85q-53 -98 -176 -98q-232 0 -232 265v295h74v-295q0 -197 164 -197q79 0 124.5 52t45.5 159v281h74v-547z" />
<glyph unicode="&#x172;" horiz-adv-x="655" d="M579 278q0 -203 -131 -266q-45 -21 -73.5 -57t-28.5 -80q0 -21 13.5 -36t33.5 -15q22 0 50 5v-75q-23 -4 -50 -4q-51 0 -86 37t-35 88q0 59 66 112h-11q-116 0 -183.5 72.5t-67.5 218.5v461h74v-461q0 -223 178 -223q177 0 177 223v461h74v-461z" />
<glyph unicode="&#x173;" horiz-adv-x="608" d="M558 -246q-21 -4 -50 -4q-51 0 -86 37t-35 88q0 66 84 125v85q-53 -98 -176 -98q-232 0 -232 265v295h74v-295q0 -197 164 -197q79 0 124.5 52t45.5 159v281h74v-547q-84 -48 -84 -125q0 -21 13.5 -36t33.5 -15q22 0 50 5v-75z" />
<glyph unicode="&#x174;" horiz-adv-x="960" d="M657 789h-89l-86 74l-88 -74h-91l145 126h66zM950 739l-212 -739h-95l-164 606l-162 -606h-96l-211 739h76l182 -643l177 643h70l177 -643l182 643h76z" />
<glyph unicode="&#x175;" horiz-adv-x="831" d="M592 607h-89l-86 74l-88 -74h-91l145 126h66zM824 547l-212 -547h-79l-119 363l-118 -363h-80l-209 547h74l174 -458l129 391h61l129 -391l178 458h72z" />
<glyph unicode="&#x176;" horiz-adv-x="592" d="M472 789h-89l-86 74l-88 -74h-91l145 126h66zM590 739l-258 -492v-247h-74v247l-256 492h82l210 -414l215 414h81z" />
<glyph unicode="&#x177;" horiz-adv-x="536" d="M446 607h-89l-86 74l-88 -74h-91l145 126h66zM527 547l-316 -739h-79l89 210l-212 529h81l173 -436l185 436h79z" />
<glyph unicode="&#x178;" horiz-adv-x="592" d="M406 789h-74v126h74v-126zM259 789h-74v126h74v-126zM590 739l-258 -492v-247h-74v247l-256 492h82l210 -414l215 414h81z" />
<glyph unicode="&#x179;" horiz-adv-x="480" d="M397 890l-193 -114l-34 56l193 116zM474 0h-457v67l363 605h-352v67h435v-67l-362 -605h373v-67z" />
<glyph unicode="&#x17a;" horiz-adv-x="425" d="M359 708l-193 -114l-34 56l193 116zM415 0h-405v67l302 413h-292v67h376v-63l-299 -417h318v-67z" />
<glyph unicode="&#x17b;" horiz-adv-x="480" d="M474 0h-457v67l363 605h-352v67h435v-67l-362 -605h373v-67zM283 789h-74v126h74v-126z" />
<glyph unicode="&#x17c;" horiz-adv-x="425" d="M415 0h-405v67l302 413h-292v67h376v-63l-299 -417h318v-67zM245 607h-74v126h74v-126z" />
<glyph unicode="&#x17d;" horiz-adv-x="480" d="M423 915l-145 -126h-66l-143 126h89l86 -74l88 74h91zM474 0h-457v67l363 605h-352v67h435v-67l-362 -605h373v-67z" />
<glyph unicode="&#x17e;" horiz-adv-x="425" d="M385 733l-145 -126h-66l-143 126h89l86 -74l88 74h91zM415 0h-405v67l302 413h-292v67h376v-63l-299 -417h318v-67z" />
<glyph unicode="&#x17f;" horiz-adv-x="314" d="M311 672q-76 -1 -106.5 -29t-29.5 -96v-547h-74v480h-85v67h85v5q0 187 210 187v-67z" />
<glyph unicode="&#x18e;" horiz-adv-x="536" d="M480 0h-404v67h330v273h-319v67h319v265h-330v67h404v-739z" />
<glyph unicode="&#x192;" horiz-adv-x="554" d="M546 815l-11 -66q-11 2 -22 2q-88 0 -117 -144l-4 -23h112l-12 -67h-112l-80 -431q-16 -86 -31 -123.5t-44 -63.5q-58 -52 -149 -52q-34 0 -58 7l12 64q31 -4 48 -4q69 0 101 36.5t52 141.5l80 425h-113l13 67h111l4 23q20 105 70.5 158t120.5 53q8 0 29 -3z" />
<glyph unicode="&#x1a0;" horiz-adv-x="869" d="M825 369q0 -157 -115 -269.5t-275 -112.5q-163 0 -277 113t-114 274q0 154 116 266t275 112q162 0 278 -116q45 41 45 103h64q0 -98 -66 -154q69 -99 69 -216zM750 368q0 130 -93 223t-222 93q-128 0 -222 -92.5t-94 -219.5q0 -131 92.5 -224t223.5 -93q129 0 222 92.5 t93 220.5z" />
<glyph unicode="&#x1a1;" horiz-adv-x="676" d="M654 547q0 -96 -65 -154q24 -58 24 -121q0 -123 -79 -204t-199 -81q-127 0 -210 82t-83 208q0 120 82.5 201.5t204.5 81.5q70 0 128.5 -28.5t96.5 -78.5q36 38 36 94h64zM538 271q0 95 -59.5 158t-149.5 63q-91 0 -151.5 -62t-60.5 -155q0 -96 61 -158t155 -62 q89 0 147 61t58 155z" />
<glyph unicode="&#x1af;" horiz-adv-x="706" d="M688 739q0 -127 -109 -184v-277q0 -131 -52 -200q-33 -43 -86 -67t-114 -24t-113.5 24t-85.5 67q-52 69 -52 200v461h74v-461q0 -101 34 -153q21 -32 59.5 -51t84.5 -19q45 0 83.5 19t59.5 51q34 52 34 153v461h74v-104q45 41 45 104h64z" />
<glyph unicode="&#x1b0;" horiz-adv-x="676" d="M657 547q0 -129 -112 -185v-362h-74v85q-53 -98 -176 -98q-126 0 -189 87q-43 59 -43 178v295h74v-295q0 -85 26 -128q19 -33 55.5 -51t82.5 -18q88 0 137 68q33 49 33 143v281h74v-107q48 41 48 107h64z" />
<glyph unicode="&#x1dd;" horiz-adv-x="650" d="M611 271q0 -119 -82.5 -201.5t-201.5 -82.5q-124 0 -204.5 84.5t-80.5 226.5h495q-4 81 -66.5 137.5t-146.5 56.5q-62 0 -115 -34.5t-76 -90.5h-77q27 81 101.5 137t164.5 56q122 0 205.5 -84t83.5 -205zM535 231h-419q19 -82 75.5 -129t136.5 -47q78 0 135 48.5 t72 127.5z" />
<glyph unicode="&#x1e6;" horiz-adv-x="872" d="M613 915l-145 -126h-66l-143 126h89l86 -74l88 74h91zM831 341q-9 -144 -118 -249t-267 -105q-170 0 -286 111t-116 273q0 160 113.5 270.5t278.5 110.5q121 0 217 -57.5t133 -152.5h-83q-38 67 -106.5 104.5t-154.5 37.5q-137 0 -230 -91t-93 -224q0 -132 94 -223 t230 -91q107 0 192.5 64.5t106.5 154.5h-413v67h502z" />
<glyph unicode="&#x1e7;" horiz-adv-x="673" d="M499 733l-145 -126h-66l-143 126h89l86 -74l88 74h91zM610 98q0 -80 -11.5 -128.5t-39.5 -86.5q-74 -98 -222 -98q-103 0 -174 51t-101 147h72q41 -73 86 -101.5t115 -28.5q99 0 150 56.5t51 164.5v37q-63 -124 -209 -124q-120 0 -202.5 82t-82.5 202q0 124 80 206.5 t200 82.5q133 0 214 -110v97h74v-449zM536 280q0 89 -61 150.5t-149 61.5q-91 0 -150 -60.5t-59 -154.5q0 -95 60 -158.5t150 -63.5q89 0 149 64.5t60 160.5z" />
<glyph unicode="&#x1ea;" horiz-adv-x="869" d="M825 369q0 -116 -66 -211.5t-173 -140.5q-128 -52 -128 -142q0 -21 13.5 -36t33.5 -15q22 0 50 5v-75q-23 -4 -50 -4q-51 0 -86 37t-35 88q0 59 66 112h-15q-163 0 -277 113t-114 274q0 154 116 266t275 112q161 0 275.5 -112.5t114.5 -270.5zM750 368q0 130 -93 223 t-222 93q-128 0 -222 -92.5t-94 -219.5q0 -131 92.5 -224t223.5 -93q129 0 222 92.5t93 220.5z" />
<glyph unicode="&#x1eb;" horiz-adv-x="655" d="M613 272q0 -79 -34.5 -143t-94.5 -101q-38 -24 -61 -42t-43.5 -48t-20.5 -63q0 -21 13.5 -36t33.5 -15q22 0 50 5v-75q-23 -4 -50 -4q-51 0 -86 37t-35 88q0 59 67 112h-17q-127 0 -210 82t-83 208q0 120 82.5 201.5t204.5 81.5q123 0 203.5 -81.5t80.5 -206.5zM538 271 q0 95 -59.5 158t-149.5 63q-91 0 -151.5 -62t-60.5 -155q0 -96 61 -158t155 -62q89 0 147 61t58 155z" />
<glyph unicode="&#x1f4;" horiz-adv-x="872" d="M587 890l-193 -114l-34 56l193 116zM831 341q-9 -144 -118 -249t-267 -105q-170 0 -286 111t-116 273q0 160 113.5 270.5t278.5 110.5q121 0 217 -57.5t133 -152.5h-83q-38 67 -106.5 104.5t-154.5 37.5q-137 0 -230 -91t-93 -224q0 -132 94 -223t230 -91 q107 0 192.5 64.5t106.5 154.5h-413v67h502z" />
<glyph unicode="&#x1f5;" horiz-adv-x="673" d="M473 708l-193 -114l-34 56l193 116zM610 98q0 -80 -11.5 -128.5t-39.5 -86.5q-74 -98 -222 -98q-103 0 -174 51t-101 147h72q41 -73 86 -101.5t115 -28.5q99 0 150 56.5t51 164.5v37q-63 -124 -209 -124q-120 0 -202.5 82t-82.5 202q0 124 80 206.5t200 82.5 q133 0 214 -110v97h74v-449zM536 280q0 89 -61 150.5t-149 61.5q-91 0 -150 -60.5t-59 -154.5q0 -95 60 -158.5t150 -63.5q89 0 149 64.5t60 160.5z" />
<glyph unicode="&#x1fa;" d="M471 865q0 -42 -29.5 -71.5t-71.5 -29.5t-71.5 29.5t-29.5 70.5q0 43 29.5 72.5t72.5 29.5q41 0 70.5 -30t29.5 -71zM426 865q0 23 -16.5 39.5t-39.5 16.5t-39.5 -16.5t-16.5 -40.5q0 -23 16.5 -39t39.5 -16t39.5 16.5t16.5 39.5zM729 0h-81l-107 249h-344l-108 -249h-78 l317 739h83zM512 316l-142 339l-145 -339h287zM521 1100l-193 -114l-34 56l193 116z" />
<glyph unicode="&#x1fb;" horiz-adv-x="683" d="M431 673q0 -42 -29.5 -71.5t-71.5 -29.5t-71.5 29.5t-29.5 70.5q0 43 29.5 72.5t72.5 29.5q41 0 70.5 -30t29.5 -71zM386 673q0 23 -16.5 39.5t-39.5 16.5t-39.5 -16.5t-16.5 -40.5q0 -23 16.5 -39t39.5 -16t39.5 16.5t16.5 39.5zM481 908l-193 -114l-34 56l193 116z M620 0h-74v96q-44 -59 -92.5 -84t-118.5 -25q-126 0 -209.5 81.5t-83.5 203.5q0 123 82.5 205.5t205.5 82.5q138 0 216 -110v97h74v-547zM546 276q0 91 -62 153.5t-152 62.5q-89 0 -152 -63t-63 -152q0 -94 63 -158t156 -64q88 0 149 64t61 157z" />
<glyph unicode="&#x1fc;" horiz-adv-x="992" d="M936 0h-393v250h-271l-173 -250h-88l511 739h414v-67h-319v-265h308v-67h-308v-273h319v-67zM543 317v327l-224 -327h224zM731 890l-193 -114l-34 56l193 116z" />
<glyph unicode="&#x1fd;" horiz-adv-x="1157" d="M1118 247h-495q7 -82 69 -137t147 -55q63 0 114.5 33.5t74.5 89.5h77q-29 -86 -102 -138.5t-164 -52.5q-130 0 -220 105v-92h-71v92q-46 -55 -97.5 -80t-119.5 -25q-123 0 -206 82t-83 203q0 120 82 204t206 84q139 0 218 -108v95h71v-95q86 108 216 108q122 0 202.5 -82 t80.5 -231zM1046 314q-15 81 -72.5 129.5t-137.5 48.5q-82 0 -140 -49.5t-70 -128.5h420zM550 274q0 95 -61.5 156.5t-155.5 61.5q-92 0 -153.5 -62.5t-61.5 -155.5q0 -92 62 -155.5t153 -63.5t154 63.5t63 155.5zM730 708l-193 -114l-34 56l193 116z" />
<glyph unicode="&#x1fe;" horiz-adv-x="868" d="M824 372q0 -161 -112.5 -273t-274.5 -112q-112 0 -204 55l-94 -125l-56 41l93 124q-132 110 -132 288q0 161 112 271.5t275 110.5q123 0 205 -56l94 125l54 -42l-92 -123q132 -111 132 -284zM595 641q-71 43 -165 43q-131 0 -221 -92.5t-90 -225.5q0 -134 100 -228z M749 369q0 135 -99 231l-376 -503q80 -42 162 -42q131 0 222 91.5t91 222.5zM585 890l-193 -114l-34 56l193 116z" />
<glyph unicode="&#x1ff;" horiz-adv-x="653" d="M611 281q0 -128 -79.5 -211t-203.5 -83q-73 0 -150 41l-52 -67l-53 40l51 67q-45 52 -63.5 98.5t-18.5 105.5q0 120 83.5 204t202.5 84q80 0 146 -41l57 75l53 -42l-56 -74q83 -76 83 -197zM434 468q-48 24 -105 24q-90 0 -151 -65t-61 -161q0 -76 49 -145zM536 280 q0 85 -49 146l-269 -347q53 -24 105 -24q94 0 153.5 63t59.5 162zM478 708l-193 -114l-34 56l193 116z" />
<glyph unicode="&#x200;" d="M502 824l-35 -47l-174 121l38 49zM306 824l-35 -47l-174 121l38 49zM729 0h-81l-107 249h-344l-108 -249h-78l317 739h83zM512 316l-142 339l-145 -339h287z" />
<glyph unicode="&#x201;" horiz-adv-x="683" d="M462 632l-35 -47l-174 121l38 49zM266 632l-35 -47l-174 121l38 49zM620 0h-74v96q-44 -59 -92.5 -84t-118.5 -25q-126 0 -209.5 81.5t-83.5 203.5q0 123 82.5 205.5t205.5 82.5q138 0 216 -110v97h74v-547zM546 276q0 91 -62 153.5t-152 62.5q-89 0 -152 -63t-63 -152 q0 -94 63 -158t156 -64q88 0 149 64t61 157z" />
<glyph unicode="&#x204;" horiz-adv-x="536" d="M410 824l-35 -47l-174 121l38 49zM214 824l-35 -47l-174 121l38 49zM480 0h-404v739h404v-67h-330v-265h319v-67h-319v-273h330v-67z" />
<glyph unicode="&#x205;" horiz-adv-x="650" d="M458 632l-35 -47l-174 121l38 49zM262 632l-35 -47l-174 121l38 49zM611 249h-495q4 -81 66.5 -137.5t146.5 -56.5q62 0 115 34.5t76 90.5h77q-27 -81 -101.5 -137t-164.5 -56q-121 0 -205 83.5t-84 205.5q0 119 82.5 201.5t201.5 82.5q124 0 204.5 -84.5t80.5 -226.5z M537 316q-19 82 -75.5 129t-136.5 47q-78 0 -135 -48.5t-72 -127.5h419z" />
<glyph unicode="&#x208;" horiz-adv-x="226" d="M245 824l-35 -47l-174 121l38 49zM49 824l-35 -47l-174 121l38 49zM150 0h-74v739h74v-739z" />
<glyph unicode="&#x209;" horiz-adv-x="200" d="M232 632l-35 -47l-174 121l38 49zM36 632l-35 -47l-174 121l38 49zM137 0h-74v547h74v-547z" />
<glyph unicode="&#x20c;" horiz-adv-x="869" d="M567 824l-35 -47l-174 121l38 49zM371 824l-35 -47l-174 121l38 49zM825 369q0 -157 -115 -269.5t-275 -112.5q-163 0 -277 113t-114 274q0 154 116 266t275 112q161 0 275.5 -112.5t114.5 -270.5zM750 368q0 130 -93 223t-222 93q-128 0 -222 -92.5t-94 -219.5 q0 -131 92.5 -224t223.5 -93q129 0 222 92.5t93 220.5z" />
<glyph unicode="&#x20d;" horiz-adv-x="655" d="M461 632l-35 -47l-174 121l38 49zM265 632l-35 -47l-174 121l38 49zM613 272q0 -123 -79 -204t-199 -81q-127 0 -210 82t-83 208q0 120 82.5 201.5t204.5 81.5q123 0 203.5 -81.5t80.5 -206.5zM538 271q0 95 -59.5 158t-149.5 63q-91 0 -151.5 -62t-60.5 -155 q0 -96 61 -158t155 -62q89 0 147 61t58 155z" />
<glyph unicode="&#x210;" horiz-adv-x="607" d="M436 824l-35 -47l-174 121l38 49zM240 824l-35 -47l-174 121l38 49zM577 501q0 -98 -56 -156t-162 -69l207 -276h-92l-249 335q158 0 217.5 35.5t59.5 133.5q0 91 -58.5 129.5t-189.5 38.5h-104v-672h-74v739h183q169 0 243.5 -59.5t74.5 -178.5z" />
<glyph unicode="&#x211;" horiz-adv-x="301" d="M269 632l-35 -47l-174 121l38 49zM73 632l-35 -47l-174 121l38 49zM292 487q-155 -15 -155 -168v-319h-74v547h74v-78q22 45 59 66.5t96 24.5v-73z" />
<glyph unicode="&#x214;" horiz-adv-x="655" d="M460 824l-35 -47l-174 121l38 49zM264 824l-35 -47l-174 121l38 49zM579 278q0 -146 -67.5 -218.5t-184.5 -72.5q-116 0 -183.5 72.5t-67.5 218.5v461h74v-461q0 -223 178 -223q177 0 177 223v461h74v-461z" />
<glyph unicode="&#x215;" horiz-adv-x="608" d="M436 632l-35 -47l-174 121l38 49zM240 632l-35 -47l-174 121l38 49zM545 0h-74v85q-53 -98 -176 -98q-232 0 -232 265v295h74v-295q0 -197 164 -197q79 0 124.5 52t45.5 159v281h74v-547z" />
<glyph unicode="&#x218;" horiz-adv-x="498" d="M299 -53l-48 -172h-74l48 172h74zM476 206q0 -94 -63.5 -156.5t-159.5 -62.5q-100 0 -163 60t-68 160h79q8 -73 49.5 -112.5t104.5 -39.5t104.5 41.5t41.5 105.5q0 61 -35 93.5t-130 61.5q-64 19 -90 31.5t-48 33.5q-52 49 -52 131q0 86 58 142.5t147 56.5 q91 0 149 -55.5t58 -144.5h-77q0 59 -37.5 95.5t-94.5 36.5q-55 0 -91.5 -36.5t-36.5 -92.5t35 -86q23 -20 109 -46q96 -29 137 -59q74 -55 74 -158z" />
<glyph unicode="&#x219;" horiz-adv-x="388" d="M241 -53l-48 -172h-74l48 172h74zM361 157q0 -75 -46.5 -122.5t-120.5 -47.5q-79 0 -127.5 47.5t-48.5 126.5h73q0 -49 28.5 -77.5t74.5 -28.5q40 0 66 27t26 68q0 40 -21.5 60t-84.5 45q-58 23 -71.5 30t-29.5 23q-41 38 -41 98q0 67 44 110.5t111 43.5t110.5 -41.5 t43.5 -106.5h-75q0 38 -21.5 59t-58.5 21q-33 0 -56 -23t-23 -56q0 -47 50 -72q20 -10 103 -44q95 -40 95 -140z" />
<glyph unicode="&#x21a;" horiz-adv-x="426" d="M261 -53l-48 -172h-74l48 172h74zM419 672h-169v-672h-74v672h-169v67h412v-67z" />
<glyph unicode="&#x21b;" horiz-adv-x="339" d="M215 -53l-48 -172h-74l48 172h74zM327 480h-123v-480h-74v480h-118v67h118v192h74v-192h123v-67z" />
<glyph unicode="&#x258;" horiz-adv-x="650" d="M611 276q0 -122 -83.5 -205.5t-205.5 -83.5q-90 0 -164.5 56t-101.5 137h77q23 -56 76 -90.5t115 -34.5q84 0 146.5 56.5t66.5 137.5h-495q0 142 80.5 226.5t204.5 84.5q119 0 201.5 -82.5t82.5 -201.5zM535 316q-15 79 -72 127.5t-135 48.5q-80 0 -136.5 -47t-75.5 -129 h419z" />
<glyph unicode="&#x259;" horiz-adv-x="650" d="M611 271q0 -119 -82.5 -201.5t-201.5 -82.5q-124 0 -204.5 84.5t-80.5 226.5h495q-4 81 -66.5 137.5t-146.5 56.5q-62 0 -115 -34.5t-76 -90.5h-77q27 81 101.5 137t164.5 56q122 0 205.5 -84t83.5 -205zM535 231h-419q19 -82 75.5 -129t136.5 -47q78 0 135 48.5 t72 127.5z" />
<glyph unicode="&#x2be;" horiz-adv-x="519" d="M456 516q0 -83 -59 -141t-144 -58q-65 0 -116 33q-24 16 -42 38.5t-24.5 37t-6.5 19.5q0 2 1 5q2 3 6 3h56q3 0 7 -4q40 -70 119 -70q58 0 97.5 40t39.5 98q0 57 -40.5 97t-98.5 40q-68 0 -118 -67q-1 -3 -6 -3h-56q-5 0 -7 4q-1 1 -1 3t1 4q63 121 185 121 q88 0 147.5 -57.5t59.5 -142.5z" />
<glyph unicode="&#x2bf;" horiz-adv-x="519" d="M455 438q-63 -121 -185 -121q-88 0 -147.5 57.5t-59.5 142.5q0 83 59 141t144 58q65 0 116 -34q24 -15 42 -37.5t24.5 -37t6.5 -19.5q0 -2 -1 -4q-2 -4 -6 -4h-56q-3 0 -7 4q-40 70 -119 70q-58 0 -97.5 -40t-39.5 -98q0 -57 40.5 -97t98.5 -40q68 0 118 67q2 3 6 3h56 q5 0 7 -3q1 -2 1 -4t-1 -4z" />
<glyph unicode="&#x2c6;" horiz-adv-x="502" d="M428 607h-89l-86 74l-88 -74h-91l145 126h66z" />
<glyph unicode="&#x2c7;" horiz-adv-x="502" d="M428 733l-145 -126h-66l-143 126h89l86 -74l88 74h91z" />
<glyph unicode="&#x2d8;" horiz-adv-x="453" d="M378 730q-12 -64 -50 -92t-102 -28q-130 0 -152 120h64q10 -62 88 -62t88 62h64z" />
<glyph unicode="&#x2d9;" horiz-adv-x="222" d="M148 607h-74v126h74v-126z" />
<glyph unicode="&#x2da;" horiz-adv-x="332" d="M267 680q0 -42 -29.5 -71.5t-71.5 -29.5t-71.5 29.5t-29.5 70.5q0 43 29.5 72.5t72.5 29.5q41 0 70.5 -30t29.5 -71zM222 680q0 23 -16.5 39.5t-39.5 16.5t-39.5 -16.5t-16.5 -40.5q0 -23 16.5 -39t39.5 -16t39.5 16.5t16.5 39.5z" />
<glyph unicode="&#x2db;" horiz-adv-x="302" d="M233 -246q-21 -4 -50 -4q-51 0 -86 37t-35 88q0 66 84 125h74q-84 -48 -84 -125q0 -21 13.5 -36t33.5 -15q22 0 50 5v-75z" />
<glyph unicode="&#x2dc;" horiz-adv-x="439" d="M365 672q-12 -20 -39 -34.5t-52 -14.5q-21 0 -66 22q-23 10 -40 10q-14 0 -23.5 -4.5t-29.5 -21.5l-7 -6l-33 46q38 49 93 49q9 0 50.5 -15.5t56.5 -15.5q27 0 57 31z" />
<glyph unicode="&#x2dd;" horiz-adv-x="552" d="M353 706l-174 -121l-35 47l171 123zM549 706l-174 -121l-35 47l171 123z" />
<glyph unicode="&#x300;" horiz-adv-x="0" d="M-266 650l-34 -56l-193 114l34 58z" />
<glyph unicode="&#x301;" horiz-adv-x="0" d="M-190 708l-193 -114l-34 56l193 116z" />
<glyph unicode="&#x302;" horiz-adv-x="0" d="M-164 607h-89l-86 74l-88 -74h-91l145 126h66z" />
<glyph unicode="&#x303;" horiz-adv-x="0" d="M-196 672q-12 -20 -39 -34.5t-52 -14.5q-21 0 -66 22q-23 10 -40 10q-14 0 -23.5 -4.5t-29.5 -21.5l-7 -6l-33 46q38 49 93 49q9 0 50.5 -15.5t56.5 -15.5q27 0 57 31z" />
<glyph unicode="&#x304;" horiz-adv-x="0" d="M-173 638h-337v64h337v-64z" />
<glyph unicode="&#x306;" horiz-adv-x="0" d="M-190 730q-12 -64 -50 -92t-102 -28q-130 0 -152 120h64q10 -62 88 -62t88 62h64z" />
<glyph unicode="&#x307;" horiz-adv-x="0" d="M-304 607h-74v126h74v-126z" />
<glyph unicode="&#x308;" horiz-adv-x="0" d="M-231 607h-74v126h74v-126zM-378 607h-74v126h74v-126z" />
<glyph unicode="&#x309;" horiz-adv-x="0" d="M-240 709q0 -36 -39 -64q-33 -21 -34 -55h-53q1 55 44 89q28 20 28 31q0 13 -12.5 21.5t-32.5 8.5q-29 0 -43 -17v1q-4 -8 -8 -37h-52q3 103 103 103q43 0 71 -23t28 -58z" />
<glyph unicode="&#x30a;" horiz-adv-x="0" d="M-240 680q0 -42 -29.5 -71.5t-71.5 -29.5t-71.5 29.5t-29.5 70.5q0 43 29.5 72.5t72.5 29.5q41 0 70.5 -30t29.5 -71zM-285 680q0 23 -16.5 39.5t-39.5 16.5t-39.5 -16.5t-16.5 -40.5q0 -23 16.5 -39t39.5 -16t39.5 16.5t16.5 39.5z" />
<glyph unicode="&#x30b;" horiz-adv-x="0" d="M-264 706l-174 -121l-35 47l171 123zM-68 706l-174 -121l-35 47l171 123z" />
<glyph unicode="&#x30c;" horiz-adv-x="0" d="M-164 733l-145 -126h-66l-143 126h89l86 -74l88 74h91z" />
<glyph unicode="&#x30f;" horiz-adv-x="0" d="M-209 632l-35 -47l-174 121l38 49zM-405 632l-35 -47l-174 121l38 49z" />
<glyph unicode="&#x311;" horiz-adv-x="0" d="M-190 610h-64q-10 62 -88 62t-88 -62h-64q12 64 50 92t102 28q130 0 152 -120z" />
<glyph unicode="&#x323;" horiz-adv-x="0" d="M-304 -186h-74v126h74v-126z" />
<glyph unicode="&#x326;" horiz-adv-x="0" d="M-294 -53l-48 -172h-74l48 172h74z" />
<glyph unicode="&#x32e;" horiz-adv-x="0" d="M-189 -63q-12 -64 -50 -92t-102 -28q-130 0 -152 120h64q10 -62 88 -62t88 62h64z" />
<glyph unicode="&#x32f;" horiz-adv-x="0" d="M-189 -183h-64q-10 62 -88 62t-88 -62h-64q12 64 50 92t102 28q130 0 152 -120z" />
<glyph unicode="&#x330;" horiz-adv-x="0" d="M-196 -121q-12 -20 -39 -34.5t-52 -14.5q-21 0 -66 22q-23 10 -40 10q-14 0 -23.5 -4.5t-29.5 -21.5l-7 -6l-33 46q38 49 93 49q9 0 50.5 -15.5t56.5 -15.5q27 0 57 31z" />
<glyph unicode="&#x331;" horiz-adv-x="0" d="M-173 -155h-337v64h337v-64z" />
<glyph unicode="&#x332;" horiz-adv-x="0" d="M-173 -155h-337v64h337v-64z" />
<glyph unicode="&#x391;" d="M729 0h-81l-107 249h-344l-108 -249h-78l317 739h83zM512 316l-142 339l-145 -339h287z" />
<glyph unicode="&#x392;" horiz-adv-x="574" d="M544 212q0 -111 -66.5 -161.5t-218.5 -50.5h-183v739h173q133 0 193 -47.5t60 -144.5q0 -107 -82 -153q124 -50 124 -182zM469 208q0 40 -12.5 68t-30.5 43t-51 23t-61.5 10t-75.5 2h-88v-287h101q116 0 167 31.5t51 109.5zM427 546q0 70 -39.5 98t-148.5 28h-89v-251h90 q104 0 145.5 27.5t41.5 97.5z" />
<glyph unicode="&#x393;" horiz-adv-x="485" d="M451 672h-301v-672h-74v739h375v-67z" />
<glyph unicode="&#x394;" horiz-adv-x="645" d="M647 0h-648l286 680h74zM527 75l-205 497l-203 -497h408z" />
<glyph unicode="&#x395;" horiz-adv-x="536" d="M480 0h-404v739h404v-67h-330v-265h319v-67h-319v-273h330v-67z" />
<glyph unicode="&#x396;" horiz-adv-x="480" d="M474 0h-457v67l363 605h-352v67h435v-67l-362 -605h373v-67z" />
<glyph unicode="&#x397;" horiz-adv-x="683" d="M607 0h-74v347h-383v-347h-74v739h74v-325h383v325h74v-739z" />
<glyph unicode="&#x398;" horiz-adv-x="869" d="M825 369q0 -157 -115 -269.5t-275 -112.5q-163 0 -277 113t-114 274q0 154 116 266t275 112q161 0 275.5 -112.5t114.5 -270.5zM750 368q0 130 -93 223t-222 93q-128 0 -222 -92.5t-94 -219.5q0 -131 92.5 -224t223.5 -93q129 0 222 92.5t93 220.5zM579 333h-289v74h289 v-74z" />
<glyph unicode="&#x399;" horiz-adv-x="226" d="M150 0h-74v739h74v-739z" />
<glyph unicode="&#x39a;" horiz-adv-x="591" d="M585 0h-93l-246 320l-96 -118v-202h-74v739h74v-425l342 425h93l-292 -360z" />
<glyph unicode="&#x39b;" d="M729 0h-81l-278 655l-281 -655h-78l317 739h83z" />
<glyph unicode="&#x39c;" horiz-adv-x="919" d="M843 0h-74v658l-278 -658h-64l-277 658v-658h-74v739h115l269 -629l268 629h115v-739z" />
<glyph unicode="&#x39d;" d="M664 0h-74l-440 650v-650h-74v739h100l414 -613v613h74v-739z" />
<glyph unicode="&#x39e;" horiz-adv-x="683" d="M646 665h-609v74h609v-74zM572 333h-461v74h461v-74zM646 0h-609v74h609v-74z" />
<glyph unicode="&#x39f;" horiz-adv-x="869" d="M825 369q0 -157 -115 -269.5t-275 -112.5q-163 0 -277 113t-114 274q0 154 116 266t275 112q161 0 275.5 -112.5t114.5 -270.5zM750 368q0 130 -93 223t-222 93q-128 0 -222 -92.5t-94 -219.5q0 -131 92.5 -224t223.5 -93q129 0 222 92.5t93 220.5z" />
<glyph unicode="&#x3a0;" horiz-adv-x="636" d="M609 0h-83v606h-381v-606h-83v680h547v-680z" />
<glyph unicode="&#x3a1;" horiz-adv-x="592" d="M565 515q0 -109 -63.5 -162.5t-209.5 -53.5h-142v-299h-74v739h204q151 0 218 -53.5t67 -170.5zM490 515q0 44 -12 74t-29 46t-51 24.5t-63.5 10.5t-79.5 2h-105v-306h137q110 0 156.5 34.5t46.5 114.5z" />
<glyph unicode="&#x3a3;" horiz-adv-x="453" d="M443 0h-434l-1 68l170 278l-162 265v69h414v-74h-319l161 -260l-167 -272h338v-74z" />
<glyph unicode="&#x3a4;" horiz-adv-x="426" d="M419 672h-169v-672h-74v672h-169v67h412v-67z" />
<glyph unicode="&#x3a5;" horiz-adv-x="592" d="M590 739l-258 -492v-247h-74v247l-256 492h82l210 -414l215 414h81z" />
<glyph unicode="&#x3a6;" horiz-adv-x="809" d="M746 370q0 -99 -88 -156t-217 -65l1 -149h-74v149q-129 8 -217 65t-88 156q0 98 88 155t217 65v149h74v-149q128 -8 216 -65t88 -155zM368 223l-1 293q-99 -5 -164.5 -40.5t-65.5 -105.5q0 -71 65.5 -106.5t165.5 -40.5zM672 370q0 70 -65.5 105.5t-164.5 40.5v-293 q99 5 164.5 40.5t65.5 106.5z" />
<glyph unicode="&#x3a7;" horiz-adv-x="609" d="M601 0h-87l-209 316l-210 -316h-87l251 378l-237 361h87l196 -296l195 296h86l-237 -361z" />
<glyph unicode="&#x3a8;" horiz-adv-x="795" d="M732 547q0 -121 -86 -208.5t-212 -100.5l1 -238h-74v238q-126 13 -212 100.5t-86 208.5v192h74v-192q0 -91 64.5 -156.5t159.5 -77.5v426h74v-426q94 12 158.5 77.5t64.5 156.5v192h74v-192z" />
<glyph unicode="&#x3a9;" horiz-adv-x="797" d="M765 340q-2 -82 -37.5 -156t-91.5 -110h78v-76h-232v78q86 25 144 98t58 168q0 107 -86 188q-86 82 -198 82q-115 0 -200.5 -82t-84.5 -194q2 -92 60.5 -163.5t143.5 -96.5v-78h-235v76h82q-57 36 -94 109t-38 153v8q0 138 107 240q110 106 258 106q95 0 180 -47.5 t137 -128.5q49 -78 49 -167v-7z" />
<glyph unicode="&#x3b1;" horiz-adv-x="712" d="M649 547q-52 -97 -94 -289q2 -36 3.5 -57t7 -51.5t14 -47t25 -29t39.5 -12.5v-74q-99 0 -139 127q-68 -127 -177 -127q-110 0 -187.5 81t-77.5 194q0 122 76 210t189 88q63 0 111.5 -37.5t78.5 -101.5q21 75 47 126h84zM480 265q-5 92 -44 156.5t-108 64.5 q-82 0 -136.5 -66.5t-54.5 -157.5q0 -83 55.5 -142t135.5 -59q33 0 59.5 17t44 48.5t28.5 64t20 74.5z" />
<glyph unicode="&#x3b2;" horiz-adv-x="484" d="M421 208q0 -90 -47.5 -157t-124.5 -67q-59 0 -112 31v-15q0 -112 -25 -216h-76q27 113 27 216v547q0 85 53.5 146.5t132.5 61.5q70 0 114.5 -59t44.5 -140q0 -50 -28 -93t-74 -68q53 -30 84 -79.5t31 -107.5zM347 208q0 65 -51.5 109t-121.5 44v68q65 0 112.5 35.5 t47.5 91.5q0 51 -22.5 88t-62.5 37q-48 0 -80 -40t-32 -94v-447q45 -42 112 -42q47 0 72.5 44.5t25.5 105.5z" />
<glyph unicode="&#x3b3;" horiz-adv-x="477" d="M539 547l-234 -555v-163h-74v171q0 152 -66 293.5t-181 253.5h106q160 -156 202 -395l167 395h80z" />
<glyph unicode="&#x3b4;" horiz-adv-x="697" d="M634 272q0 -123 -79 -204t-199 -81q-127 0 -210 82t-83 208q0 111 71.5 190t180.5 91l-182 124l19 61h393v-67h-285q138 -80 261 -169q53 -39 83 -100t30 -135zM559 271q0 95 -59.5 158t-149.5 63q-91 0 -151.5 -62t-60.5 -155q0 -96 61 -158t155 -62q89 0 147 61t58 155 z" />
<glyph unicode="&#x3b5;" horiz-adv-x="571" d="M548 24q-115 -55 -228 -55q-104 0 -180.5 59t-76.5 151q0 84 93 121q-80 38 -80 117q0 73 65 117.5t153 44.5q116 0 241 -56l-28 -61q-96 43 -213 43q-59 0 -101.5 -22.5t-42.5 -65.5q0 -21 10 -37t32 -25.5t42 -15.5t55.5 -8t56.5 -2.5t61 -0.5v-66q-41 0 -63.5 -0.5 t-60 -2.5t-58.5 -7.5t-44 -14t-33.5 -23.5t-10.5 -35q0 -61 54.5 -98.5t128.5 -37.5q114 0 200 41z" />
<glyph unicode="&#x3b6;" horiz-adv-x="424" d="M361 672h-26q-94 -69 -146 -174.5t-52 -223.5q0 -43 2.5 -72t10.5 -62t26 -49.5t47 -16.5h25q48 0 78.5 -42t30.5 -99v-104h-66v104q0 27 -11.5 47t-31.5 20h-25q-55 0 -92.5 41.5t-52.5 101t-15 131.5q0 112 44.5 215.5t124.5 182.5h-169v67h298v-67z" />
<glyph unicode="&#x3b7;" horiz-adv-x="542" d="M479 -171h-74v536q0 50 -34 85.5t-83 35.5q-60 0 -100 -47t-51 -118v-321h-74v547h74v-61q62 74 151 74q79 0 135 -57.5t56 -137.5v-536z" />
<glyph unicode="&#x3b8;" horiz-adv-x="544" d="M481 358q0 -72 -11 -135t-34.5 -117.5t-65.5 -86.5t-98 -32t-98 32t-65.5 86.5t-34.5 117.5t-11 135q0 77 10 142.5t32.5 124.5t65 93t101.5 34t101.5 -34t65 -93t32.5 -124.5t10 -142.5zM407 395q-1 61 -6 104.5t-18 88t-41 67.5t-70 23t-70 -23t-41 -67.5t-18 -88 t-6 -104.5h270zM407 321h-270q1 -55 7 -96.5t20 -81t41.5 -61t66.5 -21.5t66.5 21.5t41.5 61t20 81t7 96.5z" />
<glyph unicode="&#x3b9;" horiz-adv-x="325" d="M262 -17q-69 0 -102.5 69t-33.5 167v328h74v-328q0 -38 1 -58.5t6.5 -49t19 -41.5t35.5 -13v-74z" />
<glyph unicode="&#x3ba;" horiz-adv-x="502" d="M497 0h-92l-182 219l-86 -106v-113h-74v547h74v-332l255 332h91l-213 -275z" />
<glyph unicode="&#x3bb;" horiz-adv-x="609" d="M546 0h-78l-127 394l-196 -394h-82l246 495l-13 41q-19 59 -52.5 97.5t-81.5 38.5v74q72 0 125 -53.5t79 -134.5z" />
<glyph unicode="&#x3bc;" horiz-adv-x="608" d="M545 0h-74v92q-63 -98 -165 -98h-2h-2q-102 0 -165 98v-263h-74v718h74v-278q15 -90 56 -145.5t111 -55.5t111 55.5t56 145.5v278h74v-547z" />
<glyph unicode="&#x3bd;" horiz-adv-x="493" d="M430 365q0 -112 -50.5 -211.5t-141.5 -165.5l-57 21l-151 538h77l129 -463q58 55 89 128t31 153q0 85 -13 182h74q13 -87 13 -182z" />
<glyph unicode="&#x3be;" horiz-adv-x="395" d="M332 672h-114q-31 -10 -49.5 -42t-18.5 -72q0 -51 43 -82.5t102 -31.5v-67q-65 0 -111.5 -45t-46.5 -108q0 -150 70 -150h22q46 0 72.5 -42t26.5 -99v-104h-66v104q0 67 -33 67h-22q-69 0 -106.5 66t-37.5 158q0 57 29 106t78 79q-43 24 -68.5 63t-25.5 86q0 64 39 114 h-52v67h269v-67z" />
<glyph unicode="&#x3bf;" horiz-adv-x="655" d="M613 272q0 -123 -79 -204t-199 -81q-127 0 -210 82t-83 208q0 120 82.5 201.5t204.5 81.5q123 0 203.5 -81.5t80.5 -206.5zM538 271q0 95 -59.5 158t-149.5 63q-91 0 -151.5 -62t-60.5 -155q0 -96 61 -158t155 -62q89 0 147 61t58 155z" />
<glyph unicode="&#x3c0;" horiz-adv-x="736" d="M673 473h-134v-473h-74v473h-148v-473h-74v473h-13q-40 0 -66.5 -32t-26.5 -76h-74q0 74 48.5 128t118.5 54h443v-74z" />
<glyph unicode="&#x3c1;" horiz-adv-x="606" d="M543 274q0 -117 -68 -202t-172 -85q-93 0 -166 65v-223h-74v445q0 116 68 201t172 85t172 -85t68 -201zM469 274q0 85 -46.5 148.5t-119.5 63.5t-119.5 -63.5t-46.5 -148.5v-130q26 -40 70.5 -61.5t95.5 -21.5q73 0 119.5 63.5t46.5 149.5z" />
<glyph unicode="&#x3c2;" horiz-adv-x="541" d="M474 -171h-66v104q0 29 -25 48t-58 19h-37q-99 0 -162 83t-63 197t63 197t162 83q69 0 122 -46.5t64 -115.5l-66 -11q-7 43 -41 71t-79 28q-69 0 -110 -61t-41 -145t41 -145t110 -61h37q61 0 105 -41t44 -100v-104z" />
<glyph unicode="&#x3c3;" horiz-adv-x="728" d="M697 524q-82 -18 -167 -24q104 -83 104 -228q0 -123 -79 -204t-199 -81q-127 0 -210 82t-83 208q0 120 82.5 201.5t204.5 81.5q30 0 59 -6q117 8 272 42zM559 271q0 95 -59.5 158t-149.5 63q-91 0 -151.5 -62t-60.5 -155q0 -96 61 -158t155 -62q89 0 147 61t58 155z" />
<glyph unicode="&#x3c4;" horiz-adv-x="479" d="M416 -7q-89 0 -151 66.5t-62 159.5v254h-140v74h353v-74h-140l1 -254q0 -62 40 -107t99 -45v-74z" />
<glyph unicode="&#x3c5;" horiz-adv-x="541" d="M478 250q0 -107 -62.5 -185t-157.5 -78q-81 0 -138 57.5t-57 137.5v365h74v-365q0 -50 35.5 -85.5t85.5 -35.5q64 0 105 56.5t41 132.5q0 150 -27 297h76q25 -144 25 -297z" />
<glyph unicode="&#x3c6;" horiz-adv-x="704" d="M641 274q0 -109 -72.5 -190t-179.5 -95v-160h-74v160q-107 14 -180 95t-73 190q0 82 37.5 156t104.5 123l43 -60q-52 -38 -81.5 -96t-29.5 -123q0 -79 51 -138t128 -72v186q0 61 7.5 112.5t25 98t51 73t79.5 26.5q57 0 95.5 -44t53 -105.5t14.5 -136.5zM567 274 q0 37 -1 60.5t-5.5 55.5t-13.5 50.5t-26.5 32t-42.5 13.5q-19 0 -33 -8t-23.5 -19t-16 -32t-9.5 -37.5t-5 -45.5t-2 -46v-48v-186q76 13 127 72t51 138z" />
<glyph unicode="&#x3c7;" horiz-adv-x="561" d="M498 -171h-82l-136 275l-135 -275h-82l176 359l-176 359h82l136 -275l135 275h82l-176 -359z" />
<glyph unicode="&#x3c8;" horiz-adv-x="704" d="M641 182q0 -84 -72.5 -134.5t-178.5 -59.5v-159h-74v159q-107 9 -179.5 59.5t-72.5 134.5v365h74v-365q0 -56 50 -85t127 -35l1 677h74v-677q77 6 127 35t50 85v365h74v-365z" />
<glyph unicode="&#x3c9;" horiz-adv-x="719" d="M656 286q0 -79 -14.5 -143t-53.5 -110t-99 -46q-91 0 -131 95q-42 -95 -128 -95q-60 0 -99 46t-53.5 110t-14.5 143q0 119 28 261h68q-22 -111 -22 -261q0 -34 0.5 -54t3 -50t9 -48.5t16 -37t26 -27t38.5 -8.5q28 0 47.5 15t29.5 43.5t14 58t5 69.5q-3 39 -3 118h74v-61 q0 -21 2 -58.5t5.5 -58.5t10 -48.5t16 -42t24.5 -25t34 -10.5q22 0 38.5 8.5t26 27t16 37t9 48.5t3 50t0.5 54q0 150 -22 261h68q28 -142 28 -261z" />
<glyph unicode="&#x3d1;" horiz-adv-x="578" d="M515 404h-37v-185q0 -95 -59.5 -163.5t-147.5 -68.5t-148 68.5t-60 163.5v146h74v-146q0 -64 38 -111t96 -47q57 0 95 47t38 111v187q-56 2 -99.5 7.5t-87 18t-72.5 32t-47 51t-18 73.5q0 77 56 130.5t135 53.5q87 0 147 -66.5t60 -158.5v-76h37v-67zM404 472v75 q0 64 -38 111.5t-95 47.5q-51 0 -88 -34.5t-37 -83.5q0 -33 20.5 -56t59 -35t80.5 -17.5t98 -7.5z" />
<glyph unicode="&#x3d5;" horiz-adv-x="655" d="M613 272q0 -115 -69.5 -194t-178.5 -90v-159h-74v161q-111 14 -180 93.5t-69 193.5q0 110 70.5 188.5t178.5 92.5v181h74v-181q109 -12 178.5 -91t69.5 -195zM538 271q0 85 -48.5 145t-124.5 73v-432q77 11 125 70.5t48 143.5zM291 489q-77 -13 -125.5 -72t-48.5 -142 q0 -84 48 -143t126 -73v430z" />
<glyph unicode="&#x3d6;" horiz-adv-x="719" d="M656 286q0 -79 -14.5 -143t-53.5 -110t-99 -46q-91 0 -131 95q-42 -95 -128 -95q-60 0 -99 46t-53.5 110t-14.5 143q0 119 28 261h68q-22 -111 -22 -261q0 -34 0.5 -54t3 -50t9 -48.5t16 -37t26 -27t38.5 -8.5q28 0 47.5 15t29.5 43.5t14 58t5 69.5q-3 39 -3 118h74v-61 q0 -21 2 -58.5t5.5 -58.5t10 -48.5t16 -42t24.5 -25t34 -10.5q22 0 38.5 8.5t26 27t16 37t9 48.5t3 50t0.5 54q0 70 -9.5 130.5t-30 114.5t-60 85t-93.5 31q-112 0 -217 -36l-21 64q117 38 238 38q67 0 119.5 -36.5t84 -98t47.5 -136t16 -156.5z" />
<glyph unicode="&#x3f5;" horiz-adv-x="647" d="M594 137q-90 -150 -254 -150q-126 0 -212 83t-86 205q0 119 85 202t208 83q84 0 152.5 -40t105.5 -110h-89q-64 82 -170 82q-83 0 -143 -52.5t-72 -132.5h312v-67h-312q12 -79 73.5 -132t144.5 -53q97 0 168 82h89z" />
<glyph unicode="&#x400;" horiz-adv-x="536" d="M480 0h-404v739h404v-67h-330v-265h319v-67h-319v-273h330v-67zM311 868l-33 -56l-197 108l32 58z" />
<glyph unicode="&#x401;" horiz-adv-x="536" d="M389 798h-74v126h74v-126zM242 798h-74v126h74v-126zM480 0h-404v739h404v-67h-330v-265h319v-67h-319v-273h330v-67z" />
<glyph unicode="&#x402;" horiz-adv-x="426" d="M666 145q0 -58 -5 -103t-18 -88t-35.5 -71.5t-59 -45.5t-86.5 -17h-64v67h66q38 0 64.5 23t39.5 63t18.5 81t5.5 89q0 42 -2.5 71.5t-13.5 64.5t-30 56t-55 35.5t-86 14.5h-155v-385h-74v672h-169v67h498v-67h-255v-220h152q84 0 138 -21t81 -65t36 -94.5t9 -126.5z" />
<glyph unicode="&#x403;" horiz-adv-x="487" d="M510 672h-360v-672h-74v739h434v-67zM471 926l-193 -114l-34 56l193 116z" />
<glyph unicode="&#x404;" horiz-adv-x="814" d="M770 194q-112 -207 -338 -207q-165 0 -276.5 109t-111.5 271q0 166 109.5 275.5t274.5 109.5q114 0 205.5 -55t134.5 -150h-84q-38 59 -80 87q-76 50 -174 50q-120 0 -206.5 -76t-101.5 -194h426v-67h-428q9 -122 99.5 -207t212.5 -85q107 0 182 61q32 23 74 78h82z" />
<glyph unicode="&#x405;" horiz-adv-x="498" d="M476 206q0 -94 -63.5 -156.5t-159.5 -62.5q-101 0 -166 60.5t-65 159.5h79q7 -62 35 -97q44 -55 119 -55q63 0 104.5 41.5t41.5 105.5q0 70 -51 106q-34 24 -114 49q-64 19 -90 31.5t-48 33.5q-52 49 -52 131q0 86 58 142.5t147 56.5q91 0 149 -55.5t58 -144.5h-77 q0 59 -37.5 95.5t-94.5 36.5q-55 0 -91.5 -36.5t-36.5 -92.5q0 -54 35 -86q24 -21 109 -46q96 -29 137 -59q74 -55 74 -158z" />
<glyph unicode="&#x406;" horiz-adv-x="226" d="M150 0h-74v739h74v-739z" />
<glyph unicode="&#x407;" horiz-adv-x="226" d="M223 779h-74v126h74v-126zM76 779h-74v126h74v-126zM150 0h-74v739h74v-739z" />
<glyph unicode="&#x408;" horiz-adv-x="482" d="M406 231q0 -94 -29 -149q-47 -96 -168 -96q-90 0 -144 50.5t-54 138.5h73q0 -55 35 -88t91 -33q122 0 122 177v508h74v-508z" />
<glyph unicode="&#x409;" horiz-adv-x="906" d="M919 217q0 45 -18.5 82t-50.5 53q-43 21 -162 21h-163l115 -306h61q110 0 160 27q26 13 42 48.5t16 74.5zM994 221q0 -58 -22.5 -108t-60.5 -74q-65 -39 -202 -39h-122l-236 647l-235 -647h-81l279 739h72l114 -299h190q152 0 205 -30q41 -23 70 -74t29 -115z" />
<glyph unicode="&#x40a;" horiz-adv-x="957" d="M835 217q0 45 -18.5 82t-50.5 53q-43 21 -162 21h-88v-306h101q110 0 160 27q26 13 42 48.5t16 74.5zM910 221q0 -58 -22.5 -108t-60.5 -74q-65 -39 -202 -39h-183v371h-292v-371h-74v739h74v-300h292v300h74v-299h90q152 0 205 -30q41 -23 70 -74t29 -115z" />
<glyph unicode="&#x40b;" horiz-adv-x="426" d="M667 0h-74v227q0 80 -34 112q-23 21 -43 29t-40 8h-3q-22 -1 -55 -1h-170v-375h-72v672h-169v67h498v-67h-257v-230h169q56 0 83 -1.5t61 -13t56 -34.5q33 -34 41.5 -73.5t8.5 -130.5v-189z" />
<glyph unicode="&#x40c;" horiz-adv-x="591" d="M150 0h-74v739h74v-739zM570 0h-93l-312 379l302 360h93l-302 -360zM511 926l-193 -114l-34 56l193 116z" />
<glyph unicode="&#x40d;" d="M587 0h-74v619l-330 -619h-107v739h74v-656l357 656h80v-739zM364 868l-33 -56l-197 108l32 58z" />
<glyph unicode="&#x40e;" horiz-adv-x="596" d="M592 739l-258 -492l-130 -247h-81l130 247l-249 492h82l210 -414l215 414h81zM450 932q-7 -37 -17.5 -56.5t-31.5 -34.5q-40 -29 -103 -29q-130 0 -152 120h64q5 -32 26 -46q29 -16 62 -16t62 16q21 14 26 46h64z" />
<glyph unicode="&#x40f;" horiz-adv-x="683" d="M607 0h-229v-140h-74v140h-228v739h74v-672h383v672h74v-739z" />
<glyph unicode="&#x410;" d="M729 0h-81l-107 249h-344l-108 -249h-78l317 739h83zM512 316l-142 339l-145 -339h287z" />
<glyph unicode="&#x411;" horiz-adv-x="571" d="M577 236q0 -123 -78 -179.5t-240 -56.5h-183v739h464v-67h-390v-198h109q163 0 240.5 -56.5t77.5 -181.5zM502 236q0 96 -61.5 133.5t-186.5 37.5h-104v-340h104q125 0 186.5 37.5t61.5 131.5z" />
<glyph unicode="&#x412;" horiz-adv-x="571" d="M574 212q0 -113 -70 -162.5t-218 -49.5h-210v739h203q127 0 187 -43q66 -49 66 -149q0 -116 -85 -153q127 -41 127 -182zM499 208q0 84 -55 115t-176 31h-118v-287h131q106 0 162 30.5t56 110.5zM457 546q0 76 -47.5 101t-151.5 25h-108v-253h120q94 0 140.5 26.5 t46.5 100.5z" />
<glyph unicode="&#x413;" horiz-adv-x="487" d="M510 672h-360v-672h-74v739h434v-67z" />
<glyph unicode="&#x414;" horiz-adv-x="848" d="M593 67l-209 580l-208 -580h417zM741 -126h-74v126h-567v-126h-74v193h70l252 672h72l251 -672h70v-193z" />
<glyph unicode="&#x415;" horiz-adv-x="536" d="M480 0h-404v739h404v-67h-330v-265h319v-67h-319v-273h330v-67z" />
<glyph unicode="&#x416;" horiz-adv-x="974" d="M529 0h-74v739h74v-739zM430 379l-292 -379h-93l292 379l-282 360h93zM934 0h-93l-292 379l282 360h93l-282 -360z" />
<glyph unicode="&#x417;" horiz-adv-x="665" d="M648 210q0 -111 -76 -167t-218 -56q-60 0 -112.5 18.5t-85.5 44.5t-59 57t-37.5 52t-15.5 35h79q23 -45 87.5 -92t149.5 -47q97 0 155 36.5t58 114.5q0 67 -46.5 109t-111.5 42h-124v67h126q60 0 98 35t38 90q0 63 -56.5 99t-130.5 36q-58 0 -104 -21t-67.5 -46.5 t-32.5 -46.5l-10 -21h-75l5 15q5 15 16.5 37.5t34 49t52.5 49t78.5 37.5t106.5 15q102 0 181 -56t79 -146q0 -108 -97 -163q44 -13 79.5 -62.5t35.5 -114.5z" />
<glyph unicode="&#x418;" horiz-adv-x="663" d="M587 0h-74v619l-330 -619h-107v739h74v-656l357 656h80v-739z" />
<glyph unicode="&#x419;" horiz-adv-x="663" d="M587 0h-74v619l-330 -619h-107v739h74v-656l357 656h80v-739zM484 919q-7 -37 -17.5 -56.5t-31.5 -34.5q-40 -29 -103 -29q-130 0 -152 120h64q5 -32 26 -46q29 -16 62 -16t62 16q21 14 26 46h64z" />
<glyph unicode="&#x41a;" horiz-adv-x="591" d="M150 0h-74v739h74v-739zM570 0h-93l-312 379l302 360h93l-302 -360z" />
<glyph unicode="&#x41b;" horiz-adv-x="702" d="M665 0h-78l-236 647l-235 -647h-81l279 739h72z" />
<glyph unicode="&#x41c;" horiz-adv-x="919" d="M813 0h-74v658l-248 -658h-64l-247 658v-658h-74v739h115l239 -629l238 629h115v-739z" />
<glyph unicode="&#x41d;" horiz-adv-x="683" d="M607 0h-74v347h-383v-347h-74v739h74v-325h383v325h74v-739z" />
<glyph unicode="&#x41e;" horiz-adv-x="869" d="M825 369q0 -157 -115 -269.5t-275 -112.5q-163 0 -277 113t-114 274q0 154 116 266t275 112q161 0 275.5 -112.5t114.5 -270.5zM750 368q0 130 -93 223t-222 93q-128 0 -222 -92.5t-94 -219.5q0 -131 92.5 -224t223.5 -93q129 0 222 92.5t93 220.5z" />
<glyph unicode="&#x41f;" horiz-adv-x="683" d="M607 0h-74v672h-383v-672h-74v739h531v-739z" />
<glyph unicode="&#x420;" horiz-adv-x="592" d="M565 515q0 -116 -74 -170q-63 -46 -199 -46h-142v-299h-74v739h204q133 0 197 -39q88 -52 88 -185zM490 515q0 101 -67 135q-44 22 -168 22h-105v-306h137q99 0 142 25q61 34 61 124z" />
<glyph unicode="&#x421;" horiz-adv-x="813" d="M770 194q-112 -207 -338 -207q-166 0 -277 109t-111 271q0 166 109 275.5t274 109.5q115 0 206 -55t134 -150h-83q-38 60 -81 87q-74 50 -173 50q-132 0 -221.5 -90.5t-89.5 -223.5q0 -130 92 -222.5t220 -92.5q106 0 183 61q30 23 74 78h82z" />
<glyph unicode="&#x422;" horiz-adv-x="466" d="M519 672h-219v-672h-74v672h-219v67h512v-67z" />
<glyph unicode="&#x423;" horiz-adv-x="596" d="M592 739l-258 -492l-130 -247h-81l130 247l-249 492h82l210 -414l215 414h81z" />
<glyph unicode="&#x424;" horiz-adv-x="825" d="M785 389q0 -151 -89.5 -236.5t-243.5 -85.5v-109h-74v109q-159 0 -244.5 88t-85.5 239q0 149 86.5 233.5t243.5 84.5v82h74v-82q153 0 243 -85.5t90 -237.5zM710 388q0 123 -69 189.5t-189 66.5v-509q124 0 191 65t67 188zM378 135v509q-119 0 -187 -67.5t-68 -184.5 q0 -118 67.5 -187.5t187.5 -69.5z" />
<glyph unicode="&#x425;" horiz-adv-x="609" d="M601 0h-87l-209 316l-210 -316h-87l251 378l-237 361h87l196 -296l195 296h86l-237 -361z" />
<glyph unicode="&#x426;" horiz-adv-x="712" d="M668 -140h-74v140h-518v739h74v-672h383v672h74v-672h61v-207z" />
<glyph unicode="&#x427;" horiz-adv-x="635" d="M559 0h-74v289h-175q-137 0 -190.5 50.5t-53.5 170.5v229h74v-235q0 -52 11 -83t37 -44.5t51.5 -17t72.5 -3.5h173v383h74v-739z" />
<glyph unicode="&#x428;" horiz-adv-x="964" d="M888 0h-812v739h74v-672h295v672h74v-672h295v672h74v-739z" />
<glyph unicode="&#x429;" horiz-adv-x="983" d="M949 -140h-74v140h-799v739h74v-672h295v672h74v-672h295v672h74v-672h61v-207z" />
<glyph unicode="&#x42a;" horiz-adv-x="710" d="M716 236q0 -123 -78 -179.5t-240 -56.5h-183v672h-209v67h283v-265h109q163 0 240.5 -56.5t77.5 -181.5zM641 236q0 96 -61.5 133.5t-186.5 37.5h-104v-340h104q125 0 186.5 37.5t61.5 131.5z" />
<glyph unicode="&#x42b;" horiz-adv-x="742" d="M577 236q0 -123 -78 -179.5t-240 -56.5h-183v739h74v-265h109q163 0 240.5 -56.5t77.5 -181.5zM502 236q0 96 -61.5 133.5t-186.5 37.5h-104v-340h104q125 0 186.5 37.5t61.5 131.5zM728 0h-74v739h74v-739z" />
<glyph unicode="&#x42c;" horiz-adv-x="571" d="M577 236q0 -123 -78 -179.5t-240 -56.5h-183v739h74v-265h109q163 0 240.5 -56.5t77.5 -181.5zM502 236q0 96 -61.5 133.5t-186.5 37.5h-104v-340h104q125 0 186.5 37.5t61.5 131.5z" />
<glyph unicode="&#x42d;" horiz-adv-x="814" d="M770 367q0 -162 -111.5 -271t-276.5 -109q-226 0 -338 207h82q42 -55 74 -78q75 -61 182 -61q122 0 212.5 85t99.5 207h-428v67h426q-15 118 -101.5 194t-206.5 76q-98 0 -174 -50q-42 -28 -80 -87h-84q43 95 134.5 150t205.5 55q165 0 274.5 -109.5t109.5 -275.5z" />
<glyph unicode="&#x42e;" horiz-adv-x="1081" d="M1037 369q0 -157 -115 -269.5t-275 -112.5q-155 0 -265.5 104t-121.5 256h-110v-347h-74v739h74v-325h110q17 141 128.5 239.5t258.5 98.5q161 0 275.5 -112.5t114.5 -270.5zM962 368q0 130 -93 223t-222 93q-128 0 -222 -92.5t-94 -219.5q0 -131 92.5 -224t223.5 -93 q129 0 222 92.5t93 220.5z" />
<glyph unicode="&#x42f;" horiz-adv-x="604" d="M528 0h-74v672h-104q-113 0 -170 -27q-78 -37 -78 -141q0 -126 112 -156q27 -7 205 -7l-289 -341h-92l240 279q-121 0 -186 60.5t-65 161.5q0 142 111 202q66 36 207 36h183v-739z" />
<glyph unicode="&#x430;" horiz-adv-x="683" d="M620 0h-74v96q-44 -59 -92.5 -84t-118.5 -25q-126 0 -209.5 81.5t-83.5 203.5q0 123 82.5 205.5t205.5 82.5q138 0 216 -110v97h74v-547zM546 276q0 91 -62 153.5t-152 62.5q-89 0 -152 -63t-63 -152q0 -94 63 -158t156 -64q88 0 149 64t61 157z" />
<glyph unicode="&#x431;" horiz-adv-x="656" d="M618 272q0 -123 -79 -204t-199 -81q-128 0 -210.5 81.5t-82.5 208.5q0 49 2 87.5t8.5 87t17.5 85t32 74t49 63.5t70 44.5t95 23.5q59 6 97 9.5t73.5 11t75.5 21.5v-71q-76 -32 -246 -45q-30 -2 -56 -12t-44 -22.5t-34 -31.5t-25.5 -34.5t-18 -37t-12 -32t-7.5 -27.5 l-4 -17q78 106 214 106q123 0 203.5 -81.5t80.5 -206.5zM543 271q0 95 -59.5 158t-149.5 63q-91 0 -151.5 -62t-60.5 -155q0 -96 61 -158t155 -62q89 0 147 61t58 155z" />
<glyph unicode="&#x432;" horiz-adv-x="473" d="M343 411q0 67 -91 68h-115v-141h112q94 0 94 73zM418 168q0 51 -38 77t-101 26h-142v-203h145q136 2 136 100zM492 168q0 -80 -58 -124t-151 -44h-220v547h190q82 0 123 -41.5t41 -94.5q0 -51 -34 -89q109 -43 109 -154z" />
<glyph unicode="&#x433;" horiz-adv-x="369" d="M414 479h-278v-479h-73v547h351v-68z" />
<glyph unicode="&#x434;" horiz-adv-x="668" d="M499 67l-168 393l-164 -393h332zM641 -120h-84v120h-446v-120h-84v187h66l202 480h78l202 -480h66v-187z" />
<glyph unicode="&#x435;" horiz-adv-x="650" d="M611 249h-495q4 -81 66.5 -137.5t146.5 -56.5q62 0 115 34.5t76 90.5h77q-21 -64 -80 -120q-78 -73 -186 -73q-121 0 -205 83.5t-84 205.5q0 119 82.5 201.5t201.5 82.5q78 0 144.5 -38.5t103.5 -103.5q37 -66 37 -169zM537 316q-19 82 -75.5 129t-136.5 47 q-78 0 -135 -48.5t-72 -127.5h419z" />
<glyph unicode="&#x436;" horiz-adv-x="768" d="M801 0h-92l-226 272l213 275h91l-213 -275zM441 0h-74v547h74v-547zM325 272l-226 -272h-92l227 272l-213 275h91z" />
<glyph unicode="&#x437;" horiz-adv-x="458" d="M463 151q0 -71 -59.5 -117.5t-157.5 -46.5q-49 0 -89.5 17t-63.5 41t-39 48t-22 41l-5 17h67l9 -15q9 -15 25.5 -33t48.5 -33t69 -15q62 0 104.5 27.5t42.5 68.5q0 50 -38.5 77t-98.5 27h-72v73h72q42 0 69 22t27 67q0 33 -33.5 54t-72.5 21q-38 0 -66 -19t-37 -37 l-9 -19h-67l9 23q8 22 26 48.5t56 49t88 22.5q81 0 127 -40t46 -103q0 -38 -20.5 -73.5t-47.5 -46.5q46 -7 79 -51.5t33 -94.5z" />
<glyph unicode="&#x438;" horiz-adv-x="608" d="M545 0h-73v445l-336 -445h-73v547h73v-445l336 445h73v-547z" />
<glyph unicode="&#x439;" horiz-adv-x="608" d="M545 0h-73v445l-336 -445h-73v547h73v-445l336 445h73v-547zM457 733q-7 -37 -17.5 -56.5t-31.5 -34.5q-40 -29 -103 -29q-130 0 -152 120h64q5 -32 26 -46q29 -16 62 -16t62 16q21 14 26 46h64z" />
<glyph unicode="&#x43a;" horiz-adv-x="477" d="M137 0h-74v547h74v-547zM497 0h-92l-226 272l213 275h91l-213 -275z" />
<glyph unicode="&#x43b;" horiz-adv-x="554" d="M546 0h-75l-196 460l-192 -460h-75l230 547h78z" />
<glyph unicode="&#x43c;" horiz-adv-x="690" d="M657 0h-74v457l-194 -457h-68l-184 457v-457h-74v547h111l184 -460l188 460h111v-547z" />
<glyph unicode="&#x43d;" horiz-adv-x="544" d="M516 0h-73v250h-307v-250h-73v547h73v-230h307v230h73v-547z" />
<glyph unicode="&#x43e;" horiz-adv-x="655" d="M613 272q0 -123 -79 -204t-199 -81q-127 0 -210 82t-83 208q0 120 82.5 201.5t204.5 81.5q123 0 203.5 -81.5t80.5 -206.5zM538 271q0 95 -59.5 158t-149.5 63q-91 0 -151.5 -62t-60.5 -155q0 -96 61 -158t155 -62q89 0 147 61t58 155z" />
<glyph unicode="&#x43f;" horiz-adv-x="549" d="M516 0h-74v480h-305v-480h-74v547h453v-547z" />
<glyph unicode="&#x440;" horiz-adv-x="682" d="M640 272q0 -120 -84 -202.5t-206 -82.5q-140 0 -213 107v-286h-74v739h74v-94q71 107 215 107q122 0 205 -83t83 -205zM565 272q0 94 -62 157t-154 63q-91 0 -154 -62.5t-63 -153.5q0 -95 62 -158t156 -63q91 0 153 62.5t62 154.5z" />
<glyph unicode="&#x441;" horiz-adv-x="647" d="M608 161q-39 -75 -86 -112q-79 -62 -182 -62q-126 0 -212 83t-86 205q0 119 85 202t208 83q92 0 165.5 -48.5t106.5 -130.5h-83q-65 111 -190 111q-91 0 -154 -63.5t-63 -155.5q0 -91 64 -154.5t156 -63.5q58 0 101 24.5t86 81.5h84z" />
<glyph unicode="&#x442;" horiz-adv-x="362" d="M486 480h-203v-480h-74v480h-203v67h480v-67z" />
<glyph unicode="&#x443;" horiz-adv-x="536" d="M527 547l-316 -739h-79l89 210l-212 529h81l173 -436l185 436h79z" />
<glyph unicode="&#x444;" horiz-adv-x="728" d="M686 272q0 -123 -79.5 -204t-199.5 -81v-95h-74v95q-127 0 -209 82t-82 208q0 120 84.5 201.5t206.5 81.5v71h74v-71q117 0 198 -83.5t81 -204.5zM333 55v437q-91 0 -153.5 -62t-62.5 -155q0 -96 61 -158t155 -62zM611 271q0 92 -59.5 156.5t-144.5 64.5v-437 q89 0 146.5 61.5t57.5 154.5z" />
<glyph unicode="&#x445;" horiz-adv-x="480" d="M472 0h-85l-147 219l-148 -219h-84l190 279l-190 268h84l148 -211l147 211h85l-191 -268z" />
<glyph unicode="&#x446;" horiz-adv-x="560" d="M533 -129h-74v129h-396v547h74v-480h256v480h74v-480h66v-196z" />
<glyph unicode="&#x447;" horiz-adv-x="500" d="M437 0h-73v201h-174q-72 0 -114 49.5t-42 123.5v173h74v-169q0 -73 29 -92.5t115 -19.5h112v281h73v-547z" />
<glyph unicode="&#x448;" horiz-adv-x="822" d="M759 0h-696v547h74v-480h237v480h74v-480h237v480h74v-547z" />
<glyph unicode="&#x449;" horiz-adv-x="882" d="M825 -129h-74v129h-688v547h74v-480h237v480h74v-480h237v480h74v-480h66v-196z" />
<glyph unicode="&#x44a;" horiz-adv-x="556" d="M582 183q0 -82 -59 -132.5t-150 -50.5h-220v470h-147v77h221v-178h142q93 0 153 -52t60 -134zM508 183q0 52 -39 85t-100 33h-142v-234h145q61 1 98.5 32.5t37.5 83.5z" />
<glyph unicode="&#x44b;" horiz-adv-x="620" d="M492 183q0 -82 -59 -132.5t-150 -50.5h-220v547h74v-178h142q93 0 153 -52t60 -134zM418 183q0 52 -39 85t-100 33h-142v-234h145q61 1 98.5 32.5t37.5 83.5zM607 0h-74v547h74v-547z" />
<glyph unicode="&#x44c;" horiz-adv-x="466" d="M492 183q0 -82 -59 -132.5t-150 -50.5h-220v547h74v-178h142q93 0 153 -52t60 -134zM418 183q0 52 -39 85t-100 33h-142v-234h145q61 1 98.5 32.5t37.5 83.5z" />
<glyph unicode="&#x44d;" horiz-adv-x="650" d="M608 275q0 -122 -86 -205t-212 -83q-101 0 -182 62q-48 39 -86 112h84q44 -57 87 -81.5t101 -24.5q83 0 144 53t73 132h-317v67h318q-12 81 -72.5 133t-143.5 52q-125 0 -190 -111h-82q33 83 106 131t166 48q123 0 207.5 -83t84.5 -202z" />
<glyph unicode="&#x44e;" horiz-adv-x="853" d="M811 272q0 -123 -79 -204t-199 -81q-117 0 -197.5 70.5t-93.5 182.5h-106v-240h-73v547h73v-240h105q11 109 92 181t194 72q123 0 203.5 -81.5t80.5 -206.5zM736 271q0 95 -59.5 158t-149.5 63q-91 0 -151.5 -62t-60.5 -155q0 -96 61 -158t155 -62q89 0 147 61t58 155z " />
<glyph unicode="&#x44f;" horiz-adv-x="502" d="M492 0h-74v480h-145q-61 -1 -98.5 -32.5t-37.5 -83.5t39 -85t100 -33h78l-204 -246h-92l154 185q-68 17 -108.5 64.5t-40.5 114.5q0 82 59 132.5t150 50.5h220v-547z" />
<glyph unicode="&#x450;" horiz-adv-x="650" d="M611 249h-495q4 -81 66.5 -137.5t146.5 -56.5q62 0 115 34.5t76 90.5h77q-21 -64 -80 -120q-78 -73 -186 -73q-121 0 -205 83.5t-84 205.5q0 119 82.5 201.5t201.5 82.5q78 0 144.5 -38.5t103.5 -103.5q37 -66 37 -169zM537 316q-19 82 -75.5 129t-136.5 47 q-78 0 -135 -48.5t-72 -127.5h419zM359 676l-33 -56l-197 108l32 58z" />
<glyph unicode="&#x451;" horiz-adv-x="650" d="M611 249h-495q4 -81 66.5 -137.5t146.5 -56.5q62 0 115 34.5t76 90.5h77q-21 -64 -80 -120q-78 -73 -186 -73q-121 0 -205 83.5t-84 205.5q0 119 82.5 201.5t201.5 82.5q78 0 144.5 -38.5t103.5 -103.5q37 -66 37 -169zM537 316q-19 82 -75.5 129t-136.5 47 q-78 0 -135 -48.5t-72 -127.5h419zM440 623h-74v126h74v-126zM293 623h-74v126h74v-126z" />
<glyph unicode="&#x452;" horiz-adv-x="610" d="M604 95q0 -134 -32 -193q-36 -66 -72 -81q-52 -22 -134 -22v62q90 0 123 38q41 46 41 156v166q0 81 -59 118q-13 8 -47 19t-65 11h-165v-369h-74v567h-114v67h114v105h74v-105h218v-67h-218v-137h162q113 0 171 -47q77 -64 77 -156v-132z" />
<glyph unicode="&#x453;" horiz-adv-x="369" d="M414 479h-278v-479h-73v547h351v-68zM407 734l-193 -114l-34 56l193 116z" />
<glyph unicode="&#x454;" horiz-adv-x="650" d="M608 161q-38 -73 -86 -112q-81 -62 -182 -62q-126 0 -212 83t-86 205q0 119 84.5 202t207.5 83q93 0 166 -48t106 -131h-82q-65 111 -190 111q-83 0 -143.5 -52t-72.5 -133h318v-67h-317q12 -79 73 -132t144 -53q58 0 101 24.5t87 81.5h84z" />
<glyph unicode="&#x455;" horiz-adv-x="388" d="M361 157q0 -75 -46.5 -122.5t-120.5 -47.5q-79 0 -127.5 47.5t-48.5 126.5h73q0 -49 28.5 -77.5t74.5 -28.5q40 0 66 27t26 68q0 47 -35 71q-24 16 -71 34q-59 25 -71.5 31.5t-29.5 21.5q-41 38 -41 98q0 67 44 110.5t111 43.5t110.5 -41.5t43.5 -106.5h-75 q0 38 -21.5 59t-58.5 21q-33 0 -56 -23t-23 -56q0 -47 50 -72q20 -10 103 -44q95 -40 95 -140z" />
<glyph unicode="&#x456;" horiz-adv-x="200" d="M137 0h-74v547h74v-547zM137 613h-74v126h74v-126z" />
<glyph unicode="&#x457;" horiz-adv-x="200" d="M137 0h-74v547h74v-547zM211 620h-74v126h74v-126zM64 620h-74v126h74v-126z" />
<glyph unicode="&#x458;" horiz-adv-x="203" d="M140 613h-74v126h74v-126zM140 38q0 -80 -15 -121.5t-55 -71.5q-47 -34 -115 -37v71q62 4 86.5 39t24.5 120v509h74v-509z" />
<glyph unicode="&#x459;" horiz-adv-x="678" d="M780 169q0 -92 -52 -130.5t-159 -38.5h-98l-196 460l-192 -460h-75l230 547h78l86 -204h167q211 0 211 -174zM714 166q0 56 -33 79.5t-112 23.5h-136l85 -202h51q76 0 110.5 23.5t34.5 75.5z" />
<glyph unicode="&#x45a;" horiz-adv-x="694" d="M695 169q0 -92 -52 -130.5t-159 -38.5h-165v270h-183v-270h-73v547h73v-204h183v204h74v-204h91q211 0 211 -174zM629 166q0 56 -33 79.5t-112 23.5h-91v-202h91q76 0 110.5 23.5t34.5 75.5z" />
<glyph unicode="&#x45b;" horiz-adv-x="610" d="M550 0h-74v227q0 78 -34 112q-36 36 -141 36h-161v-375h-74v600h-85v66h85v73h74v-73h178v-66h-178v-158h160q75 0 118 -9.5t76 -42.5t44.5 -69.5t11.5 -93.5v-227z" />
<glyph unicode="&#x45c;" horiz-adv-x="502" d="M137 0h-74v547h74v-547zM497 0h-92l-226 272l213 275h91l-213 -275zM466 734l-193 -114l-34 56l193 116z" />
<glyph unicode="&#x45d;" horiz-adv-x="608" d="M545 0h-73v445l-336 -445h-73v547h73v-445l336 445h73v-547zM337 676l-33 -56l-197 108l32 58z" />
<glyph unicode="&#x45e;" horiz-adv-x="536" d="M527 547l-316 -739h-79l89 210l-212 529h81l173 -436l185 436h79zM420 740q-7 -37 -17.5 -56.5t-31.5 -34.5q-40 -29 -103 -29q-130 0 -152 120h64q5 -32 26 -46q29 -16 62 -16t62 16q21 14 26 46h64z" />
<glyph unicode="&#x45f;" horiz-adv-x="529" d="M466 0h-166v-140h-64v140h-173v547h74v-480h255v480h74v-547z" />
<glyph unicode="&#x48c;" horiz-adv-x="571" d="M469 208q0 90 -69 125q-43 21 -162 21h-88v-287h101q110 0 160 27q26 14 42 45t16 69zM544 212q0 -57 -22 -103t-61 -70q-65 -39 -202 -39h-183v561h-72v64h72v114h74v-114h80v-64h-80v-140h90q152 0 205 -30q42 -23 70.5 -69.5t28.5 -109.5z" />
<glyph unicode="&#x48d;" horiz-adv-x="466" d="M439 169q0 -92 -52 -130.5t-159 -38.5h-166v413h-59v64h60v70h74v-70h67v-64l-67 -1v-69h91q211 0 211 -174zM373 166q0 56 -33 79.5t-112 23.5h-91v-202h91q76 0 110.5 23.5t34.5 75.5z" />
<glyph unicode="&#x48e;" horiz-adv-x="592" d="M490 515q0 101 -67 135q-44 22 -168 22h-105v-306h137q44 0 71 4l-84 84l45 45l109 -109l1 1q61 34 61 124zM565 515q0 -116 -74 -170q-3 -3 -11 -7l78 -78l-45 -45l-96 96q-49 -12 -125 -12h-142v-299h-74v739h204q133 0 197 -39q88 -52 88 -185z" />
<glyph unicode="&#x48f;" horiz-adv-x="682" d="M565 272q0 94 -62 157t-154 63q-91 0 -154 -62.5t-63 -153.5q0 -95 62 -158t156 -63q58 0 107 27l-101 102l45 45l107 -107q57 62 57 150zM640 -10l-45 -45l-87 87q-70 -45 -158 -45q-140 0 -213 107v-286h-74v739h74v-94q71 107 215 107q122 0 205 -83t83 -205 q0 -118 -82 -200z" />
<glyph unicode="&#x490;" horiz-adv-x="487" d="M480 672h-330v-672h-74v739h330v66h74v-133z" />
<glyph unicode="&#x491;" horiz-adv-x="369" d="M364 479h-228v-479h-73v547h230v63h71v-131z" />
<glyph unicode="&#x492;" horiz-adv-x="487" d="M480 672h-330v-179h94v-64h-94v-429h-74v429h-66v64h66v246h404v-67z" />
<glyph unicode="&#x493;" horiz-adv-x="369" d="M364 479h-228v-80h84v-64h-85v-335h-73v335h-59v64h60v148h301v-68z" />
<glyph unicode="&#x494;" horiz-adv-x="487" d="M566 145q0 -58 -5 -103t-18 -88t-35.5 -71.5t-59 -45.5t-86.5 -17h-64v67h66q38 0 64.5 23t39.5 63t18.5 81t5.5 89q0 42 -2.5 71.5t-13.5 64.5t-30 56t-55 35.5t-86 14.5h-155v-385h-74v739h404v-67h-330v-220h152q84 0 138 -21t81 -65t36 -94.5t9 -126.5z" />
<glyph unicode="&#x495;" horiz-adv-x="369" d="M456 95q0 -134 -32 -193q-36 -66 -72 -81q-52 -22 -134 -22v62q90 0 123 38q41 46 41 156v86q0 81 -59 118q-13 8 -47 19t-65 11h-75v-289h-73v547h301v-68l-228 1v-130h72q113 0 171 -47q77 -64 77 -156v-52z" />
<glyph unicode="&#x496;" horiz-adv-x="974" d="M529 0h-74v739h74v-739zM430 379l-292 -379h-93l292 379l-282 360h93zM943 -140h-74v140h-28l-292 379l282 360h93l-282 -360l240 -312h61v-207z" />
<glyph unicode="&#x497;" horiz-adv-x="808" d="M811 -129h-74v129h-28l-226 272l213 275h91l-213 -275l171 -205h66v-196zM441 0h-74v547h74v-547zM325 272l-226 -272h-92l227 272l-213 275h91z" />
<glyph unicode="&#x498;" horiz-adv-x="559" d="M648 210q0 -105 -68.5 -161t-197.5 -61q53 -39 53 -89q0 -39 -29 -64.5t-74 -25.5q-22 0 -51 9v46q21 -10 45 -10q25 0 42 14t17 35q0 36 -57 85q-67 5 -123 32.5t-88.5 64t-50 64t-22.5 45.5h79q23 -45 87.5 -92t149.5 -47q97 0 155 36.5t58 114.5q0 67 -46.5 109 t-111.5 42h-124v67h126q60 0 98 35t38 90q0 63 -56.5 99t-130.5 36q-58 0 -104 -21t-67.5 -46.5t-32.5 -46.5l-10 -21h-75l5 15q5 15 16.5 37.5t34 49t52.5 49t78.5 37.5t106.5 15q102 0 181 -56t79 -146q0 -108 -97 -163q44 -13 79.5 -62.5t35.5 -114.5z" />
<glyph unicode="&#x499;" horiz-adv-x="400" d="M463 151q0 -66 -51.5 -111t-139.5 -52q54 -38 54 -89q0 -39 -29 -64.5t-74 -25.5q-23 0 -51 9v46q21 -10 45 -10q25 0 42 14t17 35q0 39 -58 85q-42 5 -77.5 23.5t-55.5 41.5t-34 45.5t-19 37.5l-5 15h67l9 -15q9 -15 25.5 -33t48.5 -33t69 -15q62 0 104.5 27.5 t42.5 68.5q0 50 -38.5 77t-98.5 27h-72v73h72q42 0 69 22t27 67q0 33 -33.5 54t-72.5 21q-38 0 -66 -19t-37 -37l-9 -19h-67l9 23q8 22 26 48.5t56 49t88 22.5q81 0 127 -40t46 -103q0 -38 -20.5 -73.5t-47.5 -46.5q46 -7 79 -51.5t33 -94.5z" />
<glyph unicode="&#x49a;" horiz-adv-x="591" d="M150 0h-74v739h74v-739zM576 -140h-74v140h-25l-312 379l302 360h93l-302 -360l257 -312h61v-207z" />
<glyph unicode="&#x49b;" horiz-adv-x="502" d="M137 0h-74v547h74v-547zM507 -129h-74v129h-28l-226 272l213 275h91l-213 -275l171 -205h66v-196z" />
<glyph unicode="&#x49c;" horiz-adv-x="591" d="M150 0h-74v739h74v-739zM570 0h-93l-222 270v-88h-64v165l-26 32l26 31v179h64v-103l212 253h93l-302 -360z" />
<glyph unicode="&#x49d;" horiz-adv-x="502" d="M137 0h-74v547h74v-547zM497 0h-92l-140 168v-69h-64v147l-22 26l22 28v166h64v-83l127 164h91l-213 -275z" />
<glyph unicode="&#x49e;" horiz-adv-x="591" d="M593 0h-93l-312 379l302 360h93l-302 -360zM254 603h-81v-603h-74v603h-82v64h82v72h74v-72h81v-64z" />
<glyph unicode="&#x49f;" horiz-adv-x="502" d="M497 0h-92l-226 272l213 275h91l-213 -275zM208 427h-71v-427h-74v427h-62v64h62v56h74v-56h71v-64z" />
<glyph unicode="&#x4a0;" horiz-adv-x="591" d="M289 0h-74v672h-209v67h283v-739zM709 0h-93l-312 379l302 360h93l-302 -360z" />
<glyph unicode="&#x4a1;" horiz-adv-x="502" d="M227 0h-74v470h-147v77h221v-547zM587 0h-92l-226 272l213 275h91l-213 -275z" />
<glyph unicode="&#x4a2;" horiz-adv-x="683" d="M668 -140h-74v140h-61v347h-383v-347h-74v739h74v-325h383v325h74v-672h61v-207z" />
<glyph unicode="&#x4a3;" horiz-adv-x="529" d="M582 -129h-74v129h-65v250h-307v-250h-73v547h73v-230h307v230h73v-480h66v-196z" />
<glyph unicode="&#x4a4;" horiz-adv-x="844" d="M967 672h-360v-672h-74v347h-383v-347h-74v739h74v-325h383v325h434v-67z" />
<glyph unicode="&#x4a5;" horiz-adv-x="529" d="M794 479h-278v-479h-73v250h-307v-250h-73v547h73v-230h307v230h351v-68z" />
<glyph unicode="&#x4a6;" horiz-adv-x="683" d="M1023 145q0 -58 -5 -103t-18 -88t-35.5 -71.5t-59 -45.5t-86.5 -17h-64v67h66q38 0 64.5 23t39.5 63t18.5 81t5.5 89q0 42 -2.5 71.5t-13.5 64.5t-30 56t-55 35.5t-86 14.5h-155v-385h-74v672h-383v-672h-74v739l531 -2v-285h152q84 0 138 -21t81 -65t36 -94.5t9 -126.5z " />
<glyph unicode="&#x4a7;" horiz-adv-x="529" d="M786 95q0 -134 -32 -193q-36 -66 -72 -81q-52 -22 -134 -22v62q90 0 123 38q41 46 41 156v86q0 81 -59 118q-13 8 -47 19t-65 11h-75v-289h-74v480h-255v-480h-74v547h403v-197h72q113 0 171 -47q77 -64 77 -156v-52z" />
<glyph unicode="&#x4a8;" horiz-adv-x="813" d="M770 194q-112 -207 -338 -207q-166 0 -277 109t-111 271q0 166 109 275.5t274 109.5q115 0 206 -55t134 -150h-83q-38 60 -81 87q-74 50 -173 50q-132 0 -221.5 -90.5t-89.5 -223.5q0 -130 92 -222.5t220 -92.5q106 0 183 61q30 23 74 78h82z" />
<glyph unicode="&#x4a9;" horiz-adv-x="647" d="M608 161q-39 -75 -86 -112q-79 -62 -182 -62q-126 0 -212 83t-86 205q0 119 85 202t208 83q92 0 165.5 -48.5t106.5 -130.5h-83q-65 111 -190 111q-91 0 -154 -63.5t-63 -155.5q0 -91 64 -154.5t156 -63.5q58 0 101 24.5t86 81.5h84z" />
<glyph unicode="&#x4aa;" horiz-adv-x="813" d="M770 194q-106 -195 -312 -206q53 -39 53 -89q0 -39 -29 -64.5t-74 -25.5q-22 0 -51 9v46q21 -10 45 -10q25 0 42 14t17 35q0 36 -57 85q-156 10 -258 117t-102 262q0 166 109 275.5t274 109.5q115 0 206 -55t134 -150h-83q-38 60 -81 87q-74 50 -173 50 q-132 0 -221.5 -90.5t-89.5 -223.5q0 -130 92 -222.5t220 -92.5q106 0 183 61q30 23 74 78h82z" />
<glyph unicode="&#x4ab;" horiz-adv-x="647" d="M608 161q-39 -75 -86 -112q-67 -53 -156 -61q54 -38 54 -89q0 -39 -29 -64.5t-74 -25.5q-23 0 -51 9v46q21 -10 45 -10q25 0 42 14t17 35q0 39 -58 85q-116 10 -193 91t-77 196q0 119 85 202t208 83q92 0 165.5 -48.5t106.5 -130.5h-83q-65 111 -190 111 q-91 0 -154 -63.5t-63 -155.5q0 -91 64 -154.5t156 -63.5q58 0 101 24.5t86 81.5h84z" />
<glyph unicode="&#x4ac;" horiz-adv-x="426" d="M519 672h-219v-605h61v-207h-74v140h-61v672h-219v67h512v-67z" />
<glyph unicode="&#x4ad;" horiz-adv-x="362" d="M486 480h-203v-413h66v-196h-74v129h-66v480h-203v67h480v-67z" />
<glyph unicode="&#x4ae;" horiz-adv-x="592" d="M590 739l-258 -492v-247h-74v247l-256 492h82l210 -414l215 414h81z" />
<glyph unicode="&#x4af;" horiz-adv-x="554" d="M546 547l-230 -547v-192h-78v192l-230 547h75l192 -460l196 460h75z" />
<glyph unicode="&#x4b0;" horiz-adv-x="592" d="M590 739l-257 -490h133v-64h-135v-185h-74v185h-128v64h128l-255 490h82l210 -414l215 414h81z" />
<glyph unicode="&#x4b1;" horiz-adv-x="554" d="M546 547l-203 -483h105v-64h-132v-192h-78v192h-126v64h99l-203 483h75l192 -460l196 460h75z" />
<glyph unicode="&#x4b2;" horiz-adv-x="609" d="M617 -140h-74v140h-29l-209 316l-210 -316h-87l251 378l-237 361h87l196 -296l195 296h86l-237 -361l207 -311h61v-207z" />
<glyph unicode="&#x4b3;" horiz-adv-x="480" d="M492 -129h-74v129h-31l-147 219l-148 -219h-84l190 279l-190 268h84l148 -211l147 211h85l-191 -268l145 -212h66v-196z" />
<glyph unicode="&#x4b4;" horiz-adv-x="742" d="M698 -140h-74v140h-548v739h74v-672h383v672h74v-672h91v-207z" />
<glyph unicode="&#x4b5;" horiz-adv-x="590" d="M563 -129h-74v129h-426v547h74v-480h256v480h74v-480h96v-196z" />
<glyph unicode="&#x4b6;" horiz-adv-x="635" d="M620 -140h-74v140h-61v299h-175q-59 0 -83 1t-57.5 12t-55.5 34q-34 36 -41 61.5t-7 112.5v219h74v-225q0 -80 34 -112q23 -21 42 -29t39 -8q1 0 3 1h54h173v373h74v-672h61v-207z" />
<glyph unicode="&#x4b7;" horiz-adv-x="500" d="M503 -129h-74v129h-65v201h-174q-67 0 -115 49q-41 41 -41 124v173h74v-169q0 -62 34 -90q16 -13 28.5 -17.5t33.5 -4.5h56h104v281h73v-480h66v-196z" />
<glyph unicode="&#x4b8;" horiz-adv-x="635" d="M559 0h-74v300h-129v-143h-64v143q-49 0 -73.5 2t-54 12.5t-50.5 32.5q-34 36 -41 61.5t-7 112.5v219h74v-225q0 -80 34 -112q21 -19 40.5 -27t31.5 -9q7 -1 18.5 -1t27.5 1v128h64v-128h129v372h74v-739z" />
<glyph unicode="&#x4b9;" horiz-adv-x="500" d="M437 0h-73v202h-90v-101h-64v101h-20q-67 0 -115 49q-41 41 -41 124v172h74v-168q0 -62 34 -90q17 -14 30 -18t38 -4v110h64v-110h90v280h73v-547z" />
<glyph unicode="&#x4ba;" horiz-adv-x="635" d="M559 0h-74v227q0 80 -34 112q-23 21 -43 29t-40 8h-3q-22 -1 -55 -1h-170v-375h-74v739h74v-297h169q56 0 83 -1.5t61 -13t56 -34.5q33 -34 41.5 -73.5t8.5 -130.5v-189z" />
<glyph unicode="&#x4bb;" horiz-adv-x="500" d="M437 0h-74v169q0 62 -34 90q-16 13 -28.5 17.5t-32.5 4.5h-57h-104v-281h-73v547h73v-201h174q67 0 115 -49q41 -41 41 -124v-173z" />
<glyph unicode="&#x4bc;" horiz-adv-x="813" d="M820 325h-698q15 -118 101.5 -194t206.5 -76q98 0 174 50q42 28 80 87h84q-43 -95 -134.5 -150t-205.5 -55q-165 0 -274.5 109.5t-109.5 275.5q0 162 111.5 271t276.5 109t276.5 -109t111.5 -271v-47zM744 392q-9 122 -99.5 207t-212.5 85t-212.5 -85t-99.5 -207h624z " />
<glyph unicode="&#x4bd;" horiz-adv-x="647" d="M611 249h-495q4 -81 66.5 -137.5t146.5 -56.5q62 0 115 34.5t76 90.5h77q-21 -64 -80 -120q-78 -73 -186 -73q-121 0 -205 83.5t-84 205.5q0 119 82.5 201.5t201.5 82.5q78 0 144.5 -38.5t103.5 -103.5q37 -66 37 -169zM537 316q-19 82 -75.5 129t-136.5 47 q-78 0 -135 -48.5t-72 -127.5h419z" />
<glyph unicode="&#x4be;" horiz-adv-x="813" d="M770 194q-112 -207 -338 -207q-166 0 -277 109t-111 271q0 166 109 275.5t274 109.5q115 0 206 -55t134 -150h-83q-38 60 -81 87q-74 50 -173 50q-132 0 -221.5 -90.5t-89.5 -223.5q0 -130 92 -222.5t220 -92.5q106 0 183 61q30 23 74 78h82z" />
<glyph unicode="&#x4bf;" horiz-adv-x="647" d="M608 161q-39 -75 -86 -112q-79 -62 -182 -62q-126 0 -212 83t-86 205q0 119 85 202t208 83q92 0 165.5 -48.5t106.5 -130.5h-83q-65 111 -190 111q-91 0 -154 -63.5t-63 -155.5q0 -91 64 -154.5t156 -63.5q58 0 101 24.5t86 81.5h84z" />
<glyph unicode="&#x4c0;" horiz-adv-x="226" d="M150 0h-74v739h74v-739z" />
<glyph unicode="&#x4c1;" horiz-adv-x="974" d="M430 379l-292 -379h-93l292 379l-282 360h93zM934 0h-93l-292 379l282 360h93l-282 -360zM529 0h-74v739h74v-739zM642 932q-7 -37 -17.5 -56.5t-31.5 -34.5q-40 -29 -103 -29q-130 0 -152 120h64q5 -32 26 -46q29 -16 62 -16t62 16q21 14 26 46h64z" />
<glyph unicode="&#x4c2;" horiz-adv-x="808" d="M325 272l-226 -272h-92l227 272l-213 275h91zM801 0h-92l-226 272l213 275h91l-213 -275zM441 0h-74v547h74v-547zM556 740q-7 -37 -17.5 -56.5t-31.5 -34.5q-40 -29 -103 -29q-130 0 -152 120h64q5 -32 26 -46q29 -16 62 -16t62 16q21 14 26 46h64z" />
<glyph unicode="&#x4c3;" horiz-adv-x="591" d="M150 0h-74v739h74v-739zM570 0h-93l-312 379l302 360h93l-302 -360z" />
<glyph unicode="&#x4c4;" horiz-adv-x="502" d="M137 0h-74v547h74v-547zM497 0h-92l-226 272l213 275h91l-213 -275z" />
<glyph unicode="&#x4c7;" horiz-adv-x="683" d="M607 0h-74v347h-383v-347h-74v739h74v-325h383v325h74v-739z" />
<glyph unicode="&#x4c8;" horiz-adv-x="529" d="M516 0h-73v250h-307v-250h-73v547h73v-230h307v230h73v-547z" />
<glyph unicode="&#x4cb;" horiz-adv-x="635" d="M559 0h-61v-140h-74v207h61v232h-175q-59 0 -83 1t-57.5 12t-55.5 34q-34 36 -41 61.5t-7 112.5v219h74v-225q0 -80 34 -112q23 -21 42 -29t39 -8q1 0 3 1h54h173v373h74v-739z" />
<glyph unicode="&#x4cc;" horiz-adv-x="500" d="M437 0h-65v-129h-74v196h66v134h-174q-67 0 -115 49q-41 41 -41 124v173h74v-169q0 -62 34 -90q16 -13 28.5 -17.5t33.5 -4.5h56h104v281h73v-547z" />
<glyph unicode="&#x4d0;" d="M729 0h-81l-107 249h-344l-108 -249h-78l317 739h83zM512 316l-142 339l-145 -339h287zM522 932q-7 -37 -17.5 -56.5t-31.5 -34.5q-40 -29 -103 -29q-130 0 -152 120h64q5 -32 26 -46q29 -16 62 -16t62 16q21 14 26 46h64z" />
<glyph unicode="&#x4d1;" horiz-adv-x="683" d="M620 0h-74v96q-44 -59 -92.5 -84t-118.5 -25q-126 0 -209.5 81.5t-83.5 203.5q0 123 82.5 205.5t205.5 82.5q138 0 216 -110v97h74v-547zM546 276q0 91 -62 153.5t-152 62.5q-89 0 -152 -63t-63 -152q0 -94 63 -158t156 -64q88 0 149 64t61 157zM520 767 q-7 -37 -17.5 -56.5t-31.5 -34.5q-40 -29 -103 -29q-130 0 -152 120h64q5 -32 26 -46q29 -16 62 -16t62 16q21 14 26 46h64z" />
<glyph unicode="&#x4d2;" d="M480 812h-74v126h74v-126zM333 812h-74v126h74v-126zM729 0h-81l-107 249h-344l-108 -249h-78l317 739h83zM512 316l-142 339l-145 -339h287z" />
<glyph unicode="&#x4d3;" horiz-adv-x="683" d="M479 647h-74v126h74v-126zM332 647h-74v126h74v-126zM620 0h-74v96q-44 -59 -92.5 -84t-118.5 -25q-126 0 -209.5 81.5t-83.5 203.5q0 123 82.5 205.5t205.5 82.5q138 0 216 -110v97h74v-547zM546 276q0 91 -62 153.5t-152 62.5q-89 0 -152 -63t-63 -152q0 -94 63 -158 t156 -64q88 0 149 64t61 157z" />
<glyph unicode="&#x4d4;" horiz-adv-x="992" d="M936 0h-393v250h-271l-173 -250h-88l511 739h414v-67h-319v-265h308v-67h-308v-273h319v-67zM543 317v327l-224 -327h224z" />
<glyph unicode="&#x4d5;" horiz-adv-x="1157" d="M1118 247h-495q7 -82 69 -137t147 -55q63 0 114.5 33.5t74.5 89.5h77q-29 -86 -102 -138.5t-164 -52.5q-130 0 -220 105v-92h-71v92q-46 -55 -97.5 -80t-119.5 -25q-123 0 -206 82t-83 203q0 117 77 200q80 88 211 88q139 0 218 -108v95h71v-95q86 108 216 108 q74 0 137 -34t103 -96q43 -69 43 -183zM1046 314q-15 81 -72.5 129.5t-137.5 48.5q-82 0 -140 -49.5t-70 -128.5h420zM550 274q0 95 -61.5 156.5t-155.5 61.5q-92 0 -153.5 -62.5t-61.5 -155.5q0 -92 62 -155.5t153 -63.5t154 63.5t63 155.5z" />
<glyph unicode="&#x4d6;" horiz-adv-x="536" d="M480 0h-404v739h404v-67h-330v-265h319v-67h-319v-273h330v-67zM430 932q-7 -37 -17.5 -56.5t-31.5 -34.5q-40 -29 -103 -29q-130 0 -152 120h64q5 -32 26 -46q29 -16 62 -16t62 16q21 14 26 46h64z" />
<glyph unicode="&#x4d7;" horiz-adv-x="650" d="M611 249h-495q4 -81 66.5 -137.5t146.5 -56.5q62 0 115 34.5t76 90.5h77q-21 -64 -80 -120q-78 -73 -186 -73q-121 0 -205 83.5t-84 205.5q0 119 82.5 201.5t201.5 82.5q78 0 144.5 -38.5t103.5 -103.5q37 -66 37 -169zM537 316q-19 82 -75.5 129t-136.5 47 q-78 0 -135 -48.5t-72 -127.5h419zM516 767q-7 -37 -17.5 -56.5t-31.5 -34.5q-40 -29 -103 -29q-130 0 -152 120h64q5 -32 26 -46q29 -16 62 -16t62 16q21 14 26 46h64z" />
<glyph unicode="&#x4d8;" horiz-adv-x="872" d="M820 367q0 -162 -111.5 -271t-276.5 -109t-276.5 109t-111.5 271v47h698q-15 118 -101.5 194t-206.5 76q-98 0 -174 -50q-42 -28 -80 -87h-84q43 95 134.5 150t205.5 55q165 0 274.5 -109.5t109.5 -275.5zM744 347h-624q9 -122 99.5 -207t212.5 -85t212.5 85t99.5 207z " />
<glyph unicode="&#x4d9;" horiz-adv-x="647" d="M611 271q0 -119 -82.5 -201.5t-201.5 -82.5q-78 0 -144.5 38.5t-103.5 103.5q-37 66 -37 169h495q-4 81 -66.5 137.5t-146.5 56.5q-62 0 -115 -34.5t-76 -90.5h-77q22 65 80 120q78 73 186 73q122 0 205.5 -84t83.5 -205zM535 231h-419q19 -82 75.5 -129t136.5 -47 q78 0 135 48.5t72 127.5z" />
<glyph unicode="&#x4da;" horiz-adv-x="872" d="M820 367q0 -162 -111.5 -271t-276.5 -109t-276.5 109t-111.5 271v47h698q-15 118 -101.5 194t-206.5 76q-98 0 -174 -50q-42 -28 -80 -87h-84q43 95 134.5 150t205.5 55q165 0 274.5 -109.5t109.5 -275.5zM744 347h-624q9 -122 99.5 -207t212.5 -85t212.5 85t99.5 207z M547 812h-74v126h74v-126zM400 812h-74v126h74v-126z" />
<glyph unicode="&#x4db;" horiz-adv-x="647" d="M611 271q0 -119 -82.5 -201.5t-201.5 -82.5q-78 0 -144.5 38.5t-103.5 103.5q-37 66 -37 169h495q-4 81 -66.5 137.5t-146.5 56.5q-62 0 -115 -34.5t-76 -90.5h-77q22 65 80 120q78 73 186 73q122 0 205.5 -84t83.5 -205zM535 231h-419q19 -82 75.5 -129t136.5 -47 q78 0 135 48.5t72 127.5zM433 620h-74v126h74v-126zM286 620h-74v126h74v-126z" />
<glyph unicode="&#x4dc;" horiz-adv-x="974" d="M529 0h-74v739h74v-739zM430 379l-292 -379h-93l292 379l-282 360h93zM934 0h-93l-292 379l282 360h93l-282 -360zM600 812h-74v126h74v-126zM453 812h-74v126h74v-126z" />
<glyph unicode="&#x4dd;" horiz-adv-x="808" d="M801 0h-92l-226 272l213 275h91l-213 -275zM441 0h-74v547h74v-547zM325 272l-226 -272h-92l227 272l-213 275h91zM515 620h-74v126h74v-126zM368 620h-74v126h74v-126z" />
<glyph unicode="&#x4de;" horiz-adv-x="559" d="M648 210q0 -111 -76 -167t-218 -56q-60 0 -112.5 18.5t-85.5 44.5t-59 57t-37.5 52t-15.5 35h79q23 -45 87.5 -92t149.5 -47q97 0 155 36.5t58 114.5q0 67 -46.5 109t-111.5 42h-124v67h126q60 0 98 35t38 90q0 63 -56.5 99t-130.5 36q-58 0 -104 -21t-67.5 -46.5 t-32.5 -46.5l-10 -21h-75l5 15q5 15 16.5 37.5t34 49t52.5 49t78.5 37.5t106.5 15q102 0 181 -56t79 -146q0 -108 -97 -163q44 -13 79.5 -62.5t35.5 -114.5zM481 812h-74v126h74v-126zM334 812h-74v126h74v-126z" />
<glyph unicode="&#x4df;" horiz-adv-x="400" d="M463 151q0 -71 -59.5 -117.5t-157.5 -46.5q-49 0 -89.5 17t-63.5 41t-39 48t-22 41l-5 17h67l9 -15q9 -15 25.5 -33t48.5 -33t69 -15q62 0 104.5 27.5t42.5 68.5q0 50 -38.5 77t-98.5 27h-72v73h72q42 0 69 22t27 67q0 33 -33.5 54t-72.5 21q-38 0 -66 -19t-37 -37 l-9 -19h-67l9 23q8 22 26 48.5t56 49t88 22.5q81 0 127 -40t46 -103q0 -38 -20.5 -73.5t-47.5 -46.5q46 -7 79 -51.5t33 -94.5zM357 620h-74v126h74v-126zM210 620h-74v126h74v-126z" />
<glyph unicode="&#x4e0;" horiz-adv-x="559" d="M648 210q0 -111 -76 -167t-218 -56q-60 0 -112.5 18.5t-85.5 44.5t-59 57t-37.5 52t-15.5 35h79q23 -45 87.5 -92t149.5 -47q97 0 155 36.5t58 114.5q0 67 -46.5 109t-111.5 42h-124v67h126q60 0 98 35t38 90q0 63 -56.5 99t-130.5 36q-58 0 -104 -21t-67.5 -46.5 t-32.5 -46.5l-10 -21h-75l5 15q5 15 16.5 37.5t34 49t52.5 49t78.5 37.5t106.5 15q102 0 181 -56t79 -146q0 -108 -97 -163q44 -13 79.5 -62.5t35.5 -114.5z" />
<glyph unicode="&#x4e1;" horiz-adv-x="400" d="M463 151q0 -71 -59.5 -117.5t-157.5 -46.5q-49 0 -89.5 17t-63.5 41t-39 48t-22 41l-5 17h67l9 -15q9 -15 25.5 -33t48.5 -33t69 -15q62 0 104.5 27.5t42.5 68.5q0 50 -38.5 77t-98.5 27h-72v73h72q42 0 69 22t27 67q0 33 -33.5 54t-72.5 21q-38 0 -66 -19t-37 -37 l-9 -19h-67l9 23q8 22 26 48.5t56 49t88 22.5q81 0 127 -40t46 -103q0 -38 -20.5 -73.5t-47.5 -46.5q46 -7 79 -51.5t33 -94.5z" />
<glyph unicode="&#x4e2;" d="M539 839h-337v64h337v-64zM664 0h-74v613l-414 -613h-100v739h74v-650l440 650h74v-739z" />
<glyph unicode="&#x4e3;" horiz-adv-x="608" d="M545 0h-73v445l-336 -445h-73v547h73v-445l336 445h73v-547zM476 644h-336v66h336v-66z" />
<glyph unicode="&#x4e4;" d="M481 839h-74v126h74v-126zM334 839h-74v126h74v-126zM664 0h-74v613l-414 -613h-100v739h74v-650l440 650h74v-739z" />
<glyph unicode="&#x4e5;" horiz-adv-x="608" d="M545 0h-73v445l-336 -445h-73v547h73v-445l336 445h73v-547zM416 644h-74v126h74v-126zM270 644h-74v126h74v-126z" />
<glyph unicode="&#x4e6;" horiz-adv-x="869" d="M545 839h-74v126h74v-126zM398 839h-74v126h74v-126zM825 369q0 -157 -115 -269.5t-275 -112.5q-163 0 -277 113t-114 274q0 154 116 266t275 112q161 0 275.5 -112.5t114.5 -270.5zM750 368q0 130 -93 223t-222 93q-128 0 -222 -92.5t-94 -219.5q0 -131 92.5 -224 t223.5 -93q129 0 222 92.5t93 220.5z" />
<glyph unicode="&#x4e7;" horiz-adv-x="655" d="M438 647h-74v126h74v-126zM291 647h-74v126h74v-126zM613 272q0 -123 -79 -204t-199 -81q-127 0 -210 82t-83 208q0 120 82.5 201.5t204.5 81.5q123 0 203.5 -81.5t80.5 -206.5zM538 271q0 95 -59.5 158t-149.5 63q-91 0 -151.5 -62t-60.5 -155q0 -96 61 -158t155 -62 q89 0 147 61t58 155z" />
<glyph unicode="&#x4e8;" horiz-adv-x="869" d="M825 369q0 -157 -115 -269.5t-275 -112.5q-163 0 -277 113t-114 274q0 154 116 266t275 112q161 0 275.5 -112.5t114.5 -270.5zM749 338h-628q13 -120 102.5 -201.5t211.5 -81.5q121 0 211.5 82.5t102.5 200.5zM748 402q-13 118 -103 200t-210 82t-211.5 -82.5 t-102.5 -199.5h627z" />
<glyph unicode="&#x4e9;" horiz-adv-x="655" d="M613 272q0 -123 -79 -204t-199 -81q-127 0 -210 82t-83 208q0 120 82.5 201.5t204.5 81.5q123 0 203.5 -81.5t80.5 -206.5zM536 241h-417q11 -83 69.5 -134.5t144.5 -51.5q81 0 137.5 52t65.5 134zM536 305q-11 82 -68.5 134.5t-138.5 52.5q-83 0 -141.5 -52.5 t-68.5 -134.5h417z" />
<glyph unicode="&#x4ea;" horiz-adv-x="869" d="M825 369q0 -157 -115 -269.5t-275 -112.5q-163 0 -277 113t-114 274q0 154 116 266t275 112q161 0 275.5 -112.5t114.5 -270.5zM749 338h-628q13 -120 102.5 -201.5t211.5 -81.5q121 0 211.5 82.5t102.5 200.5zM748 402q-13 118 -103 200t-210 82t-211.5 -82.5 t-102.5 -199.5h627zM545 839h-74v126h74v-126zM398 839h-74v126h74v-126z" />
<glyph unicode="&#x4eb;" horiz-adv-x="655" d="M613 272q0 -123 -79 -204t-199 -81q-127 0 -210 82t-83 208q0 120 82.5 201.5t204.5 81.5q123 0 203.5 -81.5t80.5 -206.5zM536 241h-417q11 -83 69.5 -134.5t144.5 -51.5q81 0 137.5 52t65.5 134zM536 305q-11 82 -68.5 134.5t-138.5 52.5q-83 0 -141.5 -52.5 t-68.5 -134.5h417zM438 647h-74v126h74v-126zM291 647h-74v126h74v-126z" />
<glyph unicode="&#x4ec;" horiz-adv-x="814" d="M770 367q0 -162 -111.5 -271t-276.5 -109q-226 0 -338 207h82q42 -55 74 -78q75 -61 182 -61q122 0 212.5 85t99.5 207h-428v67h426q-15 118 -101.5 194t-206.5 76q-98 0 -174 -50q-42 -28 -80 -87h-84q43 95 134.5 150t205.5 55q165 0 274.5 -109.5t109.5 -275.5z M497 812h-74v126h74v-126zM350 812h-74v126h74v-126z" />
<glyph unicode="&#x4ed;" horiz-adv-x="650" d="M608 275q0 -122 -86 -205t-212 -83q-101 0 -182 62q-48 39 -86 112h84q44 -57 87 -81.5t101 -24.5q83 0 144 53t73 132h-317v67h318q-12 81 -72.5 133t-143.5 52q-125 0 -190 -111h-82q33 83 106 131t166 48q123 0 207.5 -83t84.5 -202zM427 620h-74v126h74v-126z M280 620h-74v126h74v-126z" />
<glyph unicode="&#x4ee;" horiz-adv-x="596" d="M592 739l-258 -492l-130 -247h-81l130 247l-249 492h82l210 -414l215 414h81zM467 812h-337v64h337v-64z" />
<glyph unicode="&#x4ef;" horiz-adv-x="536" d="M437 620h-337v64h337v-64zM527 547l-316 -739h-79l89 210l-212 529h81l173 -436l185 436h79z" />
<glyph unicode="&#x4f0;" horiz-adv-x="596" d="M592 739l-258 -492l-130 -247h-81l130 247l-249 492h82l210 -414l215 414h81zM409 812h-74v126h74v-126zM262 812h-74v126h74v-126z" />
<glyph unicode="&#x4f1;" horiz-adv-x="536" d="M379 620h-74v126h74v-126zM232 620h-74v126h74v-126zM527 547l-316 -739h-79l89 210l-212 529h81l173 -436l185 436h79z" />
<glyph unicode="&#x4f2;" horiz-adv-x="596" d="M592 739l-258 -492l-130 -247h-81l130 247l-249 492h82l210 -414l215 414h81zM374 933l-174 -121l-35 47l171 123zM570 933l-174 -121l-35 47l171 123z" />
<glyph unicode="&#x4f3;" horiz-adv-x="536" d="M344 741l-174 -121l-35 47l171 123zM540 741l-174 -121l-35 47l171 123zM527 547l-316 -739h-79l89 210l-212 529h81l173 -436l185 436h79z" />
<glyph unicode="&#x4f4;" horiz-adv-x="635" d="M559 0h-74v289h-175q-137 0 -190.5 50.5t-53.5 170.5v229h74v-235q0 -52 11 -83t37 -44.5t51.5 -17t72.5 -3.5h173v383h74v-739zM423 812h-74v126h74v-126zM276 812h-74v126h74v-126z" />
<glyph unicode="&#x4f5;" horiz-adv-x="500" d="M437 0h-73v201h-174q-72 0 -114 49.5t-42 123.5v173h74v-169q0 -73 29 -92.5t115 -19.5h112v281h73v-547zM346 620h-74v126h74v-126zM199 620h-74v126h74v-126z" />
<glyph unicode="&#x4f8;" horiz-adv-x="778" d="M577 236q0 -123 -78 -179.5t-240 -56.5h-183v739h74v-265h109q163 0 240.5 -56.5t77.5 -181.5zM502 236q0 96 -61.5 133.5t-186.5 37.5h-104v-340h104q125 0 186.5 37.5t61.5 131.5zM728 0h-74v739h74v-739zM481 812h-74v126h74v-126zM334 812h-74v126h74v-126z" />
<glyph unicode="&#x4f9;" horiz-adv-x="635" d="M492 183q0 -82 -59 -132.5t-150 -50.5h-220v547h74v-178h142q93 0 153 -52t60 -134zM418 183q0 52 -39 85t-100 33h-142v-234h145q61 1 98.5 32.5t37.5 83.5zM607 0h-74v547h74v-547zM425 620h-74v126h74v-126zM278 620h-74v126h74v-126z" />
<glyph unicode="&#xe3f;" horiz-adv-x="574" d="M544 212q0 -100 -53.5 -150.5t-174.5 -59.5v-85h-55v83h-2h-183v739h173h12v83h55v-86q97 -12 141.5 -58.5t44.5 -130.5q0 -107 -82 -153q124 -50 124 -182zM469 208q0 40 -12.5 68t-30.5 43t-51 23t-61.5 10t-75.5 2h-88v-287h101q116 0 167 31.5t51 109.5zM427 546 q0 70 -39.5 98t-148.5 28h-89v-251h90q104 0 145.5 27.5t41.5 97.5z" />
<glyph unicode="&#x1e0c;" horiz-adv-x="744" d="M700 367q0 -167 -108 -267t-317 -100h-199v739h174q101 0 165.5 -13.5t116.5 -44.5q168 -99 168 -314zM625 370q0 83 -35 149.5t-99 104.5q-79 48 -238 48h-103v-605h103q98 0 160 15.5t106 50.5q106 86 106 237zM409 -186h-74v126h74v-126z" />
<glyph unicode="&#x1e0d;" horiz-adv-x="685" d="M622 0h-74v99q-41 -59 -90.5 -85.5t-117.5 -26.5q-127 0 -212.5 82t-85.5 204t83.5 204.5t207.5 82.5q132 0 215 -100v279h74v-739zM551 275q0 90 -64.5 153.5t-155.5 63.5q-89 0 -151.5 -63t-62.5 -153q0 -94 63.5 -157.5t157.5 -63.5q88 0 150.5 65t62.5 155zM380 -186 h-74v126h74v-126z" />
<glyph unicode="&#x1e0e;" horiz-adv-x="744" d="M541 -155h-337v64h337v-64zM700 367q0 -167 -108 -267t-317 -100h-199v739h174q101 0 165.5 -13.5t116.5 -44.5q168 -99 168 -314zM625 370q0 83 -35 149.5t-99 104.5q-79 48 -238 48h-103v-605h103q98 0 160 15.5t106 50.5q106 86 106 237z" />
<glyph unicode="&#x1e0f;" horiz-adv-x="685" d="M511 -155h-337v64h337v-64zM622 0h-74v99q-41 -59 -90.5 -85.5t-117.5 -26.5q-127 0 -212.5 82t-85.5 204t83.5 204.5t207.5 82.5q132 0 215 -100v279h74v-739zM551 275q0 90 -64.5 153.5t-155.5 63.5q-89 0 -151.5 -63t-62.5 -153q0 -94 63.5 -157.5t157.5 -63.5 q88 0 150.5 65t62.5 155z" />
<glyph unicode="&#x1e24;" horiz-adv-x="683" d="M607 0h-74v347h-383v-347h-74v739h74v-325h383v325h74v-739zM379 -186h-74v126h74v-126z" />
<glyph unicode="&#x1e25;" horiz-adv-x="610" d="M547 0h-74v294q0 99 -45.5 148.5t-123.5 49.5q-75 0 -121 -48t-46 -144v-300h-74v739h74v-263q58 84 174 84q110 0 173 -66.5t63 -199.5v-294zM342 -186h-74v126h74v-126z" />
<glyph unicode="&#x1e26;" horiz-adv-x="683" d="M452 789h-74v126h74v-126zM305 789h-74v126h74v-126zM607 0h-74v347h-383v-347h-74v739h74v-325h383v325h74v-739z" />
<glyph unicode="&#x1e27;" horiz-adv-x="610" d="M416 789h-74v126h74v-126zM269 789h-74v126h74v-126zM547 0h-74v294q0 99 -45.5 148.5t-123.5 49.5q-75 0 -121 -48t-46 -144v-300h-74v739h74v-263q58 84 174 84q110 0 173 -66.5t63 -199.5v-294z" />
<glyph unicode="&#x1e2a;" horiz-adv-x="683" d="M494 -63q-12 -64 -50 -92t-102 -28q-130 0 -152 120h64q10 -62 88 -62t88 62h64zM607 0h-74v347h-383v-347h-74v739h74v-325h383v325h74v-739z" />
<glyph unicode="&#x1e2b;" horiz-adv-x="610" d="M457 -63q-12 -64 -50 -92t-102 -28q-130 0 -152 120h64q10 -62 88 -62t88 62h64zM547 0h-74v294q0 99 -45.5 148.5t-123.5 49.5q-75 0 -121 -48t-46 -144v-300h-74v739h74v-263q58 84 174 84q110 0 173 -66.5t63 -199.5v-294z" />
<glyph unicode="&#x1e36;" horiz-adv-x="462" d="M456 0h-380v739h74v-672h306v-67zM303 -186h-74v126h74v-126z" />
<glyph unicode="&#x1e37;" horiz-adv-x="200" d="M137 0h-74v739h74v-739zM137 -186h-74v126h74v-126z" />
<glyph unicode="&#x1e38;" horiz-adv-x="462" d="M456 0h-380v739h74v-672h306v-67zM303 -186h-74v126h74v-126zM282 820h-337v64h337v-64z" />
<glyph unicode="&#x1e39;" horiz-adv-x="200" d="M269 820h-337v64h337v-64zM137 0h-74v739h74v-739zM137 -186h-74v126h74v-126z" />
<glyph unicode="&#x1e42;" horiz-adv-x="919" d="M843 0h-74v658l-278 -658h-64l-277 658v-658h-74v739h115l269 -629l268 629h115v-739zM497 -186h-74v126h74v-126z" />
<glyph unicode="&#x1e43;" horiz-adv-x="938" d="M875 0h-74v317q0 176 -145 176q-69 0 -109.5 -43.5t-40.5 -132.5v-317h-74v319q0 87 -40.5 130t-107.5 43q-69 0 -108 -45.5t-39 -127.5v-319h-74v547h74v-63q31 41 66.5 58.5t87.5 17.5q61 0 104 -25t75 -80q67 106 190 106q97 0 156 -60.5t59 -175.5v-325zM506 -186 h-74v126h74v-126z" />
<glyph unicode="&#x1e44;" d="M664 0h-74l-440 650v-650h-74v739h100l414 -613v613h74v-739zM407 789h-74v126h74v-126z" />
<glyph unicode="&#x1e45;" horiz-adv-x="610" d="M547 0h-74v287q0 205 -169 205q-78 0 -122.5 -47t-44.5 -144v-301h-74v547h74v-71q69 84 176 84q108 0 171 -67.5t63 -205.5v-287zM342 607h-74v126h74v-126z" />
<glyph unicode="&#x1e46;" d="M664 0h-74l-440 650v-650h-74v739h100l414 -613v613h74v-739zM407 -186h-74v126h74v-126z" />
<glyph unicode="&#x1e47;" horiz-adv-x="610" d="M547 0h-74v287q0 205 -169 205q-78 0 -122.5 -47t-44.5 -144v-301h-74v547h74v-71q69 84 176 84q108 0 171 -67.5t63 -205.5v-287zM342 -186h-74v126h74v-126z" />
<glyph unicode="&#x1e58;" horiz-adv-x="607" d="M577 501q0 -98 -56 -156t-162 -69l207 -276h-92l-249 335q158 0 217.5 35.5t59.5 133.5q0 91 -58.5 129.5t-189.5 38.5h-104v-672h-74v739h183q169 0 243.5 -59.5t74.5 -178.5zM341 789h-74v126h74v-126z" />
<glyph unicode="&#x1e59;" horiz-adv-x="301" d="M292 487q-155 -15 -155 -168v-319h-74v547h74v-78q22 45 59 66.5t96 24.5v-73zM174 607h-74v126h74v-126z" />
<glyph unicode="&#x1e5a;" horiz-adv-x="607" d="M577 501q0 -98 -56 -156t-162 -69l207 -276h-92l-249 335q158 0 217.5 35.5t59.5 133.5q0 91 -58.5 129.5t-189.5 38.5h-104v-672h-74v739h183q169 0 243.5 -59.5t74.5 -178.5zM341 -186h-74v126h74v-126z" />
<glyph unicode="&#x1e5b;" horiz-adv-x="301" d="M292 487q-155 -15 -155 -168v-319h-74v547h74v-78q22 45 59 66.5t96 24.5v-73zM137 -186h-74v126h74v-126z" />
<glyph unicode="&#x1e5c;" horiz-adv-x="607" d="M577 501q0 -98 -56 -156t-162 -69l207 -276h-92l-249 335q158 0 217.5 35.5t59.5 133.5q0 91 -58.5 129.5t-189.5 38.5h-104v-672h-74v739h183q169 0 243.5 -59.5t74.5 -178.5zM341 -186h-74v126h74v-126zM472 820h-337v64h337v-64z" />
<glyph unicode="&#x1e5d;" horiz-adv-x="301" d="M292 487q-155 -15 -155 -168v-319h-74v547h74v-78q22 45 59 66.5t96 24.5v-73zM137 -186h-74v126h74v-126zM305 651h-337v64h337v-64z" />
<glyph unicode="&#x1e62;" horiz-adv-x="498" d="M476 206q0 -94 -63.5 -156.5t-159.5 -62.5q-100 0 -163 60t-68 160h79q8 -73 49.5 -112.5t104.5 -39.5t104.5 41.5t41.5 105.5q0 61 -35 93.5t-130 61.5q-64 19 -90 31.5t-48 33.5q-52 49 -52 131q0 86 58 142.5t147 56.5q91 0 149 -55.5t58 -144.5h-77q0 59 -37.5 95.5 t-94.5 36.5q-55 0 -91.5 -36.5t-36.5 -92.5t35 -86q23 -20 109 -46q96 -29 137 -59q74 -55 74 -158zM288 -186h-74v126h74v-126z" />
<glyph unicode="&#x1e63;" horiz-adv-x="388" d="M361 157q0 -75 -46.5 -122.5t-120.5 -47.5q-79 0 -127.5 47.5t-48.5 126.5h73q0 -49 28.5 -77.5t74.5 -28.5q40 0 66 27t26 68q0 40 -21.5 60t-84.5 45q-58 23 -71.5 30t-29.5 23q-41 38 -41 98q0 67 44 110.5t111 43.5t110.5 -41.5t43.5 -106.5h-75q0 38 -21.5 59 t-58.5 21q-33 0 -56 -23t-23 -56q0 -47 50 -72q20 -10 103 -44q95 -40 95 -140zM230 -186h-74v126h74v-126z" />
<glyph unicode="&#x1e6c;" horiz-adv-x="426" d="M419 672h-169v-672h-74v672h-169v67h412v-67zM250 -186h-74v126h74v-126z" />
<glyph unicode="&#x1e6d;" horiz-adv-x="339" d="M327 480h-123v-480h-74v480h-118v67h118v192h74v-192h123v-67zM204 -186h-74v126h74v-126z" />
<glyph unicode="&#x1e6e;" horiz-adv-x="426" d="M382 -155h-337v64h337v-64zM419 672h-169v-672h-74v672h-169v67h412v-67z" />
<glyph unicode="&#x1e6f;" horiz-adv-x="339" d="M336 -155h-337v64h337v-64zM327 480h-123v-480h-74v480h-118v67h118v192h74v-192h123v-67z" />
<glyph unicode="&#x1e80;" horiz-adv-x="960" d="M556 832l-34 -56l-193 114l34 58zM950 739l-212 -739h-95l-164 606l-162 -606h-96l-211 739h76l182 -643l177 643h70l177 -643l182 643h76z" />
<glyph unicode="&#x1e81;" horiz-adv-x="831" d="M824 547l-212 -547h-79l-119 363l-118 -363h-80l-209 547h74l174 -458l129 391h61l129 -391l178 458h72zM490 650l-34 -56l-193 114l34 58z" />
<glyph unicode="&#x1e82;" horiz-adv-x="960" d="M631 890l-193 -114l-34 56l193 116zM950 739l-212 -739h-95l-164 606l-162 -606h-96l-211 739h76l182 -643l177 643h70l177 -643l182 643h76z" />
<glyph unicode="&#x1e83;" horiz-adv-x="831" d="M566 708l-193 -114l-34 56l193 116zM824 547l-212 -547h-79l-119 363l-118 -363h-80l-209 547h74l174 -458l129 391h61l129 -391l178 458h72z" />
<glyph unicode="&#x1e84;" horiz-adv-x="960" d="M591 789h-74v126h74v-126zM444 789h-74v126h74v-126zM950 739l-212 -739h-95l-164 606l-162 -606h-96l-211 739h76l182 -643l177 643h70l177 -643l182 643h76z" />
<glyph unicode="&#x1e85;" horiz-adv-x="831" d="M525 607h-74v126h74v-126zM378 607h-74v126h74v-126zM824 547l-212 -547h-79l-119 363l-118 -363h-80l-209 547h74l174 -458l129 391h61l129 -391l178 458h72z" />
<glyph unicode="&#x1e92;" horiz-adv-x="480" d="M474 0h-457v67l363 605h-352v67h435v-67l-362 -605h373v-67zM283 -186h-74v126h74v-126z" />
<glyph unicode="&#x1e93;" horiz-adv-x="425" d="M415 0h-405v67l302 413h-292v67h376v-63l-299 -417h318v-67zM245 -186h-74v126h74v-126z" />
<glyph unicode="&#x1e97;" horiz-adv-x="339" d="M278 789h-74v126h74v-126zM131 789h-74v126h74v-126zM327 480h-123v-480h-74v480h-118v67h118v192h74v-192h123v-67z" />
<glyph unicode="&#x1ea0;" d="M729 0h-81l-107 249h-344l-108 -249h-78l317 739h83zM512 316l-142 339l-145 -339h287zM407 -186h-74v126h74v-126z" />
<glyph unicode="&#x1ea1;" horiz-adv-x="683" d="M620 0h-74v96q-44 -59 -92.5 -84t-118.5 -25q-126 0 -209.5 81.5t-83.5 203.5q0 123 82.5 205.5t205.5 82.5q138 0 216 -110v97h74v-547zM546 276q0 91 -62 153.5t-152 62.5q-89 0 -152 -63t-63 -152q0 -94 63 -158t156 -64q88 0 149 64t61 157zM367 -186h-74v126h74 v-126z" />
<glyph unicode="&#x1ea2;" d="M471 901q0 -36 -39 -64q-33 -21 -34 -55h-53q1 55 44 89q28 20 28 31q0 13 -12.5 21.5t-32.5 8.5q-29 0 -43 -17v1q-4 -8 -8 -37h-52q3 103 103 103q43 0 71 -23t28 -58zM729 0h-81l-107 249h-344l-108 -249h-78l317 739h83zM512 316l-142 339l-145 -339h287z" />
<glyph unicode="&#x1ea3;" horiz-adv-x="683" d="M431 709q0 -36 -39 -64q-33 -21 -34 -55h-53q1 55 44 89q28 20 28 31q0 13 -12.5 21.5t-32.5 8.5q-29 0 -43 -17v1q-4 -8 -8 -37h-52q3 103 103 103q43 0 71 -23t28 -58zM620 0h-74v96q-44 -59 -92.5 -84t-118.5 -25q-126 0 -209.5 81.5t-83.5 203.5q0 123 82.5 205.5 t205.5 82.5q138 0 216 -110v97h74v-547zM546 276q0 91 -62 153.5t-152 62.5q-89 0 -152 -63t-63 -152q0 -94 63 -158t156 -64q88 0 149 64t61 157z" />
<glyph unicode="&#x1ea4;" d="M547 789h-89l-86 74l-88 -74h-91l145 126h66zM729 0h-81l-107 249h-344l-108 -249h-78l317 739h83zM512 316l-142 339l-145 -339h287zM521 1049l-193 -114l-34 56l193 116z" />
<glyph unicode="&#x1ea5;" horiz-adv-x="683" d="M507 597h-89l-86 74l-88 -74h-91l145 126h66zM481 857l-193 -114l-34 56l193 116zM620 0h-74v96q-44 -59 -92.5 -84t-118.5 -25q-126 0 -209.5 81.5t-83.5 203.5q0 123 82.5 205.5t205.5 82.5q138 0 216 -110v97h74v-547zM546 276q0 91 -62 153.5t-152 62.5 q-89 0 -152 -63t-63 -152q0 -94 63 -158t156 -64q88 0 149 64t61 157z" />
<glyph unicode="&#x1ea6;" d="M547 789h-89l-86 74l-88 -74h-91l145 126h66zM729 0h-81l-107 249h-344l-108 -249h-78l317 739h83zM512 316l-142 339l-145 -339h287zM446 991l-34 -56l-193 114l34 58z" />
<glyph unicode="&#x1ea7;" horiz-adv-x="683" d="M507 597h-89l-86 74l-88 -74h-91l145 126h66zM406 799l-34 -56l-193 114l34 58zM620 0h-74v96q-44 -59 -92.5 -84t-118.5 -25q-126 0 -209.5 81.5t-83.5 203.5q0 123 82.5 205.5t205.5 82.5q138 0 216 -110v97h74v-547zM546 276q0 91 -62 153.5t-152 62.5q-89 0 -152 -63 t-63 -152q0 -94 63 -158t156 -64q88 0 149 64t61 157z" />
<glyph unicode="&#x1ea8;" d="M547 1066q0 -36 -39 -64q-33 -21 -34 -55h-53q1 55 44 89q28 20 28 31q0 13 -12.5 21.5t-32.5 8.5q-29 0 -43 -17v1q-4 -8 -8 -37h-52q3 103 103 103q43 0 71 -23t28 -58zM547 789h-89l-86 74l-88 -74h-91l145 126h66zM729 0h-81l-107 249h-344l-108 -249h-78l317 739h83 zM512 316l-142 339l-145 -339h287z" />
<glyph unicode="&#x1ea9;" horiz-adv-x="683" d="M507 874q0 -36 -39 -64q-33 -21 -34 -55h-53q1 55 44 89q28 20 28 31q0 13 -12.5 21.5t-32.5 8.5q-29 0 -43 -17v1q-4 -8 -8 -37h-52q3 103 103 103q43 0 71 -23t28 -58zM507 597h-89l-86 74l-88 -74h-91l145 126h66zM620 0h-74v96q-44 -59 -92.5 -84t-118.5 -25 q-126 0 -209.5 81.5t-83.5 203.5q0 123 82.5 205.5t205.5 82.5q138 0 216 -110v97h74v-547zM546 276q0 91 -62 153.5t-152 62.5q-89 0 -152 -63t-63 -152q0 -94 63 -158t156 -64q88 0 149 64t61 157z" />
<glyph unicode="&#x1eaa;" d="M516 994q-12 -20 -39 -34.5t-52 -14.5q-21 0 -66 22q-23 10 -40 10q-14 0 -23.5 -4.5t-29.5 -21.5l-7 -6l-33 46q38 49 93 49q9 0 50.5 -15.5t56.5 -15.5q27 0 57 31zM547 789h-89l-86 74l-88 -74h-91l145 126h66zM729 0h-81l-107 249h-344l-108 -249h-78l317 739h83z M512 316l-142 339l-145 -339h287z" />
<glyph unicode="&#x1eab;" horiz-adv-x="683" d="M476 802q-12 -20 -39 -34.5t-52 -14.5q-21 0 -66 22q-23 10 -40 10q-14 0 -23.5 -4.5t-29.5 -21.5l-7 -6l-33 46q38 49 93 49q9 0 50.5 -15.5t56.5 -15.5q27 0 57 31zM507 597h-89l-86 74l-88 -74h-91l145 126h66zM620 0h-74v96q-44 -59 -92.5 -84t-118.5 -25 q-126 0 -209.5 81.5t-83.5 203.5q0 123 82.5 205.5t205.5 82.5q138 0 216 -110v97h74v-547zM546 276q0 91 -62 153.5t-152 62.5q-89 0 -152 -63t-63 -152q0 -94 63 -158t156 -64q88 0 149 64t61 157z" />
<glyph unicode="&#x1eac;" d="M547 789h-89l-86 74l-88 -74h-91l145 126h66zM729 0h-81l-107 249h-344l-108 -249h-78l317 739h83zM512 316l-142 339l-145 -339h287zM407 -186h-74v126h74v-126z" />
<glyph unicode="&#x1ead;" horiz-adv-x="683" d="M507 607h-89l-86 74l-88 -74h-91l145 126h66zM620 0h-74v96q-44 -59 -92.5 -84t-118.5 -25q-126 0 -209.5 81.5t-83.5 203.5q0 123 82.5 205.5t205.5 82.5q138 0 216 -110v97h74v-547zM546 276q0 91 -62 153.5t-152 62.5q-89 0 -152 -63t-63 -152q0 -94 63 -158t156 -64 q88 0 149 64t61 157zM367 -186h-74v126h74v-126z" />
<glyph unicode="&#x1eae;" d="M522 912q-12 -64 -50 -92t-102 -28q-130 0 -152 120h64q10 -62 88 -62t88 62h64zM729 0h-81l-107 249h-344l-108 -249h-78l317 739h83zM512 316l-142 339l-145 -339h287zM540 1058l-193 -114l-34 56l193 116z" />
<glyph unicode="&#x1eaf;" horiz-adv-x="683" d="M483 720q-12 -64 -50 -92t-102 -28q-130 0 -152 120h64q10 -62 88 -62t88 62h64zM501 866l-193 -114l-34 56l193 116zM620 0h-74v96q-44 -59 -92.5 -84t-118.5 -25q-126 0 -209.5 81.5t-83.5 203.5q0 123 82.5 205.5t205.5 82.5q138 0 216 -110v97h74v-547zM546 276 q0 91 -62 153.5t-152 62.5q-89 0 -152 -63t-63 -152q0 -94 63 -158t156 -64q88 0 149 64t61 157z" />
<glyph unicode="&#x1eb0;" d="M522 912q-12 -64 -50 -92t-102 -28q-130 0 -152 120h64q10 -62 88 -62t88 62h64zM729 0h-81l-107 249h-344l-108 -249h-78l317 739h83zM512 316l-142 339l-145 -339h287zM425 1000l-34 -56l-193 114l34 58z" />
<glyph unicode="&#x1eb1;" horiz-adv-x="683" d="M483 720q-12 -64 -50 -92t-102 -28q-130 0 -152 120h64q10 -62 88 -62t88 62h64zM386 808l-34 -56l-193 114l34 58zM620 0h-74v96q-44 -59 -92.5 -84t-118.5 -25q-126 0 -209.5 81.5t-83.5 203.5q0 123 82.5 205.5t205.5 82.5q138 0 216 -110v97h74v-547zM546 276 q0 91 -62 153.5t-152 62.5q-89 0 -152 -63t-63 -152q0 -94 63 -158t156 -64q88 0 149 64t61 157z" />
<glyph unicode="&#x1eb2;" d="M471 1018q0 -36 -39 -64q-33 -21 -34 -55h-53q1 55 44 89q28 20 28 31q0 13 -12.5 21.5t-32.5 8.5q-29 0 -43 -17v1q-4 -8 -8 -37h-52q3 103 103 103q43 0 71 -23t28 -58zM522 912q-12 -64 -50 -92t-102 -28q-130 0 -152 120h64q10 -62 88 -62t88 62h64zM729 0h-81 l-107 249h-344l-108 -249h-78l317 739h83zM512 316l-142 339l-145 -339h287z" />
<glyph unicode="&#x1eb3;" horiz-adv-x="683" d="M432 826q0 -36 -39 -64q-33 -21 -34 -55h-53q1 55 44 89q28 20 28 31q0 13 -12.5 21.5t-32.5 8.5q-29 0 -43 -17v1q-4 -8 -8 -37h-52q3 103 103 103q43 0 71 -23t28 -58zM483 720q-12 -64 -50 -92t-102 -28q-130 0 -152 120h64q10 -62 88 -62t88 62h64zM620 0h-74v96 q-44 -59 -92.5 -84t-118.5 -25q-126 0 -209.5 81.5t-83.5 203.5q0 123 82.5 205.5t205.5 82.5q138 0 216 -110v97h74v-547zM546 276q0 91 -62 153.5t-152 62.5q-89 0 -152 -63t-63 -152q0 -94 63 -158t156 -64q88 0 149 64t61 157z" />
<glyph unicode="&#x1eb4;" d="M515 1003q-12 -20 -39 -34.5t-52 -14.5q-21 0 -66 22q-23 10 -40 10q-14 0 -23.5 -4.5t-29.5 -21.5l-7 -6l-33 46q38 49 93 49q9 0 50.5 -15.5t56.5 -15.5q27 0 57 31zM522 912q-12 -64 -50 -92t-102 -28q-130 0 -152 120h64q10 -62 88 -62t88 62h64zM729 0h-81l-107 249 h-344l-108 -249h-78l317 739h83zM512 316l-142 339l-145 -339h287z" />
<glyph unicode="&#x1eb5;" horiz-adv-x="683" d="M476 811q-12 -20 -39 -34.5t-52 -14.5q-21 0 -66 22q-23 10 -40 10q-14 0 -23.5 -4.5t-29.5 -21.5l-7 -6l-33 46q38 49 93 49q9 0 50.5 -15.5t56.5 -15.5q27 0 57 31zM483 720q-12 -64 -50 -92t-102 -28q-130 0 -152 120h64q10 -62 88 -62t88 62h64zM620 0h-74v96 q-44 -59 -92.5 -84t-118.5 -25q-126 0 -209.5 81.5t-83.5 203.5q0 123 82.5 205.5t205.5 82.5q138 0 216 -110v97h74v-547zM546 276q0 91 -62 153.5t-152 62.5q-89 0 -152 -63t-63 -152q0 -94 63 -158t156 -64q88 0 149 64t61 157z" />
<glyph unicode="&#x1eb6;" d="M522 912q-12 -64 -50 -92t-102 -28q-130 0 -152 120h64q10 -62 88 -62t88 62h64zM729 0h-81l-107 249h-344l-108 -249h-78l317 739h83zM512 316l-142 339l-145 -339h287zM407 -186h-74v126h74v-126z" />
<glyph unicode="&#x1eb7;" horiz-adv-x="683" d="M481 730q-12 -64 -50 -92t-102 -28q-130 0 -152 120h64q10 -62 88 -62t88 62h64zM620 0h-74v96q-44 -59 -92.5 -84t-118.5 -25q-126 0 -209.5 81.5t-83.5 203.5q0 123 82.5 205.5t205.5 82.5q138 0 216 -110v97h74v-547zM546 276q0 91 -62 153.5t-152 62.5 q-89 0 -152 -63t-63 -152q0 -94 63 -158t156 -64q88 0 149 64t61 157zM367 -186h-74v126h74v-126z" />
<glyph unicode="&#x1eb8;" horiz-adv-x="536" d="M480 0h-404v739h404v-67h-330v-265h319v-67h-319v-273h330v-67zM305 -186h-74v126h74v-126z" />
<glyph unicode="&#x1eb9;" horiz-adv-x="650" d="M611 249h-495q4 -81 66.5 -137.5t146.5 -56.5q62 0 115 34.5t76 90.5h77q-27 -81 -101.5 -137t-164.5 -56q-121 0 -205 83.5t-84 205.5q0 119 82.5 201.5t201.5 82.5q124 0 204.5 -84.5t80.5 -226.5zM537 316q-19 82 -75.5 129t-136.5 47q-78 0 -135 -48.5t-72 -127.5 h419zM363 -186h-74v126h74v-126z" />
<glyph unicode="&#x1eba;" horiz-adv-x="536" d="M379 901q0 -36 -39 -64q-33 -21 -34 -55h-53q1 55 44 89q28 20 28 31q0 13 -12.5 21.5t-32.5 8.5q-29 0 -43 -17v1q-4 -8 -8 -37h-52q3 103 103 103q43 0 71 -23t28 -58zM480 0h-404v739h404v-67h-330v-265h319v-67h-319v-273h330v-67z" />
<glyph unicode="&#x1ebb;" horiz-adv-x="650" d="M427 709q0 -36 -39 -64q-33 -21 -34 -55h-53q1 55 44 89q28 20 28 31q0 13 -12.5 21.5t-32.5 8.5q-29 0 -43 -17v1q-4 -8 -8 -37h-52q3 103 103 103q43 0 71 -23t28 -58zM611 249h-495q4 -81 66.5 -137.5t146.5 -56.5q62 0 115 34.5t76 90.5h77q-27 -81 -101.5 -137 t-164.5 -56q-121 0 -205 83.5t-84 205.5q0 119 82.5 201.5t201.5 82.5q124 0 204.5 -84.5t80.5 -226.5zM537 316q-19 82 -75.5 129t-136.5 47q-78 0 -135 -48.5t-72 -127.5h419z" />
<glyph unicode="&#x1ebc;" horiz-adv-x="536" d="M424 854q-12 -20 -39 -34.5t-52 -14.5q-21 0 -66 22q-23 10 -40 10q-14 0 -23.5 -4.5t-29.5 -21.5l-7 -6l-33 46q38 49 93 49q9 0 50.5 -15.5t56.5 -15.5q27 0 57 31zM480 0h-404v739h404v-67h-330v-265h319v-67h-319v-273h330v-67z" />
<glyph unicode="&#x1ebd;" horiz-adv-x="650" d="M471 672q-12 -20 -39 -34.5t-52 -14.5q-21 0 -66 22q-23 10 -40 10q-14 0 -23.5 -4.5t-29.5 -21.5l-7 -6l-33 46q38 49 93 49q9 0 50.5 -15.5t56.5 -15.5q27 0 57 31zM611 249h-495q4 -81 66.5 -137.5t146.5 -56.5q62 0 115 34.5t76 90.5h77q-27 -81 -101.5 -137 t-164.5 -56q-121 0 -205 83.5t-84 205.5q0 119 82.5 201.5t201.5 82.5q124 0 204.5 -84.5t80.5 -226.5zM537 316q-19 82 -75.5 129t-136.5 47q-78 0 -135 -48.5t-72 -127.5h419z" />
<glyph unicode="&#x1ebe;" horiz-adv-x="536" d="M455 789h-89l-86 74l-88 -74h-91l145 126h66zM480 0h-404v739h404v-67h-330v-265h319v-67h-319v-273h330v-67zM429 1049l-193 -114l-34 56l193 116z" />
<glyph unicode="&#x1ebf;" horiz-adv-x="650" d="M503 597h-89l-86 74l-88 -74h-91l145 126h66zM477 857l-193 -114l-34 56l193 116zM611 249h-495q4 -81 66.5 -137.5t146.5 -56.5q62 0 115 34.5t76 90.5h77q-27 -81 -101.5 -137t-164.5 -56q-121 0 -205 83.5t-84 205.5q0 119 82.5 201.5t201.5 82.5q124 0 204.5 -84.5 t80.5 -226.5zM537 316q-19 82 -75.5 129t-136.5 47q-78 0 -135 -48.5t-72 -127.5h419z" />
<glyph unicode="&#x1ec0;" horiz-adv-x="536" d="M455 789h-89l-86 74l-88 -74h-91l145 126h66zM480 0h-404v739h404v-67h-330v-265h319v-67h-319v-273h330v-67zM354 991l-34 -56l-193 114l34 58z" />
<glyph unicode="&#x1ec1;" horiz-adv-x="650" d="M503 597h-89l-86 74l-88 -74h-91l145 126h66zM402 799l-34 -56l-193 114l34 58zM611 249h-495q4 -81 66.5 -137.5t146.5 -56.5q62 0 115 34.5t76 90.5h77q-27 -81 -101.5 -137t-164.5 -56q-121 0 -205 83.5t-84 205.5q0 119 82.5 201.5t201.5 82.5q124 0 204.5 -84.5 t80.5 -226.5zM537 316q-19 82 -75.5 129t-136.5 47q-78 0 -135 -48.5t-72 -127.5h419z" />
<glyph unicode="&#x1ec2;" horiz-adv-x="536" d="M455 1066q0 -36 -39 -64q-33 -21 -34 -55h-53q1 55 44 89q28 20 28 31q0 13 -12.5 21.5t-32.5 8.5q-29 0 -43 -17v1q-4 -8 -8 -37h-52q3 103 103 103q43 0 71 -23t28 -58zM455 789h-89l-86 74l-88 -74h-91l145 126h66zM480 0h-404v739h404v-67h-330v-265h319v-67h-319 v-273h330v-67z" />
<glyph unicode="&#x1ec3;" horiz-adv-x="650" d="M503 874q0 -36 -39 -64q-33 -21 -34 -55h-53q1 55 44 89q28 20 28 31q0 13 -12.5 21.5t-32.5 8.5q-29 0 -43 -17v1q-4 -8 -8 -37h-52q3 103 103 103q43 0 71 -23t28 -58zM503 597h-89l-86 74l-88 -74h-91l145 126h66zM611 249h-495q4 -81 66.5 -137.5t146.5 -56.5 q62 0 115 34.5t76 90.5h77q-27 -81 -101.5 -137t-164.5 -56q-121 0 -205 83.5t-84 205.5q0 119 82.5 201.5t201.5 82.5q124 0 204.5 -84.5t80.5 -226.5zM537 316q-19 82 -75.5 129t-136.5 47q-78 0 -135 -48.5t-72 -127.5h419z" />
<glyph unicode="&#x1ec4;" horiz-adv-x="536" d="M424 994q-12 -20 -39 -34.5t-52 -14.5q-21 0 -66 22q-23 10 -40 10q-14 0 -23.5 -4.5t-29.5 -21.5l-7 -6l-33 46q38 49 93 49q9 0 50.5 -15.5t56.5 -15.5q27 0 57 31zM455 789h-89l-86 74l-88 -74h-91l145 126h66zM480 0h-404v739h404v-67h-330v-265h319v-67h-319v-273 h330v-67z" />
<glyph unicode="&#x1ec5;" horiz-adv-x="650" d="M472 802q-12 -20 -39 -34.5t-52 -14.5q-21 0 -66 22q-23 10 -40 10q-14 0 -23.5 -4.5t-29.5 -21.5l-7 -6l-33 46q38 49 93 49q9 0 50.5 -15.5t56.5 -15.5q27 0 57 31zM503 597h-89l-86 74l-88 -74h-91l145 126h66zM611 249h-495q4 -81 66.5 -137.5t146.5 -56.5 q62 0 115 34.5t76 90.5h77q-27 -81 -101.5 -137t-164.5 -56q-121 0 -205 83.5t-84 205.5q0 119 82.5 201.5t201.5 82.5q124 0 204.5 -84.5t80.5 -226.5zM537 316q-19 82 -75.5 129t-136.5 47q-78 0 -135 -48.5t-72 -127.5h419z" />
<glyph unicode="&#x1ec6;" horiz-adv-x="536" d="M455 789h-89l-86 74l-88 -74h-91l145 126h66zM480 0h-404v739h404v-67h-330v-265h319v-67h-319v-273h330v-67zM305 -186h-74v126h74v-126z" />
<glyph unicode="&#x1ec7;" horiz-adv-x="650" d="M503 607h-89l-86 74l-88 -74h-91l145 126h66zM611 249h-495q4 -81 66.5 -137.5t146.5 -56.5q62 0 115 34.5t76 90.5h77q-27 -81 -101.5 -137t-164.5 -56q-121 0 -205 83.5t-84 205.5q0 119 82.5 201.5t201.5 82.5q124 0 204.5 -84.5t80.5 -226.5zM537 316 q-19 82 -75.5 129t-136.5 47q-78 0 -135 -48.5t-72 -127.5h419zM363 -186h-74v126h74v-126z" />
<glyph unicode="&#x1ec8;" horiz-adv-x="226" d="M214 901q0 -36 -39 -64q-33 -21 -34 -55h-53q1 55 44 89q28 20 28 31q0 13 -12.5 21.5t-32.5 8.5q-29 0 -43 -17v1q-4 -8 -8 -37h-52q3 103 103 103q43 0 71 -23t28 -58zM150 0h-74v739h74v-739z" />
<glyph unicode="&#x1ec9;" horiz-adv-x="200" d="M201 709q0 -36 -39 -64q-33 -21 -34 -55h-53q1 55 44 89q28 20 28 31q0 13 -12.5 21.5t-32.5 8.5q-29 0 -43 -17v1q-4 -8 -8 -37h-52q3 103 103 103q43 0 71 -23t28 -58zM137 0h-74v547h74v-547z" />
<glyph unicode="&#x1eca;" horiz-adv-x="226" d="M150 0h-74v739h74v-739zM150 -186h-74v126h74v-126z" />
<glyph unicode="&#x1ecb;" horiz-adv-x="200" d="M137 0h-74v547h74v-547zM137 -186h-74v126h74v-126zM137 607h-74v126h74v-126z" />
<glyph unicode="&#x1ecc;" horiz-adv-x="869" d="M825 369q0 -157 -115 -269.5t-275 -112.5q-163 0 -277 113t-114 274q0 154 116 266t275 112q161 0 275.5 -112.5t114.5 -270.5zM750 368q0 130 -93 223t-222 93q-128 0 -222 -92.5t-94 -219.5q0 -131 92.5 -224t223.5 -93q129 0 222 92.5t93 220.5zM472 -186h-74v126h74 v-126z" />
<glyph unicode="&#x1ecd;" horiz-adv-x="655" d="M613 272q0 -123 -79 -204t-199 -81q-127 0 -210 82t-83 208q0 120 82.5 201.5t204.5 81.5q123 0 203.5 -81.5t80.5 -206.5zM538 271q0 95 -59.5 158t-149.5 63q-91 0 -151.5 -62t-60.5 -155q0 -96 61 -158t155 -62q89 0 147 61t58 155zM366 -186h-74v126h74v-126z" />
<glyph unicode="&#x1ece;" horiz-adv-x="869" d="M536 901q0 -36 -39 -64q-33 -21 -34 -55h-53q1 55 44 89q28 20 28 31q0 13 -12.5 21.5t-32.5 8.5q-29 0 -43 -17v1q-4 -8 -8 -37h-52q3 103 103 103q43 0 71 -23t28 -58zM825 369q0 -157 -115 -269.5t-275 -112.5q-163 0 -277 113t-114 274q0 154 116 266t275 112 q161 0 275.5 -112.5t114.5 -270.5zM750 368q0 130 -93 223t-222 93q-128 0 -222 -92.5t-94 -219.5q0 -131 92.5 -224t223.5 -93q129 0 222 92.5t93 220.5z" />
<glyph unicode="&#x1ecf;" horiz-adv-x="655" d="M430 709q0 -36 -39 -64q-33 -21 -34 -55h-53q1 55 44 89q28 20 28 31q0 13 -12.5 21.5t-32.5 8.5q-29 0 -43 -17v1q-4 -8 -8 -37h-52q3 103 103 103q43 0 71 -23t28 -58zM613 272q0 -123 -79 -204t-199 -81q-127 0 -210 82t-83 208q0 120 82.5 201.5t204.5 81.5 q123 0 203.5 -81.5t80.5 -206.5zM538 271q0 95 -59.5 158t-149.5 63q-91 0 -151.5 -62t-60.5 -155q0 -96 61 -158t155 -62q89 0 147 61t58 155z" />
<glyph unicode="&#x1ed0;" horiz-adv-x="869" d="M612 789h-89l-86 74l-88 -74h-91l145 126h66zM825 369q0 -157 -115 -269.5t-275 -112.5q-163 0 -277 113t-114 274q0 154 116 266t275 112q161 0 275.5 -112.5t114.5 -270.5zM750 368q0 130 -93 223t-222 93q-128 0 -222 -92.5t-94 -219.5q0 -131 92.5 -224t223.5 -93 q129 0 222 92.5t93 220.5zM586 1049l-193 -114l-34 56l193 116z" />
<glyph unicode="&#x1ed1;" horiz-adv-x="655" d="M506 597h-89l-86 74l-88 -74h-91l145 126h66zM480 857l-193 -114l-34 56l193 116zM613 272q0 -123 -79 -204t-199 -81q-127 0 -210 82t-83 208q0 120 82.5 201.5t204.5 81.5q123 0 203.5 -81.5t80.5 -206.5zM538 271q0 95 -59.5 158t-149.5 63q-91 0 -151.5 -62 t-60.5 -155q0 -96 61 -158t155 -62q89 0 147 61t58 155z" />
<glyph unicode="&#x1ed2;" horiz-adv-x="869" d="M612 789h-89l-86 74l-88 -74h-91l145 126h66zM825 369q0 -157 -115 -269.5t-275 -112.5q-163 0 -277 113t-114 274q0 154 116 266t275 112q161 0 275.5 -112.5t114.5 -270.5zM750 368q0 130 -93 223t-222 93q-128 0 -222 -92.5t-94 -219.5q0 -131 92.5 -224t223.5 -93 q129 0 222 92.5t93 220.5zM511 991l-34 -56l-193 114l34 58z" />
<glyph unicode="&#x1ed3;" horiz-adv-x="655" d="M506 597h-89l-86 74l-88 -74h-91l145 126h66zM405 799l-34 -56l-193 114l34 58zM613 272q0 -123 -79 -204t-199 -81q-127 0 -210 82t-83 208q0 120 82.5 201.5t204.5 81.5q123 0 203.5 -81.5t80.5 -206.5zM538 271q0 95 -59.5 158t-149.5 63q-91 0 -151.5 -62t-60.5 -155 q0 -96 61 -158t155 -62q89 0 147 61t58 155z" />
<glyph unicode="&#x1ed4;" horiz-adv-x="869" d="M612 1066q0 -36 -39 -64q-33 -21 -34 -55h-53q1 55 44 89q28 20 28 31q0 13 -12.5 21.5t-32.5 8.5q-29 0 -43 -17v1q-4 -8 -8 -37h-52q3 103 103 103q43 0 71 -23t28 -58zM612 789h-89l-86 74l-88 -74h-91l145 126h66zM825 369q0 -157 -115 -269.5t-275 -112.5 q-163 0 -277 113t-114 274q0 154 116 266t275 112q161 0 275.5 -112.5t114.5 -270.5zM750 368q0 130 -93 223t-222 93q-128 0 -222 -92.5t-94 -219.5q0 -131 92.5 -224t223.5 -93q129 0 222 92.5t93 220.5z" />
<glyph unicode="&#x1ed5;" horiz-adv-x="655" d="M506 874q0 -36 -39 -64q-33 -21 -34 -55h-53q1 55 44 89q28 20 28 31q0 13 -12.5 21.5t-32.5 8.5q-29 0 -43 -17v1q-4 -8 -8 -37h-52q3 103 103 103q43 0 71 -23t28 -58zM506 597h-89l-86 74l-88 -74h-91l145 126h66zM613 272q0 -123 -79 -204t-199 -81q-127 0 -210 82 t-83 208q0 120 82.5 201.5t204.5 81.5q123 0 203.5 -81.5t80.5 -206.5zM538 271q0 95 -59.5 158t-149.5 63q-91 0 -151.5 -62t-60.5 -155q0 -96 61 -158t155 -62q89 0 147 61t58 155z" />
<glyph unicode="&#x1ed6;" horiz-adv-x="869" d="M581 994q-12 -20 -39 -34.5t-52 -14.5q-21 0 -66 22q-23 10 -40 10q-14 0 -23.5 -4.5t-29.5 -21.5l-7 -6l-33 46q38 49 93 49q9 0 50.5 -15.5t56.5 -15.5q27 0 57 31zM612 789h-89l-86 74l-88 -74h-91l145 126h66zM825 369q0 -157 -115 -269.5t-275 -112.5 q-163 0 -277 113t-114 274q0 154 116 266t275 112q161 0 275.5 -112.5t114.5 -270.5zM750 368q0 130 -93 223t-222 93q-128 0 -222 -92.5t-94 -219.5q0 -131 92.5 -224t223.5 -93q129 0 222 92.5t93 220.5z" />
<glyph unicode="&#x1ed7;" horiz-adv-x="655" d="M475 802q-12 -20 -39 -34.5t-52 -14.5q-21 0 -66 22q-23 10 -40 10q-14 0 -23.5 -4.5t-29.5 -21.5l-7 -6l-33 46q38 49 93 49q9 0 50.5 -15.5t56.5 -15.5q27 0 57 31zM506 597h-89l-86 74l-88 -74h-91l145 126h66zM613 272q0 -123 -79 -204t-199 -81q-127 0 -210 82 t-83 208q0 120 82.5 201.5t204.5 81.5q123 0 203.5 -81.5t80.5 -206.5zM538 271q0 95 -59.5 158t-149.5 63q-91 0 -151.5 -62t-60.5 -155q0 -96 61 -158t155 -62q89 0 147 61t58 155z" />
<glyph unicode="&#x1ed8;" horiz-adv-x="869" d="M612 789h-89l-86 74l-88 -74h-91l145 126h66zM825 369q0 -157 -115 -269.5t-275 -112.5q-163 0 -277 113t-114 274q0 154 116 266t275 112q161 0 275.5 -112.5t114.5 -270.5zM750 368q0 130 -93 223t-222 93q-128 0 -222 -92.5t-94 -219.5q0 -131 92.5 -224t223.5 -93 q129 0 222 92.5t93 220.5zM472 -186h-74v126h74v-126z" />
<glyph unicode="&#x1ed9;" horiz-adv-x="655" d="M506 607h-89l-86 74l-88 -74h-91l145 126h66zM613 272q0 -123 -79 -204t-199 -81q-127 0 -210 82t-83 208q0 120 82.5 201.5t204.5 81.5q123 0 203.5 -81.5t80.5 -206.5zM538 271q0 95 -59.5 158t-149.5 63q-91 0 -151.5 -62t-60.5 -155q0 -96 61 -158t155 -62 q89 0 147 61t58 155zM366 -186h-74v126h74v-126z" />
<glyph unicode="&#x1eda;" horiz-adv-x="869" d="M825 369q0 -157 -115 -269.5t-275 -112.5q-163 0 -277 113t-114 274q0 154 116 266t275 112q162 0 278 -116q45 41 45 103h64q0 -98 -66 -154q69 -99 69 -216zM750 368q0 130 -93 223t-222 93q-128 0 -222 -92.5t-94 -219.5q0 -131 92.5 -224t223.5 -93q129 0 222 92.5 t93 220.5zM586 890l-193 -114l-34 56l193 116z" />
<glyph unicode="&#x1edb;" horiz-adv-x="676" d="M654 547q0 -96 -65 -154q24 -58 24 -121q0 -123 -79 -204t-199 -81q-127 0 -210 82t-83 208q0 120 82.5 201.5t204.5 81.5q70 0 128.5 -28.5t96.5 -78.5q36 38 36 94h64zM538 271q0 95 -59.5 158t-149.5 63q-91 0 -151.5 -62t-60.5 -155q0 -96 61 -158t155 -62 q89 0 147 61t58 155zM480 708l-193 -114l-34 56l193 116z" />
<glyph unicode="&#x1edc;" horiz-adv-x="869" d="M825 369q0 -157 -115 -269.5t-275 -112.5q-163 0 -277 113t-114 274q0 154 116 266t275 112q162 0 278 -116q45 41 45 103h64q0 -98 -66 -154q69 -99 69 -216zM750 368q0 130 -93 223t-222 93q-128 0 -222 -92.5t-94 -219.5q0 -131 92.5 -224t223.5 -93q129 0 222 92.5 t93 220.5zM511 832l-34 -56l-193 114l34 58z" />
<glyph unicode="&#x1edd;" horiz-adv-x="676" d="M654 547q0 -96 -65 -154q24 -58 24 -121q0 -123 -79 -204t-199 -81q-127 0 -210 82t-83 208q0 120 82.5 201.5t204.5 81.5q70 0 128.5 -28.5t96.5 -78.5q36 38 36 94h64zM538 271q0 95 -59.5 158t-149.5 63q-91 0 -151.5 -62t-60.5 -155q0 -96 61 -158t155 -62 q89 0 147 61t58 155zM405 650l-34 -56l-193 114l34 58z" />
<glyph unicode="&#x1ede;" horiz-adv-x="869" d="M536 901q0 -36 -39 -64q-33 -21 -34 -55h-53q1 55 44 89q28 20 28 31q0 13 -12.5 21.5t-32.5 8.5q-29 0 -43 -17v1q-4 -8 -8 -37h-52q3 103 103 103q43 0 71 -23t28 -58zM825 369q0 -157 -115 -269.5t-275 -112.5q-163 0 -277 113t-114 274q0 154 116 266t275 112 q162 0 278 -116q45 41 45 103h64q0 -98 -66 -154q69 -99 69 -216zM750 368q0 130 -93 223t-222 93q-128 0 -222 -92.5t-94 -219.5q0 -131 92.5 -224t223.5 -93q129 0 222 92.5t93 220.5z" />
<glyph unicode="&#x1edf;" horiz-adv-x="676" d="M430 709q0 -36 -39 -64q-33 -21 -34 -55h-53q1 55 44 89q28 20 28 31q0 13 -12.5 21.5t-32.5 8.5q-29 0 -43 -17v1q-4 -8 -8 -37h-52q3 103 103 103q43 0 71 -23t28 -58zM654 547q0 -96 -65 -154q24 -58 24 -121q0 -123 -79 -204t-199 -81q-127 0 -210 82t-83 208 q0 120 82.5 201.5t204.5 81.5q70 0 128.5 -28.5t96.5 -78.5q36 38 36 94h64zM538 271q0 95 -59.5 158t-149.5 63q-91 0 -151.5 -62t-60.5 -155q0 -96 61 -158t155 -62q89 0 147 61t58 155z" />
<glyph unicode="&#x1ee0;" horiz-adv-x="869" d="M581 854q-12 -20 -39 -34.5t-52 -14.5q-21 0 -66 22q-23 10 -40 10q-14 0 -23.5 -4.5t-29.5 -21.5l-7 -6l-33 46q38 49 93 49q9 0 50.5 -15.5t56.5 -15.5q27 0 57 31zM825 369q0 -157 -115 -269.5t-275 -112.5q-163 0 -277 113t-114 274q0 154 116 266t275 112 q162 0 278 -116q45 41 45 103h64q0 -98 -66 -154q69 -99 69 -216zM750 368q0 130 -93 223t-222 93q-128 0 -222 -92.5t-94 -219.5q0 -131 92.5 -224t223.5 -93q129 0 222 92.5t93 220.5z" />
<glyph unicode="&#x1ee1;" horiz-adv-x="676" d="M474 672q-12 -20 -39 -34.5t-52 -14.5q-21 0 -66 22q-23 10 -40 10q-14 0 -23.5 -4.5t-29.5 -21.5l-7 -6l-33 46q38 49 93 49q9 0 50.5 -15.5t56.5 -15.5q27 0 57 31zM654 547q0 -96 -65 -154q24 -58 24 -121q0 -123 -79 -204t-199 -81q-127 0 -210 82t-83 208 q0 120 82.5 201.5t204.5 81.5q70 0 128.5 -28.5t96.5 -78.5q36 38 36 94h64zM538 271q0 95 -59.5 158t-149.5 63q-91 0 -151.5 -62t-60.5 -155q0 -96 61 -158t155 -62q89 0 147 61t58 155z" />
<glyph unicode="&#x1ee2;" horiz-adv-x="869" d="M825 369q0 -157 -115 -269.5t-275 -112.5q-163 0 -277 113t-114 274q0 154 116 266t275 112q162 0 278 -116q45 41 45 103h64q0 -98 -66 -154q69 -99 69 -216zM750 368q0 130 -93 223t-222 93q-128 0 -222 -92.5t-94 -219.5q0 -131 92.5 -224t223.5 -93q129 0 222 92.5 t93 220.5zM472 -186h-74v126h74v-126z" />
<glyph unicode="&#x1ee3;" horiz-adv-x="676" d="M654 547q0 -96 -65 -154q24 -58 24 -121q0 -123 -79 -204t-199 -81q-127 0 -210 82t-83 208q0 120 82.5 201.5t204.5 81.5q70 0 128.5 -28.5t96.5 -78.5q36 38 36 94h64zM538 271q0 95 -59.5 158t-149.5 63q-91 0 -151.5 -62t-60.5 -155q0 -96 61 -158t155 -62 q89 0 147 61t58 155zM366 -186h-74v126h74v-126z" />
<glyph unicode="&#x1ee4;" horiz-adv-x="655" d="M579 278q0 -146 -67.5 -218.5t-184.5 -72.5q-116 0 -183.5 72.5t-67.5 218.5v461h74v-461q0 -223 178 -223q177 0 177 223v461h74v-461zM365 -186h-74v126h74v-126z" />
<glyph unicode="&#x1ee5;" horiz-adv-x="608" d="M545 0h-74v85q-53 -98 -176 -98q-232 0 -232 265v295h74v-295q0 -197 164 -197q79 0 124.5 52t45.5 159v281h74v-547zM341 -186h-74v126h74v-126z" />
<glyph unicode="&#x1ee6;" horiz-adv-x="655" d="M429 901q0 -36 -39 -64q-33 -21 -34 -55h-53q1 55 44 89q28 20 28 31q0 13 -12.5 21.5t-32.5 8.5q-29 0 -43 -17v1q-4 -8 -8 -37h-52q3 103 103 103q43 0 71 -23t28 -58zM579 278q0 -146 -67.5 -218.5t-184.5 -72.5q-116 0 -183.5 72.5t-67.5 218.5v461h74v-461 q0 -223 178 -223q177 0 177 223v461h74v-461z" />
<glyph unicode="&#x1ee7;" horiz-adv-x="608" d="M405 709q0 -36 -39 -64q-33 -21 -34 -55h-53q1 55 44 89q28 20 28 31q0 13 -12.5 21.5t-32.5 8.5q-29 0 -43 -17v1q-4 -8 -8 -37h-52q3 103 103 103q43 0 71 -23t28 -58zM545 0h-74v85q-53 -98 -176 -98q-232 0 -232 265v295h74v-295q0 -197 164 -197q79 0 124.5 52 t45.5 159v281h74v-547z" />
<glyph unicode="&#x1ee8;" horiz-adv-x="706" d="M688 739q0 -127 -109 -184v-277q0 -131 -52 -200q-33 -43 -86 -67t-114 -24t-113.5 24t-85.5 67q-52 69 -52 200v461h74v-461q0 -101 34 -153q21 -32 59.5 -51t84.5 -19q45 0 83.5 19t59.5 51q34 52 34 153v461h74v-104q45 41 45 104h64zM479 890l-193 -114l-34 56 l193 116z" />
<glyph unicode="&#x1ee9;" horiz-adv-x="676" d="M657 547q0 -129 -112 -185v-362h-74v85q-53 -98 -176 -98q-126 0 -189 87q-43 59 -43 178v295h74v-295q0 -85 26 -128q19 -33 55.5 -51t82.5 -18q88 0 137 68q33 49 33 143v281h74v-107q48 41 48 107h64zM455 708l-193 -114l-34 56l193 116z" />
<glyph unicode="&#x1eea;" horiz-adv-x="706" d="M688 739q0 -127 -109 -184v-277q0 -131 -52 -200q-33 -43 -86 -67t-114 -24t-113.5 24t-85.5 67q-52 69 -52 200v461h74v-461q0 -101 34 -153q21 -32 59.5 -51t84.5 -19q45 0 83.5 19t59.5 51q34 52 34 153v461h74v-104q45 41 45 104h64zM403 832l-34 -56l-193 114l34 58 z" />
<glyph unicode="&#x1eeb;" horiz-adv-x="676" d="M657 547q0 -129 -112 -185v-362h-74v85q-53 -98 -176 -98q-126 0 -189 87q-43 59 -43 178v295h74v-295q0 -85 26 -128q19 -33 55.5 -51t82.5 -18q88 0 137 68q33 49 33 143v281h74v-107q48 41 48 107h64zM380 650l-34 -56l-193 114l34 58z" />
<glyph unicode="&#x1eec;" horiz-adv-x="706" d="M429 901q0 -36 -39 -64q-33 -21 -34 -55h-53q1 55 44 89q28 20 28 31q0 13 -12.5 21.5t-32.5 8.5q-29 0 -43 -17v1q-4 -8 -8 -37h-52q3 103 103 103q43 0 71 -23t28 -58zM688 739q0 -127 -109 -184v-277q0 -131 -52 -200q-33 -43 -86 -67t-114 -24t-113.5 24t-85.5 67 q-52 69 -52 200v461h74v-461q0 -101 34 -153q21 -32 59.5 -51t84.5 -19q45 0 83.5 19t59.5 51q34 52 34 153v461h74v-104q45 41 45 104h64z" />
<glyph unicode="&#x1eed;" horiz-adv-x="676" d="M405 709q0 -36 -39 -64q-33 -21 -34 -55h-53q1 55 44 89q28 20 28 31q0 13 -12.5 21.5t-32.5 8.5q-29 0 -43 -17v1q-4 -8 -8 -37h-52q3 103 103 103q43 0 71 -23t28 -58zM657 547q0 -129 -112 -185v-362h-74v85q-53 -98 -176 -98q-126 0 -189 87q-43 59 -43 178v295h74 v-295q0 -85 26 -128q19 -33 55.5 -51t82.5 -18q88 0 137 68q33 49 33 143v281h74v-107q48 41 48 107h64z" />
<glyph unicode="&#x1eee;" horiz-adv-x="706" d="M473 854q-12 -20 -39 -34.5t-52 -14.5q-21 0 -66 22q-23 10 -40 10q-14 0 -23.5 -4.5t-29.5 -21.5l-7 -6l-33 46q38 49 93 49q9 0 50.5 -15.5t56.5 -15.5q27 0 57 31zM688 739q0 -127 -109 -184v-277q0 -131 -52 -200q-33 -43 -86 -67t-114 -24t-113.5 24t-85.5 67 q-52 69 -52 200v461h74v-461q0 -101 34 -153q21 -32 59.5 -51t84.5 -19q45 0 83.5 19t59.5 51q34 52 34 153v461h74v-104q45 41 45 104h64z" />
<glyph unicode="&#x1eef;" horiz-adv-x="676" d="M449 672q-12 -20 -39 -34.5t-52 -14.5q-21 0 -66 22q-23 10 -40 10q-14 0 -23.5 -4.5t-29.5 -21.5l-7 -6l-33 46q38 49 93 49q9 0 50.5 -15.5t56.5 -15.5q27 0 57 31zM657 547q0 -129 -112 -185v-362h-74v85q-53 -98 -176 -98q-126 0 -189 87q-43 59 -43 178v295h74v-295 q0 -85 26 -128q19 -33 55.5 -51t82.5 -18q88 0 137 68q33 49 33 143v281h74v-107q48 41 48 107h64z" />
<glyph unicode="&#x1ef0;" horiz-adv-x="706" d="M688 739q0 -127 -109 -184v-277q0 -131 -52 -200q-33 -43 -86 -67t-114 -24t-113.5 24t-85.5 67q-52 69 -52 200v461h74v-461q0 -101 34 -153q21 -32 59.5 -51t84.5 -19q45 0 83.5 19t59.5 51q34 52 34 153v461h74v-104q45 41 45 104h64zM365 -186h-74v126h74v-126z" />
<glyph unicode="&#x1ef1;" horiz-adv-x="676" d="M657 547q0 -129 -112 -185v-362h-74v85q-53 -98 -176 -98q-126 0 -189 87q-43 59 -43 178v295h74v-295q0 -85 26 -128q19 -33 55.5 -51t82.5 -18q88 0 137 68q33 49 33 143v281h74v-107q48 41 48 107h64zM341 -186h-74v126h74v-126z" />
<glyph unicode="&#x1ef2;" horiz-adv-x="592" d="M371 832l-34 -56l-193 114l34 58zM590 739l-258 -492v-247h-74v247l-256 492h82l210 -414l215 414h81z" />
<glyph unicode="&#x1ef3;" horiz-adv-x="536" d="M527 547l-316 -739h-79l89 210l-212 529h81l173 -436l185 436h79zM345 650l-34 -56l-193 114l34 58z" />
<glyph unicode="&#x1ef4;" horiz-adv-x="592" d="M590 739l-258 -492v-247h-74v247l-256 492h82l210 -414l215 414h81zM332 -186h-74v126h74v-126z" />
<glyph unicode="&#x1ef5;" horiz-adv-x="536" d="M527 547l-316 -739h-79l89 210l-212 529h81l173 -436l185 436h79zM439 -186h-74v126h74v-126z" />
<glyph unicode="&#x1ef6;" horiz-adv-x="592" d="M396 901q0 -36 -39 -64q-33 -21 -34 -55h-53q1 55 44 89q28 20 28 31q0 13 -12.5 21.5t-32.5 8.5q-29 0 -43 -17v1q-4 -8 -8 -37h-52q3 103 103 103q43 0 71 -23t28 -58zM590 739l-258 -492v-247h-74v247l-256 492h82l210 -414l215 414h81z" />
<glyph unicode="&#x1ef7;" horiz-adv-x="536" d="M370 709q0 -36 -39 -64q-33 -21 -34 -55h-53q1 55 44 89q28 20 28 31q0 13 -12.5 21.5t-32.5 8.5q-29 0 -43 -17v1q-4 -8 -8 -37h-52q3 103 103 103q43 0 71 -23t28 -58zM527 547l-316 -739h-79l89 210l-212 529h81l173 -436l185 436h79z" />
<glyph unicode="&#x1ef8;" horiz-adv-x="592" d="M441 854q-12 -20 -39 -34.5t-52 -14.5q-21 0 -66 22q-23 10 -40 10q-14 0 -23.5 -4.5t-29.5 -21.5l-7 -6l-33 46q38 49 93 49q9 0 50.5 -15.5t56.5 -15.5q27 0 57 31zM590 739l-258 -492v-247h-74v247l-256 492h82l210 -414l215 414h81z" />
<glyph unicode="&#x1ef9;" horiz-adv-x="536" d="M414 672q-12 -20 -39 -34.5t-52 -14.5q-21 0 -66 22q-23 10 -40 10q-14 0 -23.5 -4.5t-29.5 -21.5l-7 -6l-33 46q38 49 93 49q9 0 50.5 -15.5t56.5 -15.5q27 0 57 31zM527 547l-316 -739h-79l89 210l-212 529h81l173 -436l185 436h79z" />
<glyph unicode="&#x2000;" horiz-adv-x="579" />
<glyph unicode="&#x2001;" horiz-adv-x="1158" />
<glyph unicode="&#x2002;" horiz-adv-x="579" />
<glyph unicode="&#x2003;" horiz-adv-x="1158" />
<glyph unicode="&#x2004;" horiz-adv-x="386" />
<glyph unicode="&#x2005;" horiz-adv-x="289" />
<glyph unicode="&#x2006;" horiz-adv-x="193" />
<glyph unicode="&#x2007;" horiz-adv-x="193" />
<glyph unicode="&#x2008;" horiz-adv-x="144" />
<glyph unicode="&#x2009;" horiz-adv-x="231" />
<glyph unicode="&#x200a;" horiz-adv-x="64" />
<glyph unicode="&#x2010;" horiz-adv-x="332" d="M302 233h-271v63h271v-63z" />
<glyph unicode="&#x2011;" horiz-adv-x="332" d="M302 233h-271v63h271v-63z" />
<glyph unicode="&#x2013;" horiz-adv-x="500" d="M500 233h-500v63h500v-63z" />
<glyph unicode="&#x2014;" horiz-adv-x="1000" d="M1000 233h-1000v63h1000v-63z" />
<glyph unicode="&#x2016;" horiz-adv-x="606" d="M414 -125h-74v864h74v-864zM266 -125h-74v864h74v-864z" />
<glyph unicode="&#x2018;" horiz-adv-x="351" d="M260 547h-74l-88 192h74z" />
<glyph unicode="&#x2019;" horiz-adv-x="351" d="M253 739l-88 -192h-74l88 192h74z" />
<glyph unicode="&#x201a;" horiz-adv-x="354" d="M251 126l-88 -193h-74l88 193h74z" />
<glyph unicode="&#x201c;" horiz-adv-x="502" d="M258 547h-74l-88 192h74zM406 547h-74l-88 192h74z" />
<glyph unicode="&#x201d;" horiz-adv-x="484" d="M393 739l-88 -192h-74l88 192h74zM249 739l-88 -192h-74l88 192h74z" />
<glyph unicode="&#x201e;" horiz-adv-x="502" d="M398 126l-88 -193h-74l88 193h74zM251 126l-88 -193h-74l88 193h74z" />
<glyph unicode="&#x2020;" horiz-adv-x="553" d="M494 470h-183v-603h-74v603h-178v66h178v203h74v-203h183v-66z" />
<glyph unicode="&#x2021;" horiz-adv-x="553" d="M494 331h-182v-464h-74v464h-179v70h179v92h-179v70h179v176h74v-176h182v-70h-182v-92h182v-70z" />
<glyph unicode="&#x2022;" horiz-adv-x="606" d="M488 304q0 -78 -54 -132t-133 -54q-75 0 -129 54.5t-54 130.5q0 77 54 131t131 54t131 -53.5t54 -130.5z" />
<glyph unicode="&#x2026;" horiz-adv-x="1000" d="M870 0h-74v126h74v-126zM537 0h-74v126h74v-126zM204 0h-74v126h74v-126z" />
<glyph unicode="&#x202f;" horiz-adv-x="231" />
<glyph unicode="&#x2030;" horiz-adv-x="1174" d="M1151 163q0 -73 -51.5 -124.5t-124.5 -51.5q-72 0 -123.5 51.5t-51.5 123.5q0 74 51.5 125t125.5 51q71 0 122.5 -52t51.5 -123zM1083 162q0 45 -31.5 77.5t-75.5 32.5q-46 0 -77.5 -32t-31.5 -78q0 -45 32 -77t76 -32t76 32t32 77zM752 163q0 -73 -51.5 -124.5 t-124.5 -51.5q-72 0 -123.5 51.5t-51.5 123.5q0 74 51.5 125t125.5 51q71 0 122.5 -52t51.5 -123zM684 162q0 45 -31.5 77.5t-75.5 32.5q-46 0 -77.5 -32t-31.5 -78q0 -45 32 -77t76 -32t76 32t32 77zM588 739l-334 -739h-72l332 739h74zM364 573q0 -73 -51.5 -124.5 t-124.5 -51.5q-72 0 -123.5 51.5t-51.5 124.5q0 74 51.5 125t125.5 51q71 0 122.5 -52t51.5 -124zM296 573q0 45 -31.5 77.5t-75.5 32.5q-46 0 -78 -32t-32 -78q0 -45 32 -77.5t77 -32.5q44 0 76 32t32 78z" />
<glyph unicode="&#x2031;" horiz-adv-x="1573" d="M1550 163q0 -73 -51.5 -124.5t-124.5 -51.5q-72 0 -123.5 51.5t-51.5 123.5q0 74 51.5 125t125.5 51q71 0 122.5 -52t51.5 -123zM1482 162q0 45 -31.5 77.5t-75.5 32.5q-46 0 -77.5 -32t-31.5 -78q0 -45 32 -77t76 -32t76 32t32 77zM1151 163q0 -73 -51.5 -124.5 t-124.5 -51.5q-72 0 -123.5 51.5t-51.5 123.5q0 74 51.5 125t125.5 51q71 0 122.5 -52t51.5 -123zM1083 162q0 45 -31.5 77.5t-75.5 32.5q-46 0 -77.5 -32t-31.5 -78q0 -45 32 -77t76 -32t76 32t32 77zM752 163q0 -73 -51.5 -124.5t-124.5 -51.5q-72 0 -123.5 51.5 t-51.5 123.5q0 74 51.5 125t125.5 51q71 0 122.5 -52t51.5 -123zM684 162q0 45 -31.5 77.5t-75.5 32.5q-46 0 -77.5 -32t-31.5 -78q0 -45 32 -77t76 -32t76 32t32 77zM588 739l-334 -739h-72l332 739h74zM364 573q0 -73 -51.5 -124.5t-124.5 -51.5q-72 0 -123.5 51.5 t-51.5 124.5q0 74 51.5 125t125.5 51q71 0 122.5 -52t51.5 -124zM296 573q0 45 -31.5 77.5t-75.5 32.5q-46 0 -78 -32t-32 -78q0 -45 32 -77.5t77 -32.5q44 0 76 32t32 78z" />
<glyph unicode="&#x2039;" horiz-adv-x="251" d="M211 132l-59 -33l-112 201l112 199l59 -32l-93 -167z" />
<glyph unicode="&#x203a;" horiz-adv-x="251" d="M211 300l-112 -201l-59 33l93 168l-93 167l59 32z" />
<glyph unicode="&#x203b;" horiz-adv-x="606" d="M499 106l-52 -52l-144 144l-144 -144l-52 52l144 144l-144 144l52 52l144 -144l144 144l52 -52l-144 -144zM575 250q0 -26 -18.5 -44.5t-44.5 -18.5t-44.5 18.5t-18.5 44.5t18.5 44.5t44.5 18.5t44.5 -18.5t18.5 -44.5zM157 250q0 -26 -18.5 -44.5t-44.5 -18.5 t-44.5 18.5t-18.5 44.5t18.5 44.5t44.5 18.5t44.5 -18.5t18.5 -44.5zM366 41q0 -26 -18.5 -44.5t-44.5 -18.5t-44.5 18.5t-18.5 44.5t18.5 44.5t44.5 18.5t44.5 -18.5t18.5 -44.5zM366 459q0 -26 -18.5 -44.5t-44.5 -18.5t-44.5 18.5t-18.5 44.5t18.5 44.5t44.5 18.5 t44.5 -18.5t18.5 -44.5z" />
<glyph unicode="&#x203d;" horiz-adv-x="591" d="M335 0h-74v126h74v-126zM525 535q0 -48 -20.5 -87t-69.5 -83t-72 -76.5t-28 -69.5v-26h-74v488q-114 -20 -126 -173h-70q3 106 56 168t140 73v90h74v-90q85 -11 137.5 -70t52.5 -144zM451 537q0 55 -32 94t-84 50v-316q14 15 32 32q51 47 67.5 75t16.5 65z" />
<glyph unicode="&#x2044;" horiz-adv-x="166" d="M281 739l-342 -739h-54l342 739h54z" />
<glyph unicode="&#x2045;" horiz-adv-x="360" d="M297 -126q-95 0 -164.5 41.5t-69.5 115.5v152q0 38 23 71t60 53q-37 19 -60 51.5t-23 71.5v152q0 74 69.5 115.5t164.5 41.5v-68q-67 0 -113.5 -21.5t-46.5 -67.5v-152q0 -47 46.5 -68t113.5 -21v-68q-67 0 -113.5 -21.5t-46.5 -68.5v-152q0 -46 46.5 -67.5t113.5 -21.5 v-68z" />
<glyph unicode="&#x2046;" horiz-adv-x="360" d="M297 31q0 -74 -69.5 -115.5t-164.5 -41.5v68q67 0 113.5 21.5t46.5 67.5v152q0 47 -46.5 68.5t-113.5 21.5v68q67 0 113.5 21t46.5 68v152q0 46 -46.5 67.5t-113.5 21.5v68q95 0 164.5 -41.5t69.5 -115.5v-152q0 -38 -23 -71t-60 -53q37 -19 60 -51.5t23 -71.5v-152z" />
<glyph unicode="&#x2052;" horiz-adv-x="554" d="M181 626q0 -33 -23.5 -56t-55.5 -23q-33 0 -56 23t-23 56t23 56t56 23q32 0 55.5 -23t23.5 -56zM531 113q0 -33 -23 -56t-56 -23q-32 0 -55.5 23t-23.5 56t23.5 56t55.5 23q33 0 56 -23t23 -56zM519 739l-406 -739h-78l406 739h78z" />
<glyph unicode="&#x205f;" horiz-adv-x="289" />
<glyph unicode="&#x20a1;" horiz-adv-x="813" d="M770 194q-110 -204 -333 -207v-70h-61v74q-145 19 -238.5 124t-93.5 252q0 152 93 258.5t239 123.5v73h61v-70q112 -2 200 -57t130 -148h-83q-86 134 -247 137v-629q78 1 135 33.5t116 105.5h82zM376 60v620q-112 -19 -184.5 -105.5t-72.5 -204.5q0 -114 73.5 -202 t183.5 -108z" />
<glyph unicode="&#x20a4;" horiz-adv-x="554" d="M592 213q0 -97 -63.5 -155t-184.5 -58h-285v67h139q42 47 42 116q0 55 -32 98h-190v67h125l-49 65h-76v67h55q-2 10 -2 32q0 105 66.5 172.5t168.5 67.5q100 0 168.5 -58.5t79.5 -152.5h-69q-15 68 -62 106t-116 38q-72 0 -117 -48t-45 -124q0 -23 2 -33h310v-67h-283 l67 -65h216v-67h-168q25 -50 25 -97q0 -51 -29 -117h57q90 0 133 41.5t43 110.5q0 19 -6 49h72q8 -31 8 -55z" />
<glyph unicode="&#x20a6;" d="M701 280h-37v-280h-74l-190 280h-250v-280h-74v280h-37v68h37v117h-37v68h37v206h100l139 -206h275v206h74v-206h37v-68h-37v-117h37v-68zM354 348l-79 117h-125v-117h204zM590 348v117h-229l79 -117h150zM590 126v154h-104zM229 533l-79 117v-117h79z" />
<glyph unicode="&#x20a9;" horiz-adv-x="960" d="M950 280h-132l-80 -280h-95l-76 280h-175l-75 -280h-96l-80 280h-131v68h112l-34 117h-78v68h59l-59 206h76l58 -206h244l57 206h70l57 -206h244l58 206h76l-59 -206h59v-68h-79l-33 -117h112v-68zM370 465h-206l33 -117h140zM319 280h-103l52 -184zM796 465h-206 l33 -117h140zM744 280h-103l51 -184zM549 348l-32 117h-76l-31 -117h139zM499 533l-20 73l-20 -73h40z" />
<glyph unicode="&#x20ab;" horiz-adv-x="673" d="M609 623h-53v-512h-63v84q-35 -50 -77 -72.5t-100 -22.5q-108 0 -180.5 69.5t-72.5 173.5t71 174t176 70q112 0 183 -85v121h-129v53h129v63h63v-63h53v-53zM609 -68h-546v68h546v-68zM495 345q0 76 -55 130t-132 54q-76 0 -129 -53.5t-53 -129.5q0 -81 54 -134.5 t134 -53.5q75 0 128 55t53 132z" />
<glyph unicode="&#x20ac;" horiz-adv-x="554" d="M573 628l-31 -69q-49 72 -89.5 99.5t-98.5 27.5q-88 0 -137 -51t-75 -176h351l-25 -59h-332q-2 -34 -2 -38q0 -17 1 -31h303l-24 -59h-274q14 -106 68 -163t140 -57q58 0 93.5 18t94.5 73v-81q-40 -40 -83.5 -57.5t-103.5 -17.5q-118 0 -188.5 69.5t-95.5 215.5h-96 l24 59h68q-1 14 -1 31q0 4 2 38h-94l24 59h75q29 161 98.5 227t187.5 66q67 0 115.5 -25.5t104.5 -98.5z" />
<glyph unicode="&#x20b1;" horiz-adv-x="592" d="M565 515q0 -109 -63.5 -162.5t-209.5 -53.5h-142v-89h146v-55h-146v-155h-74v155h-37v55h37v529h204q151 0 218 -53.5t67 -170.5zM490 515q0 44 -12 74t-29 46t-51 24.5t-63.5 10.5t-79.5 2h-105v-306h137q110 0 156.5 34.5t46.5 114.5z" />
<glyph unicode="&#x2103;" horiz-adv-x="1265" d="M350 533q0 -64 -43.5 -108.5t-106.5 -44.5t-106.5 44.5t-43.5 109.5q0 64 44.5 108t109.5 44q62 0 104 -44.5t42 -108.5zM293 533q0 40 -26.5 68t-64.5 28q-40 0 -68 -28t-28 -68t28 -68t66 -28q39 0 66 28t27 68zM1139 194q-112 -207 -338 -207q-166 0 -277 109 t-111 271q0 166 109 275.5t274 109.5q115 0 206 -55t134 -150h-83q-87 137 -254 137q-132 0 -221.5 -90.5t-89.5 -223.5q0 -130 92 -222.5t220 -92.5q80 0 139 32.5t118 106.5h82z" />
<glyph unicode="&#x2113;" horiz-adv-x="465" d="M401 182q0 -79 -38.5 -137t-102.5 -58t-96 48t-43 133q-11 -7 -30 -16l-28 60q29 15 53 30l-2 116v61q0 21 1.5 60t4 61t7.5 54.5t12 51t18 40.5t25.5 34t34 20t43.5 8q52 0 87.5 -39t35.5 -93q0 -118 -50.5 -223t-141.5 -178q11 -154 69 -154q37 0 56 35.5t19 85.5h66z M316 616q0 27 -16 46.5t-40 19.5q-17 0 -30 -13t-20.5 -41t-12.5 -54t-6.5 -71t-2 -71t-0.5 -74v-56q128 131 128 314z" />
<glyph unicode="&#x2116;" horiz-adv-x="1017" d="M951 412q0 -64 -43.5 -108.5t-106.5 -44.5t-106.5 44.5t-43.5 109.5q0 64 44.5 108t109.5 44q62 0 104 -44.5t42 -108.5zM894 412q0 40 -26.5 68t-64.5 28q-40 0 -68 -28t-28 -68t28 -68t66 -28q39 0 66 28t27 68zM775 663h-149v-663h-74l-366 635v-635h-151v76h77v663 h100l340 -599v599h223v-76zM950 136h-300v64h300v-64z" />
<glyph unicode="&#x2117;" horiz-adv-x="747" d="M728 341q0 -146 -104 -249.5t-250 -103.5t-249.5 103.5t-103.5 249.5t103.5 250t249.5 104t250 -104t104 -250zM691 341q0 131 -93 224t-224 93t-223.5 -93t-92.5 -224t92.5 -223.5t223.5 -92.5t224 92.5t93 223.5zM543 420q0 -63 -39 -94t-130 -31h-78v-162h-57v416h128 q94 0 135 -31t41 -98zM486 420q0 23 -7 38t-16 22.5t-30 11.5t-35.5 4.5t-45.5 0.5h-56v-150h75q62 0 88.5 16.5t26.5 56.5z" />
<glyph unicode="&#x2118;" horiz-adv-x="751" d="M688 280q0 -76 -18.5 -140.5t-61.5 -108.5t-103 -44q-44 0 -81.5 25t-60.5 65l51 29q26 -45 91 -45q109 0 109 219q0 78 -27 132.5t-82 54.5q-24 0 -57.5 -33.5t-75 -98.5t-70.5 -115l-72 -127q69 -116 69 -218q0 -49 -40.5 -81.5t-96.5 -32.5q-42 0 -70.5 34t-28.5 80 q0 64 81 215q-79 131 -79 218q0 89 50 164t132 115l26 -54q-63 -30 -98.5 -91.5t-35.5 -133.5q0 -62 47 -143q43 78 77 133.5t78 116.5t86 93.5t78 32.5q84 0 133.5 -77.5t49.5 -183.5zM247 -125q0 44 -58 143q-74 -135 -74 -143q0 -25 13 -43.5t34 -18.5q34 0 59.5 17 t25.5 45z" />
<glyph unicode="&#x211e;" horiz-adv-x="607" d="M593 197l-112 -83l85 -114h-92l-52 70l-79 -58l-33 44l79 58l-164 221q158 0 217.5 35.5t59.5 133.5q0 91 -58.5 129.5t-189.5 38.5h-104v-672h-74v739h183q169 0 243.5 -59.5t74.5 -178.5q0 -98 -56 -156t-162 -69l89 -119l113 84z" />
<glyph unicode="&#x2120;" horiz-adv-x="1041" d="M376 438q0 -55 -43.5 -91.5t-109.5 -36.5q-72 0 -115.5 37.5t-44.5 99.5h65q4 -40 29.5 -62t66.5 -22q39 0 64 20.5t25 52.5q0 31 -21.5 47t-81.5 31q-71 18 -93 37q-37 28 -37 78q0 51 39.5 84t101.5 33q66 0 107 -35q36 -32 36 -80v-10h-64q1 5 1 9q0 26 -21 43 q-23 20 -60 20q-33 0 -55.5 -18t-22.5 -45q0 -23 17 -38q14 -12 73 -27q64 -16 92 -33q52 -33 52 -94zM978 318h-62v340l-173 -340h-50l-171 340v-340h-63v421h87l173 -338l173 338h86v-421z" />
<glyph unicode="&#x2122;" horiz-adv-x="1000" d="M348 739v-52h-111v-369h-62v369h-112v52h285zM937 318h-62v340l-173 -340h-50l-171 340v-340h-63v421h87l173 -338l173 338h86v-421z" />
<glyph unicode="&#x2126;" horiz-adv-x="797" d="M765 340q-2 -82 -37.5 -156t-91.5 -110h78v-76h-232v78q86 25 144 98t58 168q0 107 -86 188q-86 82 -198 82q-115 0 -200.5 -82t-84.5 -194q2 -92 60.5 -163.5t143.5 -96.5v-78h-235v76h82q-57 36 -94 109t-38 153v8q0 138 107 240q110 106 258 106q95 0 180 -47.5 t137 -128.5q49 -78 49 -167v-7z" />
<glyph unicode="&#x2127;" horiz-adv-x="797" d="M764 404v-8q0 -138 -107 -240q-110 -106 -258 -106q-95 0 -180 47.5t-137 128.5q-49 78 -49 167v7q2 82 37.5 156t91.5 110h-78v76h232v-78q-86 -25 -144 -98t-58 -168q0 -107 86 -188q86 -82 198 -82q115 0 200.5 82t84.5 194q-2 92 -60.5 163.5t-143.5 96.5v78h235v-76 h-82q57 -36 94 -109t38 -153z" />
<glyph unicode="&#x212e;" horiz-adv-x="865" d="M802 333v-10h-594q-10 0 -10 -10v-184q0 -4 3 -7q93 -103 232 -103q69 0 131 29t106 81h55q-52 -61 -129 -95t-163 -34q-151 0 -260.5 96t-109.5 237q0 140 109.5 236t260.5 96q150 0 259.5 -96t109.5 -236zM667 352v184q0 4 -3 7q-44 49 -104.5 76t-126.5 27t-127 -27 t-105 -76q-3 -3 -3 -7v-184q0 -10 10 -10h449q10 0 10 10z" />
<glyph unicode="&#x2190;" horiz-adv-x="1000" d="M874 213h-664l120 -166l-60 -44l-179 247l179 247l60 -44l-121 -166h665v-74z" />
<glyph unicode="&#x2191;" horiz-adv-x="745" d="M620 480l-44 -60l-166 121v-665h-74v664l-166 -120l-44 60l247 179z" />
<glyph unicode="&#x2192;" horiz-adv-x="1000" d="M909 250l-179 -247l-60 44l121 166h-665v74h664l-120 166l60 44z" />
<glyph unicode="&#x2193;" horiz-adv-x="745" d="M620 20l-247 -179l-247 179l44 60l166 -121v665h74v-664l166 120z" />
<glyph unicode="&#x2202;" horiz-adv-x="494" d="M482 370q0 -100 -33 -187t-99 -142.5t-152 -55.5q-78 0 -132 58.5t-54 138.5q0 93 61.5 160.5t150.5 67.5q94 0 184 -32q-2 132 -56.5 226t-153.5 94q-47 0 -137 -32l-24 70q51 18 161 18q86 0 152 -55.5t99 -142t33 -186.5zM406 319q-87 36 -182 36q-60 0 -99 -51.5 t-39 -121.5q0 -57 31.5 -99t80.5 -42q91 0 144 79.5t64 198.5z" />
<glyph unicode="&#x2211;" horiz-adv-x="713" d="M619 -123h-524v74l143 364l-143 363v74h524v-74h-445l143 -363l-143 -364h445v-74z" />
<glyph unicode="&#x2212;" horiz-adv-x="606" d="M543 213h-480v74h480v-74z" />
<glyph unicode="&#x2213;" horiz-adv-x="606" d="M543 426h-480v74h480v-74zM543 139h-203v-203h-74v203h-203v74h203v146h74v-146h203v-74z" />
<glyph unicode="&#x2215;" horiz-adv-x="0" d="M198 739l-342 -739h-54l342 739h54z" />
<glyph unicode="&#x2217;" horiz-adv-x="481" d="M418 218h-122l66 -106l-57 -32l-63 109l-64 -109l-58 33l69 105h-126v58h126l-67 111l58 33l64 -108l62 108l57 -33l-69 -111h124v-58z" />
<glyph unicode="&#x221a;" horiz-adv-x="549" d="M515 908l-152 -943l-242 496l-95 -47l-16 35l146 71l195 -394l127 787z" />
<glyph unicode="&#x221e;" horiz-adv-x="768" d="M654 320q0 54 -33.5 87t-86.5 33q-31 0 -61.5 -29.5t-45.5 -58.5l-15 -30l15 -30q15 -29 45.5 -58.5t61.5 -29.5q53 0 86.5 32t33.5 84zM350 322l-15 30q-15 29 -45 58.5t-60 29.5q-53 0 -86.5 -32t-33.5 -84q0 -54 33.5 -87t86.5 -33q30 0 60 29.5t45 58.5zM720 324 q0 -86 -46.5 -140t-127.5 -54q-54 0 -98 29t-66 75q-22 -47 -62.5 -75.5t-93.5 -28.5q-82 0 -133 54.5t-51 139.5q0 86 51 141t133 55q53 0 93.5 -28.5t62.5 -75.5q22 46 66 75t98 29q81 0 127.5 -54.5t46.5 -141.5z" />
<glyph unicode="&#x2222;" horiz-adv-x="606" d="M523 80l-34 -66l-80 40q-31 -52 -82 -92l-46 59q37 29 62 66l-260 130v66l260 130q-25 37 -62 66l46 59q51 -40 82 -92l80 40l34 -66l-81 -40q24 -62 24 -130t-24 -130zM392 250q0 48 -16 96l-193 -96l193 -96q16 48 16 96z" />
<glyph unicode="&#x2248;" horiz-adv-x="606" d="M555 383q-26 -51 -64 -81.5t-76 -30.5q-28 0 -93 26l-55 22q-53 21 -73 21q-32 0 -50.5 -18t-50.5 -72l-42 47q36 65 68.5 92.5t74.5 27.5q28 0 77 -19l65 -27q55 -23 80 -23q47 0 95 82zM555 203q-26 -51 -64 -81.5t-76 -30.5q-28 0 -93 26l-55 22q-53 21 -73 21 q-32 0 -50.5 -18t-50.5 -72l-42 47q36 65 68.5 92.5t74.5 27.5q28 0 77 -19l65 -27q55 -23 80 -23q47 0 95 82z" />
<glyph unicode="&#x2260;" horiz-adv-x="606" d="M543 121h-264l-95 -185l-65 34l76 151h-132v74h170l57 110h-227v74h264l95 185l65 -34l-76 -151h132v-74h-170l-57 -110h227v-74z" />
<glyph unicode="&#x2264;" horiz-adv-x="606" d="M480 67l-378 317v56l378 317v-96l-296 -249l296 -249v-96zM480 -37h-354v74h354v-74z" />
<glyph unicode="&#x2265;" horiz-adv-x="606" d="M504 384l-378 -317v96l296 249l-296 249v96l378 -317v-56zM480 -37h-354v74h354v-74z" />
<glyph unicode="&#x22c6;" horiz-adv-x="554" d="M530 318l-193 -73l114 -174l-44 -32l-130 162l-130 -162l-44 32l114 174l-193 73l16 52l200 -55l10 207h54l10 -207l200 55z" />
<glyph unicode="&#x2300;" horiz-adv-x="606" d="M551 445l-63 -63q42 -60 42 -132q0 -94 -66.5 -160.5t-160.5 -66.5q-72 0 -132 42l-63 -63l-53 53l63 63q-42 60 -42 132q0 94 66.5 160.5t160.5 66.5q72 0 132 -42l63 63zM456 250q0 43 -22 79l-210 -210q36 -22 79 -22q63 0 108 45t45 108zM382 381q-36 22 -79 22 q-63 0 -108 -45t-45 -108q0 -43 22 -79z" />
<glyph unicode="&#x2329;" horiz-adv-x="527" d="M465 -125h-92l-310 432l310 432h92l-310 -432z" />
<glyph unicode="&#x232a;" horiz-adv-x="527" d="M465 307l-310 -432h-92l310 432l-310 432h92z" />
<glyph unicode="&#x2422;" horiz-adv-x="682" d="M640 274q0 -123 -82.5 -205t-206.5 -82q-67 0 -123.5 28t-90.5 79v-94h-74v528l-34 -14v66l34 14v145h74v-115l204 84v-66l-204 -84v-105q73 107 215 107q122 0 205 -82.5t83 -203.5zM565 276q0 92 -61.5 154t-153.5 62t-155 -62.5t-63 -153.5t63.5 -156t153.5 -65 q92 0 154 63.5t62 157.5z" />
<glyph unicode="&#x2423;" horiz-adv-x="500" d="M437 -96h-374v336h68v-268h238v268h68v-336z" />
<glyph unicode="&#x25ca;" horiz-adv-x="494" d="M466 374l-197 -374h-60l-191 377l196 363h63zM402 374l-157 309l-164 -307l159 -318z" />
<glyph unicode="&#x25e6;" horiz-adv-x="606" d="M488 303q0 -77 -54 -131t-131 -54t-131 54t-54 131t54 131t131 54t131 -54t54 -131zM414 303q0 46 -32.5 78.5t-78.5 32.5t-78.5 -32.5t-32.5 -78.5t32.5 -78.5t78.5 -32.5t78.5 32.5t32.5 78.5z" />
<glyph unicode="&#x266a;" horiz-adv-x="665" d="M662 250h-68q0 40 -20.5 83.5t-40 68.5t-58.5 70q-45 50 -69 85l1 -447q0 -55 -50 -89t-117 -34t-116.5 34t-49.5 89t49.5 89t116.5 34q55 0 99 -23v529h68q0 -40 20.5 -83.5t40 -68.5t58.5 -70q65 -74 100.5 -136t35.5 -131z" />
<glyph unicode="&#x26ad;" horiz-adv-x="554" d="M732 250q0 -113 -80.5 -193t-193.5 -80q-105 0 -181 68q-76 -68 -181 -68q-113 0 -193 80t-80 193t80 193.5t193 80.5q104 0 181 -69q77 69 181 69q113 0 193.5 -80.5t80.5 -193.5zM296 250q0 43 -19 84q-18 -39 -18 -84t18 -84q19 41 19 84zM229 101q-44 68 -44 149 t44 149q-59 51 -133 51q-82 0 -140.5 -58.5t-58.5 -141.5q0 -82 58.5 -140.5t140.5 -58.5q75 0 133 50zM658 250q0 82 -59 141t-141 59q-74 0 -133 -51q45 -69 45 -149t-45 -149q58 -50 133 -50q83 0 141.5 58.5t58.5 140.5z" />
</font>
</defs>
</svg>
