<?xml version="1.0" standalone="no"?>
<!DOCTYPE svg PUBLIC "-//W3C//DTD SVG 20010904//EN"
 "http://www.w3.org/TR/2001/REC-SVG-20010904/DTD/svg10.dtd">
<svg version="1.0" xmlns="http://www.w3.org/2000/svg"
 width="260.000000pt" height="260.000000pt" viewBox="0 0 260.000000 260.000000"
 preserveAspectRatio="xMidYMid meet">
<metadata>
Created by potrace 1.14, written by Peter Selinger 2001-2017
</metadata>
<g transform="translate(0.000000,260.000000) scale(0.100000,-0.100000)"
fill="#000000" stroke="none">
<path d="M1394 2530 l-58 -29 -34 26 -34 25 -31 -29 c-116 -108 -287 -183
-483 -213 -106 -17 -372 -17 -402 -1 -23 12 -23 12 -18 -36 3 -26 8 -86 11
-133 17 -250 66 -566 124 -799 22 -92 32 -117 49 -124 12 -6 22 -14 22 -19 0
-5 -10 -4 -22 3 -18 9 -20 9 -15 -4 6 -16 3 -18 -123 -62 -89 -31 -110 -48
-110 -88 0 -55 156 -226 193 -211 10 3 30 -9 54 -33 22 -22 68 -52 105 -67 64
-27 68 -32 102 -96 122 -232 315 -466 478 -577 64 -44 68 -45 99 -33 65 27
186 115 268 194 108 105 183 204 270 356 39 68 77 130 84 139 7 9 14 25 15 36
0 11 14 53 31 93 40 98 114 324 145 447 56 223 115 594 131 825 3 47 8 112 11
144 4 49 3 58 -8 49 -19 -17 -194 -34 -327 -32 -98 1 -113 3 -98 14 16 12 13
13 -21 8 -37 -5 -42 -3 -56 25 -9 17 -30 41 -48 53 -18 13 -75 58 -126 101
-51 43 -98 78 -106 78 -7 0 -40 -13 -72 -30z m149 -62 c54 -52 55 -54 62 -123
4 -38 13 -94 21 -124 16 -64 4 -134 -21 -125 -9 4 -15 0 -15 -10 0 -9 -5 -16
-11 -16 -8 0 -9 -24 -5 -77 7 -100 7 -85 0 -183 -6 -97 -20 -124 -30 -62 -4
24 -12 42 -19 42 -31 0 -45 -13 -45 -41 0 -19 -5 -29 -15 -29 -8 0 -15 -6 -15
-12 0 -25 -20 17 -20 43 0 33 -5 37 -35 31 -24 -4 -25 -7 -19 -53 l7 -49 -34
6 c-19 4 -47 15 -64 24 -33 20 -137 61 -142 57 -1 -2 24 -16 57 -32 33 -16 67
-37 76 -46 9 -10 39 -21 67 -25 44 -6 48 -8 27 -15 -14 -4 -19 -7 -12 -8 40
-3 50 -70 11 -72 -11 -1 -25 -2 -31 -3 -7 -1 -31 4 -53 12 -125 44 -196 50
-287 26 -33 -8 -63 -13 -66 -10 -3 3 2 6 11 6 10 0 17 4 17 8 0 4 -19 8 -42 7
-42 0 -43 -1 -40 -30 l2 -30 -15 28 c-19 32 -14 43 50 122 44 54 87 144 170
358 74 192 93 231 123 257 16 14 39 41 50 61 20 34 83 86 146 121 53 30 79 23
139 -34z m-285 -13 c-15 -13 -36 -42 -49 -65 -12 -22 -26 -40 -29 -40 -4 0
-22 -35 -41 -77 -18 -43 -40 -83 -49 -90 -22 -18 -125 -50 -199 -63 -82 -15
-289 -14 -306 0 -10 8 -15 3 -24 -21 -6 -17 -9 -35 -6 -39 2 -4 7 -31 9 -61 3
-30 8 -79 11 -109 3 -30 7 -109 9 -176 3 -109 1 -122 -16 -133 -17 -10 -18 -9
-12 14 7 27 -10 35 -20 10 -7 -18 -37 -20 -54 -3 -16 16 -9 -45 18 -157 41
-173 50 -218 45 -223 -3 -3 -5 -1 -5 4 0 5 -11 21 -23 36 -21 24 -55 134 -71
228 -2 14 -10 48 -16 75 -6 28 -13 79 -15 115 -2 36 -8 78 -14 93 -14 37 -14
37 9 37 11 0 20 4 20 9 0 5 -9 13 -20 16 -11 4 -20 15 -20 27 0 15 5 19 20 15
22 -6 23 -5 14 17 -5 12 -10 14 -19 6 -9 -8 -14 -6 -19 5 -8 21 4 47 19 41 10
-3 11 29 7 147 l-5 152 129 1 c224 1 404 42 581 131 40 20 91 53 115 74 47 40
69 44 26 4z m414 -113 c29 -19 38 -31 42 -63 3 -21 9 -57 12 -79 3 -24 2 -40
-4 -40 -6 0 -8 10 -5 23 6 22 6 21 -16 -3 -20 -22 -21 -22 -12 -3 6 12 11 34
11 50 l-1 28 -15 -34 c-17 -39 -23 -37 -34 15 -6 24 -5 43 3 55 9 15 7 24 -12
50 -26 34 -23 35 31 1z m528 -208 c-15 -147 -49 -381 -61 -411 -6 -17 -14 -23
-25 -19 -9 3 -20 6 -26 6 -6 0 -6 6 2 15 15 18 -1 20 -19 3 -19 -19 -3 42 18
66 15 18 15 18 -6 7 -13 -7 -23 -8 -23 -2 0 5 6 11 13 13 6 3 12 17 12 31 1
23 -2 26 -22 21 -26 -7 -30 7 -8 26 18 15 19 25 2 42 -7 7 -12 19 -11 26 1 6
2 16 3 22 0 5 8 7 16 4 8 -4 15 -2 15 4 0 5 -6 12 -14 15 -9 4 -12 14 -9 28 4
15 2 20 -5 15 -7 -4 -12 7 -14 31 -2 31 -7 38 -23 36 -11 -2 -57 -8 -101 -14
-55 -8 -87 -8 -100 -1 -14 8 -1 12 57 19 66 9 70 11 42 18 -18 4 -33 13 -33
21 0 7 -5 16 -12 20 -6 4 -8 3 -5 -3 10 -15 -18 -34 -37 -27 -13 5 -16 14 -11
31 3 14 0 32 -7 41 -11 15 -11 15 4 4 11 -9 18 -10 23 -2 3 6 20 7 38 4 18 -3
55 -6 82 -6 53 0 237 21 244 28 11 10 11 -12 1 -112z m-1817 36 c-3 -11 -10
-20 -15 -20 -6 0 -7 7 -4 16 3 9 6 20 6 25 0 6 4 8 9 5 5 -3 7 -15 4 -26z
m1348 -132 c16 -61 18 -258 5 -433 -10 -135 -17 -131 -35 20 -21 177 -15 465
9 465 4 0 14 -24 21 -52z m-1331 18 c0 -11 -19 -15 -25 -6 -3 5 1 10 9 10 9 0
16 -2 16 -4z m1573 -76 c-3 -92 -30 -302 -59 -455 -36 -188 -31 -175 -68 -175
-55 0 -58 8 -59 121 0 108 30 537 40 552 10 17 49 26 98 24 l50 -2 -2 -65z
m-1363 40 c0 -5 -4 -10 -10 -10 -5 0 -10 5 -10 10 0 6 5 10 10 10 6 0 10 -4
10 -10z m347 -107 c-3 -10 -5 -4 -5 12 0 17 2 24 5 18 2 -7 2 -21 0 -30z
m-134 -22 c2 -11 0 -24 -6 -30 -8 -8 -8 -11 1 -11 7 0 12 -4 12 -10 0 -5 -7
-10 -15 -10 -18 0 -20 -16 -2 -24 8 -3 6 -9 -7 -20 -17 -14 -17 -16 -3 -16 9
0 20 -8 25 -17 11 -21 4 -82 -11 -101 -13 -17 -13 -92 1 -101 15 -9 35 -93 25
-100 -5 -3 -12 -14 -16 -24 -4 -9 -17 -21 -30 -26 -13 -5 -32 -22 -42 -37 -16
-25 -19 -26 -30 -10 -13 17 -13 16 -17 -1 -2 -11 -9 2 -18 31 -9 34 -10 51 -3
53 13 5 4 43 -14 61 -15 16 -17 42 -3 42 5 0 14 9 20 20 8 14 6 27 -7 52 -26
48 -19 179 8 163 5 -4 9 1 9 10 0 9 4 14 9 10 5 -3 13 5 17 17 9 29 50 68 71
68 9 0 13 6 9 15 -3 8 -2 15 3 15 5 0 11 -9 14 -19z m-80 -28 c-7 -2 -19 -2
-25 0 -7 3 -2 5 12 5 14 0 19 -2 13 -5z m1460 -18 c-3 -9 -8 -14 -10 -11 -3 3
-2 9 2 15 9 16 15 13 8 -4z m-1568 -55 c-3 -5 -10 -10 -16 -10 -5 0 -9 5 -9
10 0 6 7 10 16 10 8 0 12 -4 9 -10z m786 -85 c4 -33 10 -68 14 -77 4 -10 5
-18 2 -18 -4 0 -39 91 -52 138 -6 20 -4 23 12 20 14 -2 19 -16 24 -63z m96 28
c-3 -10 -5 -4 -5 12 0 17 2 24 5 18 2 -7 2 -21 0 -30z m-30 -29 c-3 -3 -12 -4
-19 -1 -8 3 -5 6 6 6 11 1 17 -2 13 -5z m633 -34 c-8 -6 -22 -10 -30 -10 -8 0
-4 6 10 13 27 15 44 12 20 -3z m-571 -60 c0 -8 -7 1 -14 20 -18 46 -17 64 0
25 8 -16 14 -37 14 -45z m529 -33 c2 -9 -2 -17 -8 -17 -7 0 -9 7 -6 16 5 12 2
15 -9 10 -10 -3 -13 -2 -10 5 9 14 29 6 33 -14z m-1135 -32 c-3 -9 -8 -14 -10
-11 -3 3 -2 9 2 15 9 16 15 13 8 -4z m1136 -16 c-7 -4 -21 -3 -31 2 -25 14
-23 16 13 11 21 -3 27 -7 18 -13z m-1493 0 c8 -13 -13 -36 -23 -25 -4 4 -1 11
6 16 11 6 10 9 -5 13 -16 4 -16 5 -2 6 9 0 20 -4 24 -10z m-15 -57 c-7 -2 -18
1 -23 6 -8 8 -4 9 13 5 13 -4 18 -8 10 -11z m1489 8 c8 -5 11 -10 5 -10 -5 0
-17 5 -25 10 -8 5 -10 10 -5 10 6 0 17 -5 25 -10z m-20 -55 c-7 -8 -20 -15
-29 -15 -13 1 -13 3 3 15 26 19 42 19 26 0z m-909 -29 c66 -17 203 -79 214
-95 12 -21 -3 -24 -29 -7 -35 22 -46 20 -46 -8 0 -18 11 -30 42 -48 66 -37 84
-87 19 -54 -41 22 -53 20 -49 -6 2 -15 18 -31 49 -47 l46 -25 7 -69 c4 -39 4
-72 1 -75 -3 -3 -22 4 -43 16 -85 51 -178 94 -265 124 -86 28 -99 30 -192 25
-55 -3 -140 -13 -190 -21 -49 -8 -144 -22 -210 -31 -166 -22 -173 -24 -178
-43 -4 -15 -5 -15 -12 1 -12 28 9 41 119 77 157 50 238 97 338 193 61 60 98
88 125 95 57 15 192 14 254 -2z m939 -20 c0 -3 -4 -8 -10 -11 -5 -3 -10 -1
-10 4 0 6 5 11 10 11 6 0 10 -2 10 -4z m-681 -102 c4 3 8 -2 8 -10 0 -21 -22
-11 -24 12 -2 10 0 13 3 6 3 -6 9 -10 13 -8z m-21 -34 c34 -22 62 -42 62 -45
0 -6 -128 62 -144 77 -6 5 -4 8 5 8 9 0 44 -18 77 -40z m575 -47 c-5 -15 -3
-16 7 -6 10 9 17 10 27 2 9 -8 17 -8 27 0 12 10 13 6 6 -26 -5 -21 -16 -58
-25 -83 -9 -25 -25 -74 -36 -110 -15 -55 -16 -62 -3 -45 15 19 16 18 9 -19 -8
-47 -36 -107 -46 -100 -5 2 -4 16 2 31 5 14 7 28 4 31 -3 3 -5 1 -5 -4 0 -5
-7 -18 -15 -28 -14 -18 -15 -18 -51 9 -32 25 -35 31 -29 62 3 20 18 59 33 87
49 97 53 106 46 106 -4 0 -4 3 -1 7 4 3 16 -2 28 -13 21 -19 21 -19 40 5 25
31 9 65 -27 58 -28 -5 -32 13 -8 37 20 21 25 20 17 -1z m-539 -11 c2 -4 1 -14
-3 -21 -6 -9 -10 -7 -14 8 -5 20 7 29 17 13z m-28 -38 c36 -20 63 -38 61 -41
-8 -7 -137 55 -137 66 0 16 6 14 76 -25z m153 -4 c0 -10 -3 -8 -9 5 -12 27
-12 43 0 25 5 -8 9 -22 9 -30z m426 -17 c-2 -10 -4 -19 -4 -21 -1 -2 -6 0 -11
3 -8 5 -7 11 1 21 15 18 18 18 14 -3z m-485 -54 c4 7 20 -2 43 -26 46 -45 47
-55 5 -41 -91 28 -98 28 -98 1 0 -16 13 -38 33 -57 38 -36 228 -133 297 -152
25 -7 38 -13 30 -13 -8 -1 -57 10 -109 24 -99 27 -196 72 -230 109 -20 21 -41
100 -41 153 0 23 0 23 31 7 22 -11 34 -13 39 -5z m330 -13 c0 -34 0 -34 -36
-26 -42 10 -56 20 -26 20 12 0 27 9 34 20 19 29 28 25 28 -14z m-131 -111 l26
-30 -33 30 c-19 17 -48 48 -64 70 l-31 40 38 -40 c20 -22 49 -53 64 -70z m121
-111 c0 -2 -9 0 -20 6 -11 6 -20 13 -20 16 0 2 9 0 20 -6 11 -6 20 -13 20 -16z
m37 -60 c-3 -3 -12 -4 -19 -1 -8 3 -5 6 6 6 11 1 17 -2 13 -5z m38 -4 c3 -5
-1 -10 -10 -10 -9 0 -13 5 -10 10 3 6 8 10 10 10 2 0 7 -4 10 -10z m-895 -107
c1 -5 12 -21 26 -38 18 -20 22 -23 15 -8 -8 15 -8 24 -1 28 6 4 67 3 135 -1
l125 -7 0 -163 c0 -110 4 -164 11 -164 6 0 31 14 55 31 25 17 48 28 51 25 7
-7 11 -4 -54 -45 l-53 -33 -34 22 c-85 52 -329 360 -286 360 5 0 10 -3 10 -7z
m-173 -50 c32 -57 134 -211 176 -268 29 -39 28 -39 -14 6 -56 59 -214 309
-195 309 3 0 17 -21 33 -47z m129 -90 c-11 -11 -17 4 -9 23 7 18 8 18 11 1 2
-10 1 -21 -2 -24z m750 0 c-11 -11 -17 4 -9 23 7 18 8 18 11 1 2 -10 1 -21 -2
-24z m-510 -258 c-2 -14 -16 -22 -16 -10 0 3 0 10 0 15 0 6 4 10 9 10 5 0 8
-7 7 -15z m254 -7 c0 -23 -16 -23 -22 0 -3 11 0 19 8 19 8 0 14 -9 14 -19z
m70 -45 c-25 -21 -52 -45 -60 -53 -41 -38 -146 -100 -170 -100 -6 0 -20 9 -32
20 -12 10 -26 17 -31 13 -6 -3 -7 -1 -4 4 4 6 -3 13 -15 16 -12 4 -19 9 -15
13 4 4 29 -7 56 -24 l50 -30 73 44 c40 24 96 64 123 89 28 24 54 44 59 45 5 0
-10 -17 -34 -37z m-346 -69 c3 -8 2 -12 -4 -9 -6 3 -10 10 -10 16 0 14 7 11
14 -7z"/>
<path d="M1355 2440 c-8 -16 -34 -39 -56 -51 -23 -11 -39 -23 -36 -25 8 -8 78
33 91 53 15 21 27 53 21 53 -2 0 -11 -13 -20 -30z"/>
<path d="M1425 2433 c14 -35 56 -80 98 -104 28 -16 20 -5 -34 49 -31 31 -49
57 -46 66 5 12 -11 26 -29 26 -2 0 3 -17 11 -37z"/>
<path d="M1555 1890 c-3 -5 -1 -10 4 -10 6 0 11 5 11 10 0 6 -2 10 -4 10 -3 0
-8 -4 -11 -10z"/>
<path d="M1550 1849 c0 -5 5 -7 10 -4 6 3 10 8 10 11 0 2 -4 4 -10 4 -5 0 -10
-5 -10 -11z"/>
<path d="M975 1620 c-3 -5 -1 -10 4 -10 6 0 11 5 11 10 0 6 -2 10 -4 10 -3 0
-8 -4 -11 -10z"/>
<path d="M790 2235 c-10 -12 -10 -21 -2 -40 15 -32 27 -32 48 0 13 20 14 28 4
40 -16 19 -34 19 -50 0z m33 -20 c-3 -8 -9 -15 -14 -15 -10 0 -12 24 -3 33 11
11 24 -3 17 -18z"/>
<path d="M473 2218 c-12 -16 -27 -55 -17 -45 4 4 13 -1 20 -11 10 -13 17 -15
31 -6 23 14 28 41 13 59 -15 18 -34 19 -47 3z m33 -45 c-11 -11 -17 4 -9 23 7
18 8 18 11 1 2 -10 1 -21 -2 -24z"/>
<path d="M2094 2206 c-8 -21 15 -58 33 -54 22 4 38 32 30 52 -8 20 -56 21 -63
2z m40 -11 c-4 -8 -10 -15 -15 -15 -5 0 -9 7 -9 15 0 8 7 15 15 15 9 0 12 -6
9 -15z"/>
<path d="M725 1740 c-3 -5 1 -10 9 -10 9 0 16 5 16 10 0 6 -4 10 -9 10 -6 0
-13 -4 -16 -10z"/>
<path d="M681 1514 c0 -11 3 -14 6 -6 3 7 2 16 -1 19 -3 4 -6 -2 -5 -13z"/>
</g>
</svg>
